<?xml version="1.0" standalone="no"?>
<!DOCTYPE svg PUBLIC "-//W3C//DTD SVG 1.1//EN" "http://www.w3.org/Graphics/SVG/1.1/DTD/svg11.dtd" >
<svg xmlns="http://www.w3.org/2000/svg" xmlns:xlink="http://www.w3.org/1999/xlink" version="1.1">
<metadata>
Created by FontForge 20150318 at Mon Jun  8 00:49:39 2015
 By uniteet7
Copyright (c) 2015 by Seniors Studio. All rights reserved.
</metadata>
<defs>
<font id="IsabellaScript" horiz-adv-x="222" >
  <font-face 
    font-family="Isabella Script"
    font-weight="400"
    font-stretch="normal"
    units-per-em="1000"
    panose-1="2 0 5 3 0 0 0 2 0 2"
    ascent="800"
    descent="-200"
    x-height="250"
    cap-height="616"
    bbox="-609.186 -267.054 1230.5 722"
    underline-thickness="50"
    underline-position="-50"
    stemh="100"
    unicode-range="U+0020-E0007"
  />
<missing-glyph horiz-adv-x="140" 
 />
    <glyph glyph-name="a_r_r" unicode="arr" horiz-adv-x="713" 
d="M732 212c6 -5 10 -4 6 -11c-2 -5 -6 -11 -11 -18c-30 -47 -98 -137 -138 -137c-87 0 -29 166 -13 208c-7 4 -15 10 -23 15c-6 -10 -11 -19 -17 -29c-38 -68 -154 -268 -195 -268c-61 0 -43 97 -24 174c13 51 29 91 35 108c-7 4 -16 10 -23 15l-21 -36
c-33 -60 -117 -216 -164 -216c-27 0 -41 14 -46 35s-1 53 6 85c-20 -35 -44 -66 -67 -66c-33 0 -40 48 -39 73c2 61 43 129 92 128c15 0 32 -7 48 -23c2 7 4 13 5 16c8 19 30 10 49 6c-19 -44 -67 -196 -61 -231c1 -8 4 -13 10 -13c44 0 128 160 154 206l24 43
c-17 13 -30 35 -29 53c0 14 9 25 30 25c23 0 29 -13 29 -28c-1 -13 -7 -28 -9 -34c12 -14 37 -27 59 -35c-2 -6 -22 -64 -40 -129s-35 -143 -18 -143c34 0 155 207 183 256l19 35c-11 8 -20 21 -25 34c-9 22 -4 44 26 44c26 0 30 -17 28 -34c-1 -11 -6 -22 -8 -28
c13 -14 38 -27 59 -35c-3 -12 -70 -201 -37 -201c34 0 101 87 132 133c6 10 11 18 14 23zM43 83c16 0 49 54 72 98c6 20 13 39 20 59c-11 10 -21 15 -30 15c-43 0 -68 -106 -69 -151c0 -6 -1 -21 7 -21zM331 301c2 4 5 15 6 25c0 9 -3 16 -12 16c-6 0 -9 -3 -9 -9
c-1 -8 4 -19 15 -32zM561 323c0 10 -2 19 -12 19c-9 0 -12 -9 -6 -22c2 -6 6 -12 12 -19c2 3 5 13 6 22z" />
    <glyph glyph-name="e_s" unicode="es" horiz-adv-x="403" 
d="M422 212c6 -5 10 -6 6 -12c-27 -42 -56 -64 -102 -80c-1 -61 -16 -123 -90 -123c-46 0 -64 40 -36 71c22 24 66 41 81 47c2 34 -4 66 -8 100c-1 6 -2 17 -2 29c-5 -8 -9 -16 -14 -25c-43 -76 -132 -212 -223 -210c-36 0 -49 34 -48 78c2 86 60 213 121 213
c26 0 43 -18 41 -38c-1 -22 -24 -47 -80 -55h-4c-19 -47 -42 -122 -44 -155c-1 -24 8 -31 21 -32c78 -1 171 143 211 214l22 39c3 13 10 22 23 22c8 0 12 -2 14 -6l-12 -19c-1 -9 2 -24 8 -43c8 -32 17 -63 18 -96c46 15 72 40 97 81zM119 283c-16 0 -34 -26 -50 -65
c49 7 67 31 67 48c-1 10 -7 17 -17 17zM225 14c44 -2 54 56 56 89c-16 -6 -55 -21 -72 -42c-14 -18 -11 -46 16 -47z" />
    <glyph glyph-name="a_x" unicode="ax" horiz-adv-x="552" 
d="M571 212c9 -5 11 -4 7 -11c-19 -34 -88 -142 -132 -181c-13 -12 -27 -17 -39 -16c-42 2 -54 52 -59 86c-26 -29 -50 -55 -67 -70c-3 -3 -6 -6 -9 -7c-21 -13 -35 16 -10 15c11 0 8 -2 15 5c18 17 42 45 69 74c-7 60 -8 128 -24 128c-4 0 -9 -3 -14 -9
c-45 -48 -104 -209 -164 -209c-27 0 -41 14 -46 35c-5 20 -1 52 6 85c-20 -35 -44 -67 -67 -67c-33 0 -40 48 -39 74c2 61 43 128 92 128c15 0 32 -7 48 -23c2 7 4 13 5 15c8 20 30 11 49 7c-19 -44 -67 -196 -61 -232c1 -7 4 -12 10 -12c49 0 113 148 154 201
c15 20 29 32 42 32c33 2 43 -51 49 -108c29 33 58 64 76 81c18 16 40 6 31 -6c-2 -2 -7 -3 -16 0c-2 1 -3 0 -6 -2c-20 -19 -51 -55 -84 -91c5 -61 7 -120 28 -118c6 1 14 6 24 15c44 40 116 151 132 181zM43 82c16 1 49 55 72 98c6 20 13 40 20 60c-11 10 -21 15 -30 15
c-43 0 -69 -107 -69 -152c0 -5 -1 -21 7 -21z" />
    <glyph glyph-name="l_l" unicode="ll" horiz-adv-x="358" 
d="M377 212c7 -6 10 -5 6 -11c-33 -56 -113 -236 -174 -236c-10 0 -20 4 -28 14c-12 14 -17 36 -17 63c1 36 7 76 16 117c-37 -70 -94 -180 -142 -180c-10 0 -20 5 -28 14c-12 14 -17 37 -17 63c2 90 45 240 73 332c17 54 43 107 75 107c19 0 29 -10 32 -24
c16 -60 -99 -251 -111 -265c-3 -11 -34 -135 -32 -194c1 -17 5 -21 11 -21c41 0 120 156 148 209c12 45 26 90 38 131c17 53 43 107 75 107c19 0 29 -11 33 -24c16 -61 -87 -203 -99 -217c-3 -11 -37 -140 -35 -199c0 -17 5 -21 11 -21c45 0 136 186 165 235zM269 321
c-14 -48 -24 -86 -27 -98c6 8 92 141 83 183c-2 7 -7 12 -13 12c-16 0 -38 -82 -43 -97zM108 378c-15 -47 -37 -134 -41 -146c6 8 106 189 97 232c-2 6 -7 12 -13 12c-16 0 -39 -83 -43 -98z" />
    <glyph glyph-name="t_t" unicode="tt" horiz-adv-x="351" 
d="M370 212c7 -6 10 -5 7 -11c-31 -51 -100 -206 -160 -206c-10 0 -21 5 -30 15c-11 13 -16 37 -16 63s4 57 9 89c-34 -60 -85 -144 -133 -144c-9 0 -21 4 -29 14c-12 14 -17 37 -16 64c1 69 20 155 42 234c-27 -1 -49 -3 -63 -3c-88 0 -108 65 -78 101
c-1 -59 38 -91 84 -90c14 1 35 2 60 4c11 37 22 82 36 117c8 19 31 10 50 6c-14 -32 -26 -84 -36 -119c42 3 88 7 128 9c8 27 17 60 27 86c8 20 31 11 50 6c-10 -24 -20 -64 -28 -90c25 0 44 -1 54 -3c13 -4 19 -11 19 -29c-13 9 -42 14 -78 15c-1 -2 -1 -4 -2 -5
c-24 -83 -52 -194 -57 -269c-1 -13 -2 -25 -1 -37c0 -17 5 -21 11 -21c45 0 130 170 150 204zM186 195c9 48 22 98 33 140c1 2 1 4 2 5c-41 0 -87 -3 -128 -6c-24 -83 -47 -170 -53 -245c-1 -13 -1 -25 -1 -38c1 -16 5 -20 12 -20c39 0 106 113 135 164z" />
    <glyph glyph-name="f_f" unicode="ff" horiz-adv-x="354" 
d="M374 212c8 -7 9 -5 6 -11c-44 -73 -60 -100 -147 -120c-10 -2 -19 -4 -29 -7l1 -6c11 -35 18 -108 10 -170c-7 -54 -25 -99 -63 -97c-29 1 -32 36 -32 58c0 73 30 206 57 308c-24 -24 -53 -36 -105 -48c-10 -2 -20 -5 -29 -7l1 -7c11 -34 18 -108 10 -169
c-7 -54 -25 -99 -63 -98c-32 2 -33 45 -32 69c3 107 63 323 85 407c5 17 13 54 26 91c17 53 43 107 74 107c19 0 29 -11 33 -25c17 -60 -99 -251 -112 -265c-9 -32 -16 -66 -24 -99c12 3 23 5 35 8c49 11 83 27 107 61c9 34 17 63 22 84c12 45 47 198 100 198
c19 0 29 -11 33 -24c17 -61 -99 -252 -112 -266c-9 -32 -16 -66 -24 -99c12 3 23 6 35 9c73 16 95 49 137 118zM316 455c-24 0 -77 -217 -84 -244c6 8 106 189 96 231c-1 7 -7 13 -12 13zM111 395c-14 -48 -37 -133 -40 -146c6 8 106 188 96 231c-1 7 -7 12 -13 12
c-16 0 -38 -82 -43 -97zM41 -59c7 59 3 130 -6 158c-4 -16 -54 -196 -47 -235c1 -7 3 -9 7 -9c26 0 40 39 46 86zM202 -97c7 59 3 130 -6 158c-4 -16 -54 -196 -47 -235c1 -7 4 -9 7 -9c26 0 40 39 46 86z" />
    <glyph glyph-name="f_t" unicode="ft" horiz-adv-x="347" 
d="M357 327c-30 0 -62 7 -93 10c-26 -86 -57 -195 -55 -286c1 -16 5 -20 12 -20c44 0 125 147 145 181c7 -6 10 -5 7 -11c-31 -51 -96 -183 -156 -183c-38 0 -46 49 -45 78c0 23 2 47 6 73c-23 -25 -53 -37 -107 -50c-9 -2 -19 -5 -28 -7l1 -7c10 -34 17 -107 10 -169
c-7 -54 -25 -99 -63 -98c-33 2 -33 45 -32 69c3 107 63 324 85 407c4 18 13 54 25 91c18 53 44 107 75 107c19 0 29 -11 33 -25c16 -60 -99 -251 -112 -265c-9 -32 -16 -66 -24 -99c11 3 23 6 34 8c49 11 82 27 106 59c9 49 21 100 35 148c-20 -2 -39 -7 -56 -21
c-5 13 5 24 18 29c13 6 28 8 43 8c9 31 18 61 26 88c3 7 5 13 6 17c8 19 31 10 50 6c-1 -1 -3 -9 -7 -22c-9 -30 -19 -61 -28 -93c29 -5 58 -12 83 -12c45 0 84 31 83 90c30 -36 9 -101 -77 -101zM111 395c-14 -48 -37 -133 -40 -146c6 8 105 189 96 231c-2 7 -7 12 -13 12
c-16 0 -38 -82 -43 -97zM41 -59c7 59 2 130 -6 158c-4 -16 -55 -196 -48 -235c1 -7 4 -9 8 -9c26 0 40 39 46 86z" />
    <glyph glyph-name="f_l" unicode="fl" horiz-adv-x="355" 
d="M374 212c7 -6 10 -5 7 -11c-31 -51 -105 -221 -165 -222c-37 0 -45 51 -44 77c0 29 5 64 12 102c-28 -41 -53 -61 -120 -77c-10 -2 -19 -4 -29 -7l1 -6c11 -35 18 -108 10 -169c-6 -55 -25 -100 -63 -98c-29 1 -32 36 -32 58c0 104 63 331 85 417c12 45 48 198 100 198
c19 0 29 -10 33 -24c17 -61 -99 -252 -111 -266c-9 -32 -17 -66 -25 -99c12 3 24 6 35 9c64 14 89 42 122 95c16 70 38 145 55 199c16 54 43 107 74 107c19 0 29 -10 33 -24c16 -60 -100 -251 -112 -265c-3 -11 -34 -135 -32 -194c1 -17 5 -21 12 -21c44 1 135 187 154 221z
M286 378c-14 -47 -37 -134 -41 -146c6 8 106 189 97 232c-2 7 -7 12 -13 12c-16 0 -38 -83 -43 -98zM147 455c-24 0 -76 -217 -84 -243c6 8 106 188 96 231c-1 6 -7 12 -12 12zM33 -96c8 58 3 130 -6 157c-4 -15 -54 -196 -47 -235c1 -7 4 -9 7 -9c26 0 40 39 46 87z" />
    <glyph glyph-name="K_y" unicode="Ky" horiz-adv-x="1010" 
d="M556 577c-8 -20 -16 -40 -24 -61c-48 -121 -94 -245 -143 -366c-40 -93 -96 -195 -177 -193c-48 2 -77 35 -92 82c-27 -21 -56 -37 -91 -37c-52 0 -68 36 -63 70c4 32 27 62 59 62c10 0 32 -3 22 -15s-21 1 -26 1c-22 4 -44 -30 -44 -59c1 -24 13 -47 52 -47
c35 0 62 19 88 40c-6 27 -6 59 -2 88c7 62 46 176 123 169c30 -2 40 -19 38 -42c-6 -68 -104 -194 -145 -221c12 -45 38 -72 82 -74c60 -2 101 81 131 167c45 130 89 250 141 379c6 16 13 33 19 49c-17 -2 -36 -3 -51 -3c-44 1 -76 13 -73 51c2 33 51 71 53 48
c1 -13 -14 -12 -22 -14c-12 -13 -18 -24 -19 -33c-4 -29 23 -38 61 -39c20 0 44 2 67 4c11 2 25 -4 36 -6zM127 141c-3 -25 -3 -54 1 -78c32 25 108 149 117 207c3 17 0 27 -13 28c-64 5 -99 -105 -105 -157zM829 606c49 8 70 -22 72 -54c-15 0 -11 -3 -14 9
c-5 21 -23 37 -56 32c-34 -6 -51 -61 -88 -111c-52 -70 -125 -143 -239 -183c56 -9 83 -61 80 -111c-7 -131 -127 -356 -72 -384c20 -10 60 -9 58 20c0 4 -11 18 3 27c12 7 13 -15 11 -26c-5 -44 -54 -48 -86 -27c-100 66 36 301 35 420c0 32 -19 66 -53 75c0 11 -3 11 7 14
c115 38 168 132 220 202c38 52 83 90 122 97zM1030 212c10 -6 10 -4 6 -11c-26 -48 -49 -94 -81 -139c-32 -44 -69 -82 -106 -88c-6 -25 -13 -50 -21 -74c-19 -57 -65 -133 -136 -134c-40 -1 -75 24 -73 68c2 57 74 98 113 115c28 12 55 21 74 28c10 41 24 93 38 143
c-19 -23 -40 -44 -59 -57c-6 -4 -14 -7 -22 -7c-32 0 -43 26 -42 59c0 47 20 107 28 129c7 19 30 10 48 6c-5 -12 -48 -130 -42 -171c2 -7 5 -12 11 -12c4 0 8 2 14 6c23 15 50 46 72 77c9 28 18 55 27 77c7 19 30 11 49 6c-29 -81 -53 -162 -75 -247c28 5 59 37 88 76
c36 50 58 97 89 150zM786 -90c5 14 12 40 16 54c-18 -7 -43 -15 -68 -26c-35 -15 -99 -53 -101 -105c-2 -34 20 -51 52 -51c65 2 86 78 101 128z" />
    <glyph glyph-name="M_y" unicode="My" horiz-adv-x="1202" 
d="M971 605c16 -2 23 -9 22 -20c-2 -46 -144 -158 -162 -174c-21 -56 -141 -392 -142 -539c0 -34 7 -58 22 -66c20 -10 60 -9 59 20c0 4 -11 18 3 27c12 7 13 -15 11 -26c-5 -44 -54 -48 -87 -27c-35 23 -45 79 -42 147c8 146 79 348 105 414l-18 -11
c-65 -56 -112 -87 -175 -143c-4 -19 -13 -61 -26 -103c-19 -57 -43 -113 -73 -113c-15 0 -22 17 -20 42c2 44 29 114 76 164c23 99 47 192 79 277c11 26 22 52 33 76c-119 -49 -135 -191 -191 -317c-37 -86 -140 -278 -254 -275c-30 1 -57 17 -72 59
c-28 -23 -59 -40 -97 -36c-45 4 -63 36 -61 68c1 31 23 63 54 63c11 1 33 -3 24 -15s-21 0 -27 1c-19 3 -35 -21 -39 -47c-2 -27 12 -57 52 -59c37 -1 63 17 90 40c-8 28 -10 59 -8 88c3 61 35 176 113 169c43 -3 43 -46 35 -77c-18 -65 -75 -143 -126 -186
c13 -38 37 -52 65 -51c102 3 169 186 203 263c76 174 112 303 294 344c-16 -38 -30 -74 -44 -109c-28 -78 -53 -154 -73 -242c63 60 130 108 194 159v0c21 78 99 226 203 215zM125 41c34 31 84 127 97 174c6 25 17 60 -7 61c-66 5 -94 -106 -96 -156c-2 -26 0 -55 6 -79z
M511 99c4 27 8 54 11 71c-24 -20 -58 -102 -60 -142c-1 -16 2 -25 10 -25c20 0 32 49 39 96zM839 437c6 6 141 115 138 146c-1 5 -4 8 -13 8c-61 3 -110 -113 -125 -154zM1222 212c10 -6 10 -4 6 -11c-26 -48 -49 -94 -81 -139c-32 -44 -69 -82 -106 -88
c-6 -25 -13 -50 -21 -74c-19 -57 -65 -133 -136 -134c-40 -1 -75 24 -73 68c2 57 74 98 113 115c28 12 55 21 74 28c10 41 24 93 38 143c-19 -23 -40 -44 -59 -57c-6 -4 -14 -7 -22 -7c-32 0 -43 26 -42 59c0 47 20 107 28 129c7 19 30 10 48 6c-5 -12 -48 -130 -42 -171
c2 -7 5 -12 11 -12c4 0 8 2 14 6c23 15 50 46 72 77c9 28 18 55 27 77c7 19 30 11 49 6c-29 -81 -53 -162 -75 -247c28 5 59 37 88 76c36 50 58 97 89 150zM978 -90c5 14 12 40 16 54c-18 -7 -43 -15 -68 -26c-35 -15 -99 -53 -101 -105c-2 -34 20 -51 52 -51
c65 2 86 78 101 128z" />
    <glyph glyph-name="R_y" unicode="Ry" horiz-adv-x="1012" 
d="M565 578c127 -5 168 -59 163 -122c-8 -90 -88 -179 -170 -195c85 -69 -111 -424 -43 -459c19 -10 59 -9 58 20c0 4 -11 18 3 27c12 7 12 -15 11 -26c-6 -44 -54 -49 -86 -27c-118 79 94 413 12 467c-5 3 -10 4 -15 9l11 12c83 -40 170 76 172 177c1 56 -30 101 -116 105
h-19c-9 -27 -17 -52 -26 -78c-19 -59 -51 -143 -86 -225c-35 -84 -114 -317 -222 -313c-49 1 -81 35 -97 82c-8 -8 -17 -14 -27 -20c-19 -11 -41 -17 -62 -17c-52 0 -71 36 -69 69c3 31 23 62 56 63c10 0 32 -4 23 -15c-9 -12 -22 0 -26 1c-22 4 -41 -30 -40 -59
c2 -24 17 -47 55 -47c19 0 41 8 58 19c9 6 19 14 28 21c-8 27 -11 58 -9 88c3 62 34 175 112 169c31 -3 41 -19 41 -43c-2 -67 -90 -193 -130 -221c14 -44 43 -71 87 -73c84 -3 156 239 182 306c29 77 58 155 78 217c7 23 16 50 25 73c-66 2 -139 4 -139 50
c1 34 48 72 51 50c2 -13 -13 -13 -20 -16c-11 -13 -17 -23 -17 -33c-4 -46 146 -34 193 -36zM121 56c29 25 98 149 103 206c2 16 -3 28 -15 29c-65 5 -92 -106 -95 -157c-1 -25 1 -54 7 -78zM1032 212c10 -6 10 -4 6 -11c-26 -48 -49 -94 -81 -139c-32 -44 -69 -82 -106 -88
c-6 -25 -13 -50 -21 -74c-19 -57 -65 -133 -136 -134c-40 -1 -75 24 -73 68c2 57 74 98 113 115c28 12 55 21 74 28c10 41 24 93 38 143c-19 -23 -40 -44 -59 -57c-6 -4 -14 -7 -22 -7c-32 0 -43 26 -42 59c0 47 20 107 28 129c7 19 30 10 48 6c-5 -12 -48 -130 -42 -171
c2 -7 5 -12 11 -12c4 0 8 2 14 6c23 15 50 46 72 77c9 28 18 55 27 77c7 19 30 11 49 6c-29 -81 -53 -162 -75 -247c28 5 59 37 88 76c36 50 58 97 89 150zM788 -90c5 14 12 40 16 54c-18 -7 -43 -15 -68 -26c-35 -15 -99 -53 -101 -105c-2 -34 20 -51 52 -51
c65 2 86 78 101 128z" />
    <glyph glyph-name=".notdef" horiz-adv-x="140" 
 />
    <glyph glyph-name="NULL" horiz-adv-x="0" 
 />
    <glyph glyph-name="CR" horiz-adv-x="140" 
 />
    <glyph glyph-name="space" unicode=" " horiz-adv-x="140" 
 />
    <glyph glyph-name="c" unicode="c" 
d="M241 212c6 -6 9 -6 6 -11c-35 -66 -123 -180 -207 -179c-28 1 -49 20 -48 78c1 80 46 190 110 189c17 0 34 -10 40 -29c4 -10 7 -32 -6 -27c-15 5 -4 22 -5 27c-1 9 -9 16 -17 16c-35 -1 -85 -145 -88 -211c-1 -23 8 -31 21 -31c72 -1 162 120 194 178z" />
    <glyph glyph-name="e" unicode="e" horiz-adv-x="220" 
d="M239 212c7 -6 9 -5 6 -11c-35 -67 -128 -193 -212 -192c-35 1 -49 34 -47 78c2 87 60 214 121 213c26 0 42 -18 41 -38c-2 -21 -25 -46 -80 -54l-5 -1c-18 -46 -42 -121 -43 -155c-1 -23 8 -31 20 -31c71 -1 167 133 199 191zM118 283c-15 1 -33 -26 -50 -64
c49 7 67 31 67 47c0 10 -7 17 -17 17z" />
    <glyph glyph-name="p" unicode="p" horiz-adv-x="269" 
d="M288 212c9 -7 10 -6 6 -12c-39 -65 -50 -79 -118 -100c-7 -2 -15 -5 -23 -6c-19 -44 -53 -78 -89 -78c-15 0 -34 7 -34 27c1 28 59 46 78 51c6 11 28 79 30 118c1 15 -1 26 -8 25c-23 0 -78 -99 -94 -132c-3 -16 -7 -32 -10 -46c-24 -102 -47 -212 -94 -278
c-13 -19 -31 -32 -48 -31c-45 1 -26 66 -17 91c27 74 89 169 105 191l6 24c15 63 30 127 48 189c6 21 33 11 51 7c-12 -32 -22 -70 -31 -108c23 47 57 106 90 106c33 -1 42 -24 42 -54c-1 -29 -13 -65 -20 -90c6 2 13 4 19 5c58 19 73 38 111 101zM-97 -223
c26 39 59 207 62 222c-13 -16 -63 -99 -85 -161c-5 -15 -23 -70 5 -72c6 -1 12 2 18 11zM52 30c18 0 40 27 51 51c-13 -3 -62 -21 -62 -41c0 -7 4 -10 11 -10z" />
    <glyph glyph-name="q" unicode="q" horiz-adv-x="297" 
d="M317 212c8 -7 9 -6 5 -12c-43 -72 -60 -99 -146 -119c-10 -3 -20 -5 -29 -7l1 -7c11 -35 18 -108 10 -169c-7 -55 -25 -99 -63 -98c-29 1 -32 36 -32 58c1 67 27 199 53 301c-26 -58 -63 -129 -93 -129c-29 0 -38 37 -39 60c-3 71 48 178 103 178c16 -1 34 -9 52 -28
c2 9 5 18 7 24c6 20 30 10 48 6c-5 -15 -14 -43 -18 -59c-12 -42 -21 -87 -31 -127c12 3 23 6 35 9c73 16 94 50 137 119zM29 43c22 0 82 126 102 171c2 5 3 11 5 16c-12 14 -24 21 -34 21c-48 -1 -86 -166 -80 -200c1 -5 3 -9 7 -8zM145 -97c7 58 3 130 -6 157
c-4 -15 -54 -196 -47 -235c1 -6 4 -9 7 -9c26 0 40 39 46 87z" />
    <glyph glyph-name="m" unicode="m" horiz-adv-x="394" 
d="M414 212c9 -6 10 -4 6 -11c-21 -37 -94 -189 -139 -237c-7 -7 -19 -14 -32 -14c-27 0 -38 32 -37 55c2 66 52 207 49 233c-1 3 -2 4 -5 4c-23 -1 -84 -105 -102 -140c-4 -13 -7 -24 -8 -31c-6 -27 -23 -21 -49 -24c3 18 55 206 52 224c-1 4 -3 6 -5 6
c-22 -1 -80 -107 -100 -148c-7 -26 -13 -52 -21 -76c-7 -26 -23 -21 -50 -24c18 71 41 172 60 238c5 20 33 10 51 6c-11 -31 -21 -67 -30 -103c26 53 64 119 96 119c18 0 32 -11 36 -27c5 -17 -8 -71 -21 -119c26 49 64 112 97 112c18 0 30 -10 34 -26
c11 -40 -55 -231 -45 -262c4 -12 21 6 24 8c44 48 124 214 139 237z" />
    <glyph glyph-name="o" unicode="o" 
d="M241 212c6 -6 9 -6 6 -11c-16 -29 -41 -57 -72 -56c-10 0 -21 4 -33 12c-18 -47 -51 -118 -108 -117c-39 1 -49 42 -48 72c1 61 41 143 103 142c7 0 14 -2 21 -6c3 3 9 5 16 5c23 0 28 -27 27 -51c-1 -13 -3 -25 -5 -31c9 -10 19 -14 28 -14c25 -1 48 27 65 55zM42 54
c43 -5 79 76 92 110c-20 20 -35 53 -30 73c-44 -4 -90 -117 -81 -162c3 -12 9 -20 19 -21zM143 204c1 17 -1 37 -12 37c-22 0 5 -56 8 -61c1 3 3 13 4 24z" />
    <glyph glyph-name="g" unicode="g" horiz-adv-x="269" 
d="M289 212c10 -6 10 -4 6 -11c-6 -11 -12 -22 -18 -34c-31 -59 -101 -182 -169 -193v-1c-5 -20 -12 -46 -21 -73c-19 -56 -65 -132 -136 -134c-40 0 -75 24 -73 68c2 57 74 99 113 115c28 12 55 21 74 29c11 41 25 99 40 154c-24 -49 -53 -97 -79 -96c-32 0 -39 44 -38 69
c2 71 51 168 102 168c17 -1 34 -8 51 -27c3 8 6 16 7 19c8 20 31 11 50 6c-33 -93 -61 -188 -86 -284c57 9 128 135 156 187c7 12 14 26 21 38zM45 -90c5 15 12 40 16 54c-18 -7 -43 -14 -68 -25c-35 -15 -99 -53 -101 -106c-2 -33 20 -51 52 -50c65 1 86 77 101 127zM32 48
c19 0 65 90 91 145c5 15 10 30 15 44c-12 13 -23 19 -33 19c-47 0 -85 -166 -80 -200c1 -5 4 -8 7 -8z" />
    <glyph glyph-name="f" unicode="f" horiz-adv-x="185" 
d="M204 212c9 -7 10 -5 6 -12c-44 -72 -60 -99 -147 -119c-10 -2 -19 -5 -29 -7l1 -7c11 -34 18 -107 10 -169c-6 -54 -25 -99 -63 -98c-29 1 -32 37 -32 59c-1 103 63 331 85 417c12 45 48 198 100 198c19 0 29 -11 33 -25c17 -60 -99 -251 -112 -265
c-9 -32 -16 -66 -24 -99c12 3 24 6 35 8c73 17 95 50 137 119zM146 454c-24 0 -76 -216 -84 -243c6 8 106 188 96 231c-1 7 -7 12 -12 12zM32 -97c8 59 3 130 -6 158c-4 -16 -54 -196 -47 -235c1 -7 4 -9 7 -9c26 0 40 39 46 86z" />
    <glyph glyph-name="k" unicode="k" horiz-adv-x="277" 
d="M296 212c8 -6 10 -5 7 -11c-4 -5 -8 -14 -14 -24c-25 -47 -70 -133 -104 -176c-17 -22 -36 -30 -54 -29c-60 3 -87 90 -89 140c40 0 101 97 103 123c0 5 -2 9 -10 9c-22 0 -78 -90 -95 -124c-9 -33 -15 -66 -23 -100c-6 -28 -22 -21 -49 -25c23 114 51 227 81 340
c12 49 50 198 102 198c19 0 29 -10 33 -24c16 -60 -100 -251 -112 -265c-3 -12 -13 -51 -22 -86c24 45 59 101 91 101c25 0 36 -19 37 -40c0 -40 -46 -107 -91 -107c2 -29 27 -121 64 -121c8 0 17 5 26 17c31 41 78 128 103 175c8 14 13 25 16 29zM161 514
c-24 0 -75 -215 -84 -244c6 8 106 189 97 232c-2 6 -7 12 -13 12z" />
    <glyph glyph-name="j" unicode="j" horiz-adv-x="155" 
d="M75 303c-11 0 -19 9 -17 21s12 22 23 22s18 -10 17 -22c-2 -12 -12 -21 -23 -21zM174 212c10 -6 11 -3 7 -10c-17 -31 -32 -61 -51 -90c-36 -56 -82 -113 -127 -120c-6 -25 -14 -50 -22 -75c-18 -56 -64 -132 -135 -133c-41 -1 -76 24 -74 68c3 57 75 98 114 115
c27 12 55 20 73 28c19 73 50 199 76 265c8 20 31 11 50 7c-29 -82 -56 -178 -79 -263c37 6 79 60 114 114c19 30 37 65 54 94zM-60 -73c4 15 12 41 15 55c-17 -7 -42 -15 -67 -26c-36 -15 -100 -53 -102 -105c-1 -34 21 -52 53 -51c65 1 86 78 101 127z" />
    <glyph glyph-name="s" unicode="s" horiz-adv-x="183" 
d="M202 212c5 -5 10 -6 6 -12c-27 -42 -56 -64 -102 -80c-1 -60 -17 -122 -90 -122c-46 0 -64 39 -36 70c22 24 66 41 81 47c1 34 -4 67 -8 100c-1 7 -2 18 -2 29c-9 -15 -17 -30 -26 -44c-2 -4 -6 0 -11 3l40 70c3 13 10 23 23 23c8 0 11 -3 14 -6l-12 -20
c-1 -9 2 -24 7 -42c9 -32 18 -64 19 -97c45 16 72 41 97 81zM5 14c44 -2 54 56 56 90c-17 -7 -55 -22 -72 -43c-14 -18 -11 -46 16 -47z" />
    <glyph glyph-name="t" unicode="t" horiz-adv-x="178" 
d="M198 212c7 -6 10 -6 6 -11c-31 -52 -95 -183 -155 -184c-38 0 -46 49 -46 78c1 70 21 157 43 238c-21 -3 -42 -6 -61 -6c-87 0 -107 65 -77 101c-1 -59 37 -90 83 -90c18 0 38 3 59 7c10 34 20 67 29 96c3 8 5 14 6 18c8 19 31 10 50 6c-11 -35 -23 -74 -34 -112
c22 2 43 1 63 -7c13 -5 23 -16 18 -29c-25 20 -55 23 -86 21c-26 -86 -58 -196 -55 -287c1 -16 5 -20 11 -20c45 0 126 147 146 181z" />
    <glyph glyph-name="v" unicode="v" horiz-adv-x="229" 
d="M248 212c7 -5 10 -5 7 -10c-16 -28 -40 -56 -69 -57c-11 0 -24 3 -36 12c-13 -33 -60 -136 -105 -136c-47 0 -50 46 -48 82c2 54 22 120 39 162c8 19 30 10 48 6c-18 -44 -58 -189 -52 -228c2 -7 5 -12 11 -12c40 0 87 104 98 134c-15 14 -22 36 -21 55c2 19 12 35 33 35
c15 0 19 -12 18 -26c-1 -21 -13 -48 -16 -58c11 -11 22 -15 32 -14c24 2 45 29 61 55zM147 180c2 6 12 32 12 49c0 8 -1 13 -7 13c-9 0 -13 -10 -13 -23c-1 -14 3 -32 8 -39z" />
    <glyph glyph-name="u" unicode="u" horiz-adv-x="296" 
d="M315 212c8 -7 10 -5 6 -12c-30 -53 -93 -155 -138 -184c-6 -4 -14 -7 -22 -7c-34 0 -42 30 -42 61c-1 17 2 33 4 45c-16 -21 -52 -71 -82 -71c-35 0 -44 36 -43 64c0 46 19 110 33 144c8 20 30 11 48 7c-5 -12 -53 -151 -46 -192c1 -7 4 -12 10 -12c24 0 73 69 85 87
c8 32 19 64 27 84s30 11 48 7c-5 -13 -57 -160 -50 -201c1 -7 5 -12 10 -12c4 0 9 2 15 5c42 28 108 136 137 187z" />
    <glyph glyph-name="w" unicode="w" horiz-adv-x="351" 
d="M371 212c6 -6 9 -6 6 -11c-16 -28 -40 -56 -71 -56c-10 0 -22 3 -34 12c-13 -34 -60 -137 -104 -137c-42 0 -50 37 -50 71c0 11 1 21 2 30c-16 -21 -49 -65 -78 -65c-40 0 -45 46 -43 76c3 38 18 80 29 111c7 20 29 11 48 7c-5 -13 -49 -130 -42 -171c1 -8 4 -12 10 -12
c23 0 67 59 79 76c4 26 12 52 19 71c8 19 30 11 49 7c-5 -13 -43 -137 -36 -178c1 -8 5 -12 10 -12c41 0 88 103 99 133c-18 18 -32 47 -31 67c1 13 8 22 23 22c21 0 27 -21 27 -42c0 -16 -3 -33 -5 -40c10 -11 20 -15 30 -14c24 0 46 27 63 55zM269 180c2 4 4 20 4 34
s-3 27 -12 27c-6 0 -8 -4 -9 -10c-1 -14 11 -42 17 -51z" />
    <glyph glyph-name="y" unicode="y" horiz-adv-x="288" 
d="M308 212c10 -6 10 -4 6 -11c-26 -48 -49 -94 -81 -139c-32 -44 -69 -82 -106 -88c-6 -25 -13 -50 -21 -74c-19 -57 -65 -133 -136 -134c-40 -1 -75 24 -73 68c2 57 74 98 113 115c28 12 55 21 74 28c10 41 24 93 38 143c-19 -23 -40 -44 -59 -57c-6 -4 -14 -7 -22 -7
c-32 0 -43 26 -42 59c0 47 20 107 28 129c7 19 30 10 48 6c-5 -12 -48 -130 -42 -171c2 -7 5 -12 11 -12c4 0 8 2 14 6c23 15 50 46 72 77c9 28 18 55 27 77c7 19 30 11 49 6c-29 -81 -53 -162 -75 -247c28 5 59 37 88 76c36 50 58 97 89 150zM64 -90c5 14 12 40 16 54
c-18 -7 -43 -15 -68 -26c-35 -15 -99 -53 -101 -105c-2 -34 20 -51 52 -51c65 2 86 78 101 128z" />
    <glyph glyph-name="x" unicode="x" horiz-adv-x="287" 
d="M306 212c9 -5 11 -3 7 -10c-19 -34 -88 -142 -132 -182c-13 -11 -27 -16 -39 -15c-42 2 -54 52 -59 86c-26 -29 -50 -55 -67 -70c-3 -3 -6 -6 -9 -7c-21 -13 -35 16 -10 15c10 0 8 -2 15 4c18 18 42 46 69 75c-7 60 -8 128 -24 128c-10 0 -23 -19 -32 -35
c-3 -3 -7 2 -11 4c17 31 42 56 57 56c34 1 44 -51 49 -108c30 33 59 64 77 81c18 16 40 5 31 -6c-2 -2 -7 -3 -16 0c-2 1 -4 0 -6 -2c-20 -20 -51 -55 -84 -92c5 -60 7 -120 27 -117c7 0 15 6 25 15c44 40 116 151 132 180z" />
    <glyph glyph-name="z" unicode="z" horiz-adv-x="253" 
d="M272 212c10 -6 10 -4 7 -11c-16 -29 -30 -55 -50 -82c-25 -34 -56 -68 -91 -85c1 -87 -94 -218 -193 -211c-17 1 -40 9 -46 32c-13 52 100 133 203 178c7 33 -7 64 -36 69c-26 -14 -45 -5 -47 4c-1 9 10 18 41 12c35 10 57 57 57 92c1 28 -13 40 -32 39
c-10 -1 -22 -4 -32 -13c-12 -10 -19 -20 -28 -36c-1 -2 -8 4 -10 5c9 17 17 30 31 43c18 17 42 26 64 26c28 -1 51 -18 51 -55c0 -36 -25 -82 -81 -107c35 -11 50 -33 57 -67c28 15 54 43 77 73c24 32 36 56 58 94zM-58 -160c49 0 132 104 157 179
c-88 -37 -193 -116 -186 -160c3 -16 18 -19 29 -19z" />
    <glyph glyph-name="A" unicode="A" horiz-adv-x="698" 
d="M718 212c7 -6 10 -5 7 -10c-31 -52 -103 -202 -163 -202c-38 0 -46 49 -46 78c1 42 13 107 30 175c-34 -6 -73 -13 -109 -16c-31 -73 -82 -161 -138 -218c-30 -31 -73 -57 -111 -56c-29 1 -55 18 -69 59c-28 -23 -58 -40 -96 -36c-44 4 -61 37 -59 68s22 61 53 62
c10 0 33 -4 24 -15c-10 -12 -22 0 -27 1c-18 3 -35 -20 -37 -46c-3 -27 9 -56 50 -58c35 -2 61 17 87 39c-7 27 -9 58 -8 87c3 61 34 173 111 167c41 -4 42 -46 34 -77c-17 -64 -73 -140 -122 -184c12 -37 36 -51 62 -50c31 1 66 23 89 51c41 52 77 136 108 207
c-34 3 -58 17 -58 48c0 26 28 54 42 55c4 0 7 -2 8 -7c2 -13 -14 -12 -21 -14c-11 -13 -16 -24 -17 -33c-2 -25 19 -35 51 -37c27 63 53 130 88 188c39 63 89 114 163 134c15 4 26 -1 40 -4c0 -2 -12 -41 -16 -54c-17 -59 -47 -152 -72 -243c20 2 47 3 46 -24
c-1 -12 -9 -24 -18 -30s-29 -16 -28 -1s18 11 22 13c7 3 12 11 12 18c1 19 -26 14 -37 13c-19 -72 -35 -142 -38 -189c-1 -12 -7 -58 10 -58c45 0 133 165 153 199zM125 46c32 30 81 126 93 172c7 24 18 58 -6 60c-64 5 -91 -104 -94 -155c-1 -25 0 -53 7 -77zM443 251
c34 2 73 9 106 14c23 93 53 190 71 248c2 6 8 27 12 39c-58 -20 -93 -63 -119 -116c-27 -55 -45 -122 -70 -185z" />
    <glyph glyph-name="B" unicode="B" horiz-adv-x="696" 
d="M690 461c-1 -52 -38 -113 -100 -162c46 -25 65 -63 64 -105c-1 -90 -93 -193 -202 -204c-56 -5 -81 35 -74 82c9 67 74 134 141 133c10 0 32 -4 23 -15c-10 -12 -22 1 -26 2c-55 10 -126 -71 -126 -129c-1 -34 19 -60 60 -56c79 7 155 119 158 203c1 33 -9 62 -33 78
c-36 -25 -62 -34 -79 -34c-18 0 -26 10 -26 20c-1 31 35 40 67 39c13 -1 25 -3 34 -5c42 38 71 97 72 149c1 55 -31 102 -114 104h-15c-4 -13 -9 -26 -13 -39c-42 -126 -80 -255 -124 -381c-32 -92 -81 -193 -161 -191c-49 2 -80 36 -96 81c-26 -21 -53 -36 -88 -36
c-51 0 -70 35 -68 69c3 31 23 61 55 61c10 0 32 -3 23 -15c-9 -11 -22 1 -26 1c-22 4 -41 -28 -39 -58c1 -24 16 -46 54 -46c35 0 59 18 85 39c-8 27 -10 59 -9 87c4 61 34 174 111 167c30 -2 41 -18 40 -42c-1 -67 -89 -191 -128 -218c14 -44 42 -71 86 -73
c59 -2 94 81 118 165c37 133 75 258 119 390c4 12 8 26 13 37c-65 3 -140 3 -140 49c0 34 46 71 50 49c2 -13 -14 -12 -20 -14c-12 -13 -17 -24 -18 -33c-4 -47 145 -35 192 -36c113 -3 161 -52 160 -113zM126 55c29 25 96 147 102 204c1 17 -3 27 -15 28
c-64 5 -91 -104 -94 -155c-1 -25 1 -53 7 -77zM495 265c12 0 33 8 63 32c-8 3 -20 4 -32 4c-23 0 -46 -6 -44 -25c1 -7 5 -11 13 -11z" />
    <glyph glyph-name="F" unicode="F" horiz-adv-x="555" 
d="M508 324c15 0 30 -14 28 -29c-2 -22 -30 -30 -48 -32c-3 -24 -13 -54 -31 -66c-5 -3 -11 -4 -14 -1c17 10 25 46 26 65l-54 -6c-11 -36 -23 -73 -38 -115c-32 -92 -82 -193 -162 -191c-48 2 -79 35 -95 81c-26 -21 -53 -36 -88 -36c-51 0 -70 35 -68 68c2 32 23 62 54 62
c11 0 33 -3 24 -15c-10 -12 -22 0 -27 1c-21 4 -40 -29 -38 -58c1 -24 16 -46 53 -46c35 0 60 18 85 39c-7 27 -9 58 -8 87c3 61 34 174 111 167c29 -2 41 -19 40 -42c-1 -67 -89 -191 -128 -218c14 -44 42 -71 85 -73c60 -2 95 80 118 165c13 44 24 82 34 119
c-13 -2 -26 -3 -40 -5l6 13c13 1 25 2 38 4c19 65 37 125 62 200c5 14 9 29 15 44c6 20 31 9 49 5c-6 -19 -12 -36 -17 -53c-23 -69 -41 -128 -61 -191c18 2 35 4 52 6c5 19 11 50 37 51zM126 54c29 25 96 147 102 204c1 17 -3 27 -15 28c-64 5 -91 -104 -94 -155
c-1 -25 1 -53 7 -77zM528 296c1 9 -7 20 -17 19c-14 -2 -19 -28 -21 -40c13 1 35 5 38 21zM699 629c32 0 61 -20 59 -63c-1 -28 -23 -58 -72 -67c-142 -27 -289 75 -426 60c-63 -6 -94 -43 -96 -77c-8 -91 151 -59 149 -10c0 5 -10 19 3 27c12 7 13 -15 11 -26
c-10 -73 -178 -92 -176 6c1 40 35 86 109 94c139 15 285 -80 423 -55c43 8 62 31 62 52c0 29 -19 41 -42 41c-26 0 -54 -21 -66 -42c-1 34 32 60 62 60z" />
    <glyph glyph-name="J" unicode="J" horiz-adv-x="490" 
d="M507 550c11 1 24 -3 34 -5c0 -2 -11 -41 -15 -54c-33 -122 -110 -542 -253 -568c-92 -18 -120 79 -122 155c0 13 1 25 2 36c-29 -16 -62 -26 -93 -25c-47 1 -88 26 -96 85c-8 61 41 148 108 142c15 -1 28 -9 35 -22c6 -9 13 -30 -1 -27c-15 2 -10 19 -12 23
c-4 10 -14 13 -23 14c-59 6 -102 -75 -95 -128c7 -56 44 -76 86 -75c31 1 65 13 93 30c4 33 21 115 47 192c28 82 65 159 104 164c40 5 44 -45 41 -72c-12 -101 -95 -236 -182 -293c-1 -12 -2 -25 -1 -39c0 -70 23 -159 106 -144c112 20 177 444 208 550c2 7 10 37 13 46
c-20 -2 -40 -3 -57 -2c-40 2 -68 15 -68 49s46 71 50 49c2 -13 -14 -13 -20 -15c-12 -13 -17 -24 -18 -33c-2 -27 23 -36 60 -37c20 -1 44 1 69 4zM214 320c-24 -72 -42 -149 -46 -180c80 56 131 181 142 276c1 6 7 60 -8 55c-31 -9 -63 -78 -88 -151z" />
    <glyph glyph-name="T" unicode="T" horiz-adv-x="476" 
d="M742 638c32 0 61 -20 59 -63c-1 -28 -23 -58 -72 -67c-142 -27 -289 75 -426 60c-63 -6 -94 -43 -97 -77c-7 -91 152 -59 150 -10c0 5 -10 19 3 27c12 7 13 -15 11 -26c-10 -73 -178 -92 -176 6c1 40 35 86 109 94c139 15 285 -80 423 -55c43 8 61 31 62 52
c0 29 -19 41 -42 41c-26 0 -54 -21 -66 -42c-1 34 32 60 62 60zM450 524c7 20 31 9 50 4c-48 -139 -75 -240 -124 -379c-32 -92 -81 -193 -161 -191c-49 2 -80 35 -96 81c-26 -21 -53 -36 -88 -36c-51 0 -70 35 -67 68c2 32 22 62 54 62c10 0 32 -3 23 -15s-22 0 -26 1
c-22 4 -41 -29 -39 -58c1 -24 16 -46 54 -46c35 0 60 18 85 39c-8 27 -10 58 -8 87c3 61 33 174 110 167c30 -2 41 -19 41 -42c-2 -67 -90 -191 -129 -218c14 -44 42 -71 86 -73c59 -2 94 80 118 165c41 145 67 237 117 384zM125 63c30 25 96 147 102 204c2 17 -2 27 -15 28
c-64 5 -91 -104 -93 -155c-2 -25 0 -53 6 -77z" />
    <glyph glyph-name="H" unicode="H" horiz-adv-x="691" 
d="M710 212c7 -7 10 -6 7 -11c-31 -52 -103 -202 -163 -202c-43 0 -47 60 -46 91c2 51 17 118 33 179c-41 -7 -87 -13 -127 -24c-12 -37 -24 -74 -37 -110c-32 -93 -82 -194 -162 -191c-48 1 -79 35 -95 81c-8 -7 -17 -14 -27 -19c-18 -12 -41 -18 -61 -18
c-51 0 -70 35 -68 69c2 31 23 61 54 62c11 0 33 -4 24 -15c-10 -12 -22 0 -27 1c-21 3 -40 -29 -38 -59c1 -24 16 -46 53 -46c20 1 41 7 58 18c10 7 19 14 27 21c-7 28 -9 59 -8 87c3 61 34 174 111 168c29 -3 41 -19 40 -42c-1 -67 -89 -192 -128 -219
c14 -43 42 -71 85 -72c60 -2 95 80 118 164c10 34 19 67 29 100c-37 -18 -67 -42 -77 -73c-3 -8 -7 -23 -3 -30c3 -4 18 -11 11 -24c-8 -13 -19 7 -23 16c-5 15 -3 27 2 42c13 37 50 64 94 84c28 93 56 185 88 281c3 9 7 18 10 27c-67 -7 -127 -2 -127 47c0 34 47 71 50 49
c2 -13 -14 -13 -20 -15c-12 -13 -17 -24 -18 -33c-3 -42 61 -42 129 -33c11 1 26 -4 36 -7c-4 -12 -8 -24 -12 -37c-29 -86 -56 -174 -84 -261c41 11 85 17 126 24c13 44 38 160 73 229c16 32 33 54 53 54c31 0 35 -26 35 -51c-1 -74 -50 -210 -114 -239
c-18 -64 -37 -123 -43 -186c-1 -13 -10 -77 9 -77c45 0 133 165 153 200zM657 509c-25 -65 -58 -197 -64 -218c51 20 102 165 102 225c0 10 -2 30 -15 30c-6 0 -14 -15 -23 -37zM126 48c29 26 96 147 102 205c1 16 -3 27 -15 27c-64 5 -91 -104 -94 -154c-1 -25 1 -53 7 -78
z" />
    <glyph glyph-name="K" unicode="K" horiz-adv-x="670" 
d="M514 571c-7 -20 -13 -40 -20 -60c-39 -120 -76 -243 -117 -362c-33 -92 -82 -193 -162 -191c-48 2 -79 35 -96 81c-26 -21 -53 -36 -88 -36c-51 0 -70 35 -67 69c2 31 23 61 54 61c10 0 32 -3 23 -15s-21 1 -26 1c-22 4 -41 -29 -39 -58c2 -24 16 -46 54 -46
c35 0 60 18 85 39c-8 27 -10 58 -8 87c3 61 34 174 110 167c30 -2 41 -19 41 -42c-2 -67 -90 -191 -129 -218c15 -44 42 -71 86 -73c59 -2 94 80 118 165c36 128 72 247 114 374c5 16 11 33 16 49c-17 -2 -35 -3 -50 -3c-44 1 -76 13 -76 50c0 33 46 70 49 48
c2 -13 -13 -12 -20 -14c-11 -13 -17 -24 -17 -33c-2 -28 25 -37 63 -38c20 0 43 2 66 4c11 2 25 -4 36 -6zM125 63c30 25 97 147 102 204c2 17 -2 27 -15 28c-64 5 -91 -104 -93 -155c-2 -25 0 -53 6 -77zM785 599c48 8 69 -21 71 -53c-15 0 -11 -3 -14 9
c-5 21 -22 37 -55 32c-34 -6 -51 -61 -87 -110c-51 -69 -124 -141 -236 -181c129 -21 73 -297 143 -401c17 -27 46 -39 73 -39c35 0 67 22 65 65c-1 24 -13 44 -34 45c-3 0 -7 -1 -10 -3c-4 -2 -11 -18 -24 -11c-13 8 6 19 16 23c5 2 11 3 16 3c34 0 51 -32 48 -65
c-4 -50 -39 -72 -80 -73c-40 -1 -84 17 -109 49c-87 110 -33 375 -128 401c0 11 -3 11 7 14c114 38 166 130 217 200c38 51 82 89 121 95z" />
    <glyph glyph-name="L" unicode="L" horiz-adv-x="444" 
d="M499 542c38 -2 64 -19 60 -51c-4 -28 -34 -62 -81 -83c-48 -21 -90 -21 -141 -15c-20 -61 -35 -127 -55 -191c-24 -75 -62 -162 -123 -214c85 -54 178 -144 253 -147c59 -2 86 44 83 83c-2 28 -21 52 -54 52c-12 0 -25 -6 -28 -18c-1 -5 6 -21 -8 -25c-14 -5 -9 17 -6 27
c7 17 24 29 43 29c46 -2 67 -41 65 -82c-2 -53 -42 -109 -118 -98c-91 14 -178 108 -252 163c-19 -12 -38 -17 -56 -16c-38 1 -63 25 -62 45c1 18 16 25 35 25c30 1 70 -14 86 -27c45 44 75 147 94 206c22 68 43 138 71 192c-63 11 -155 43 -228 41c-34 0 -64 -9 -84 -30
c-6 -6 -16 -18 -15 -26c0 -5 11 -17 -1 -26s-14 13 -13 23c1 16 8 27 19 38c25 26 62 35 103 34c73 -2 162 -32 225 -41c37 71 108 137 188 132zM79 -27c13 -1 28 3 42 11c-9 10 -45 27 -68 28c-11 0 -18 -3 -19 -13c0 -11 19 -25 45 -26zM470 425c43 21 70 52 69 73
c-1 18 -13 28 -30 29c-70 7 -141 -54 -167 -121c47 -5 85 -2 128 19z" />
    <glyph glyph-name="P" unicode="P" horiz-adv-x="651" 
d="M536 573c85 -3 160 -27 160 -122c0 -83 -106 -218 -193 -218c-46 0 -61 27 -59 56c3 28 20 57 42 69c13 7 28 8 41 1c9 -4 28 -18 15 -24c-14 -6 -20 10 -24 13c-8 6 -18 4 -27 -1c-18 -9 -34 -36 -34 -58c-1 -21 11 -40 46 -40c80 0 147 117 147 193
c0 87 -36 116 -114 118h-22c-8 -24 -16 -47 -24 -71c-38 -116 -73 -234 -113 -349c-33 -92 -82 -193 -162 -191c-48 2 -79 36 -95 81c-27 -21 -53 -36 -89 -36c-50 0 -69 35 -67 69c2 31 23 61 54 61c10 0 33 -3 24 -15c-10 -11 -22 1 -27 1c-21 4 -40 -28 -39 -58
c2 -24 17 -46 54 -46c35 0 60 18 85 39c-7 27 -10 59 -8 87c3 61 34 174 111 167c29 -2 40 -18 40 -42c-1 -67 -89 -191 -128 -218c14 -44 41 -71 85 -73c60 -2 94 81 118 165c32 112 72 248 110 364c8 22 15 43 22 63c-62 2 -132 4 -132 49c-1 34 46 71 49 49
c2 -13 -13 -12 -20 -14c-11 -13 -17 -24 -17 -33c-4 -47 145 -35 191 -36zM125 54c30 25 97 147 102 204c2 17 -2 27 -14 28c-64 5 -91 -104 -94 -155c-1 -25 0 -53 6 -77z" />
    <glyph glyph-name="N" unicode="N" horiz-adv-x="747" 
d="M972 645c48 0 73 -32 73 -63c0 -17 -8 -34 -24 -44c-9 -5 -30 -13 -28 2s19 10 23 12c10 3 16 16 16 31c-1 23 -16 49 -57 49c-130 3 -220 -242 -258 -340c-25 -66 -98 -307 -164 -304c-43 2 -40 84 -36 116c13 114 72 307 101 398c2 6 8 27 12 40
c-124 -45 -139 -190 -194 -316c-36 -85 -137 -276 -248 -273c-29 1 -55 18 -69 59c-28 -23 -59 -40 -96 -36c-42 4 -60 34 -59 64c0 33 21 65 53 66c10 0 32 -4 23 -15c-9 -12 -21 0 -26 1c-19 3 -36 -22 -38 -49c-1 -26 12 -54 50 -55c36 -2 62 17 88 39
c-8 27 -10 58 -8 87c3 61 34 173 111 167c41 -4 41 -46 33 -77c-17 -64 -73 -140 -121 -184c12 -37 36 -51 62 -50c99 4 165 185 198 260c56 131 107 285 244 329c22 7 22 5 49 -2c0 -1 -12 -41 -16 -54c-29 -99 -93 -295 -110 -411c-2 -15 -12 -85 5 -84
c45 2 120 238 142 294c40 104 133 342 269 343zM124 36c33 30 82 126 94 172c6 24 17 58 -7 60c-63 5 -90 -104 -93 -155c-1 -25 0 -53 6 -77z" />
    <glyph glyph-name="M" unicode="M" horiz-adv-x="828" 
d="M879 -82c32 0 56 -22 54 -58c-3 -50 -44 -73 -87 -73c-152 -1 -186 182 -177 344c4 78 18 152 34 197c-63 -55 -87 -69 -148 -125c-4 -19 -13 -60 -26 -102c-18 -56 -42 -111 -71 -111c-14 0 -21 17 -19 41c2 44 28 113 74 162c22 98 46 190 77 274c10 26 21 51 32 75
c-116 -48 -132 -189 -186 -313c-36 -85 -137 -275 -248 -272c-29 1 -55 17 -70 59c-27 -23 -58 -40 -95 -36c-44 4 -61 36 -59 67c1 31 22 62 53 62c10 1 32 -3 23 -14c-9 -12 -21 0 -26 1c-19 3 -35 -21 -38 -47c-2 -27 11 -56 50 -58c36 -1 62 17 88 39
c-8 28 -10 59 -8 87c3 61 34 174 110 167c42 -3 42 -45 34 -76c-17 -64 -73 -141 -122 -184c12 -37 36 -51 63 -50c99 3 165 184 198 260c74 172 109 299 287 340c-16 -38 -30 -73 -43 -108c-28 -77 -52 -152 -72 -239c62 59 89 78 151 128c29 74 63 142 121 195
c30 29 73 49 100 46c47 -5 -1 -70 -60 -131c-41 -43 -88 -83 -112 -99c-19 -53 -47 -175 -51 -291c-5 -140 23 -273 140 -271c36 0 70 17 71 58c0 27 -18 44 -43 44c-9 0 -16 -3 -22 -10c-3 -2 -4 -5 -5 -9c-1 -5 6 -20 -8 -25c-13 -5 -10 17 -6 27c2 5 5 10 8 14
c9 11 21 15 34 15zM860 549c-40 -41 -67 -104 -89 -158c18 15 56 50 91 87c50 51 93 104 65 105c-17 1 -47 -13 -67 -34zM124 39c33 31 82 126 94 172c6 25 17 59 -7 60c-64 5 -91 -104 -93 -154c-2 -25 0 -54 6 -78zM500 97c4 26 8 53 11 70c-24 -20 -57 -101 -59 -141
c-1 -15 2 -24 10 -24c20 0 31 48 38 95z" />
    <glyph glyph-name="S" unicode="S" horiz-adv-x="419" 
d="M354 431c40 -9 66 32 65 70c-1 36 -34 62 -66 62c-39 0 -77 -40 -52 -153c19 -87 69 -189 67 -279c-2 -96 -69 -192 -171 -192c-34 0 -68 13 -91 32c-34 -37 -68 -58 -116 -71c-6 -1 -11 -2 -17 -1c-7 0 -12 3 -8 10c7 14 20 5 24 5c37 1 89 41 107 65
c-40 40 -53 98 -52 153c1 69 42 180 125 177c52 -2 69 -41 68 -82c-2 -76 -76 -186 -121 -244c20 -16 52 -25 84 -25c95 1 120 84 121 164c0 96 -46 175 -68 271c-28 124 33 178 92 181c44 1 85 -27 85 -77c0 -45 -32 -81 -79 -79c-6 0 -12 1 -17 4c-7 2 -11 6 -5 12
c11 11 21 -2 25 -3zM57 132c-1 -51 12 -104 50 -141c46 61 94 162 93 242c0 31 -8 62 -37 61c-71 -1 -105 -104 -106 -162z" />
    <glyph glyph-name="O" unicode="O" horiz-adv-x="601" 
d="M579 504c23 -11 39 -36 39 -77c0 -146 -205 -453 -354 -451c-58 1 -95 47 -89 130c7 106 76 246 116 294c-62 8 -152 38 -222 34c-32 -1 -60 -10 -79 -32c-5 -7 -14 -19 -13 -27c1 -5 13 -17 1 -26c-11 -9 -15 13 -15 23c1 15 7 26 17 38c25 29 64 38 107 36
c70 -1 153 -28 214 -34c49 58 142 138 230 133c39 -2 53 -19 48 -41zM533 531c-82 4 -132 -74 -176 -124c22 -2 45 1 67 6c11 25 28 50 50 69c25 22 56 35 90 28c0 11 -9 19 -31 21zM560 497c-29 6 -57 -6 -78 -25c-18 -15 -32 -35 -42 -54c26 8 50 19 70 32
c24 15 42 32 50 47zM285 0c127 -9 320 299 320 427c0 34 -12 55 -31 65c-9 -18 -29 -38 -56 -56c-24 -15 -53 -28 -85 -35c-15 -38 -19 -120 36 -120c15 1 28 7 31 17c2 4 -3 21 12 23c14 3 7 -18 2 -27c-10 -18 -28 -26 -46 -26c-60 2 -65 84 -50 129c-23 -4 -47 -5 -72 -3
c-33 -41 -110 -185 -122 -289c-7 -66 19 -103 61 -105z" />
    <glyph glyph-name="U" unicode="U" horiz-adv-x="598" 
d="M618 212c7 -7 9 -6 6 -11c-31 -52 -103 -202 -163 -202c-39 0 -46 52 -46 81c0 31 6 67 13 104c-47 -83 -120 -203 -165 -202c-34 0 -45 36 -43 88c3 114 64 300 73 337c22 86 33 171 -26 173c-43 2 -84 -23 -121 -65c24 -47 37 -128 19 -193c-10 -34 -37 -77 -77 -75
c-26 1 -47 24 -45 63c2 64 39 138 78 189c3 4 4 6 8 10c-18 33 -51 50 -82 48c-67 -4 -92 -94 -55 -111c4 -2 21 1 23 -14c1 -15 -20 -6 -28 0c-54 42 -7 136 70 136c31 -1 63 -15 84 -44c40 44 88 75 135 73c79 -3 74 -108 56 -203c-6 -29 -56 -215 -70 -322
c-6 -45 -5 -76 9 -76c32 -1 120 147 166 226c13 56 29 110 38 145c13 49 50 198 102 198c19 0 30 -10 33 -24c14 -60 -60 -182 -112 -266c-18 -67 -38 -129 -44 -197c0 -13 -7 -66 11 -66c44 0 133 166 153 200zM588 546c-24 0 -74 -209 -83 -239c46 79 107 183 93 226
c-2 7 -5 13 -10 13zM132 321c13 47 17 146 2 179c-2 -3 -1 -2 -3 -5c-37 -47 -68 -111 -74 -171c-4 -36 12 -61 31 -63c28 -2 39 40 44 60z" />
    <glyph glyph-name="V" unicode="V" horiz-adv-x="521" 
d="M734 632c39 -1 76 -19 74 -65c-1 -17 -9 -33 -25 -42c-9 -5 -30 -12 -27 2c2 15 19 10 23 12c9 3 16 16 16 30c0 39 -32 52 -65 51c-215 -8 -298 -643 -430 -655c-43 -4 -53 54 -49 128c5 112 41 260 46 294c14 87 16 172 -42 169c-43 -2 -82 -31 -114 -76
c28 -45 49 -123 37 -190c-6 -36 -30 -81 -70 -83c-26 -1 -49 20 -51 59c-3 67 30 152 67 207c-20 28 -49 42 -77 40c-41 -3 -73 -39 -73 -80c0 -17 7 -32 20 -37c4 -1 21 4 24 -11c2 -14 -19 -8 -28 -2c-19 11 -27 31 -27 51c0 51 46 90 96 91c28 1 57 -10 76 -37
c35 48 80 84 127 86c79 4 84 -101 75 -197c-3 -31 -47 -243 -48 -342c0 -32 4 -52 15 -51c99 7 206 653 430 648zM145 285c8 49 3 147 -15 179c-33 -51 -60 -122 -60 -183c0 -36 18 -59 37 -59c28 0 34 43 38 63z" />
    <glyph glyph-name="C" unicode="C" horiz-adv-x="540" 
d="M559 212c3 -3 9 -7 7 -11c-76 -127 -177 -211 -287 -211c-81 0 -107 52 -105 121c3 107 76 253 117 303c-63 8 -154 39 -224 34c-31 -2 -58 -11 -77 -32c-5 -7 -14 -19 -13 -27c1 -5 13 -17 1 -27c-11 -8 -15 14 -15 24c1 15 7 26 17 38c23 27 58 36 98 36
c72 1 159 -27 223 -34c49 58 142 138 230 133c34 -2 48 -15 49 -32c1 -47 -110 -130 -234 -119c-36 -44 -123 -209 -123 -312c-1 -52 20 -88 80 -87c82 2 186 79 256 203zM533 544c-82 5 -132 -73 -176 -123c101 -7 207 67 207 104c-1 11 -10 18 -31 19z" />
    <glyph glyph-name="G" unicode="G" horiz-adv-x="602" 
d="M621 212c10 -6 10 -3 7 -10c-17 -31 -33 -61 -51 -90c-36 -56 -82 -113 -127 -120l-1 -2c-5 -19 -12 -46 -21 -73c-19 -56 -64 -132 -136 -133c-40 -1 -75 24 -73 68c4 81 124 118 187 143c6 24 14 55 23 89c-39 -36 -94 -57 -142 -55c-55 2 -101 36 -100 117
c2 94 65 220 104 269c-60 7 -146 36 -214 34c-36 0 -66 -9 -86 -33c-6 -6 -15 -18 -14 -27c1 -4 13 -16 1 -26c-11 -9 -15 13 -14 24c0 15 6 26 17 38c23 28 60 37 102 36c70 -1 156 -28 218 -34c49 58 143 137 230 133c34 -3 49 -15 49 -33c0 -47 -110 -130 -234 -119
c-34 -41 -105 -175 -109 -267c-2 -68 32 -94 76 -93c40 0 88 24 121 57c16 53 35 169 90 171c13 1 27 -4 25 -20c-3 -26 -39 -72 -51 -89c-16 -55 -31 -112 -45 -163c37 6 79 60 114 114c19 30 37 65 54 94zM534 263c-11 3 -22 -50 -25 -61c5 8 30 42 29 55c0 3 -1 5 -4 6z
M533 545c-82 5 -132 -73 -176 -124c102 -6 209 69 207 105c-1 11 -10 18 -31 19zM387 -73c4 15 11 41 15 55c-58 -23 -166 -55 -169 -131c-1 -34 20 -51 53 -51c65 1 86 78 101 127z" />
    <glyph glyph-name="E" unicode="E" horiz-adv-x="537" 
d="M556 212c2 -3 9 -7 7 -11c-51 -84 -112 -149 -180 -183c-34 -18 -70 -27 -107 -27c-60 0 -88 50 -85 111c4 81 64 182 176 204c-37 15 -62 58 -57 106c-59 7 -150 36 -223 36c-41 1 -75 -7 -96 -32c-6 -6 -15 -19 -14 -27c1 -4 13 -17 1 -26c-11 -9 -15 13 -14 23
c0 16 6 27 17 39c23 27 60 36 102 36c74 -1 164 -29 227 -35c17 93 112 138 177 137c37 -1 65 -18 63 -50c-4 -48 -81 -116 -195 -106c-5 -39 11 -82 62 -104c-101 -21 -183 -144 -184 -223c0 -39 19 -67 67 -66c24 0 50 7 76 19c64 30 130 92 180 179zM492 548
c-46 -1 -120 -51 -135 -127c100 -6 177 63 172 99c-2 19 -17 28 -37 28z" />
    <glyph glyph-name="Q" unicode="Q" horiz-adv-x="582" 
d="M546 -12c38 14 72 -23 71 -61c-2 -46 -46 -98 -102 -98c-94 0 -143 122 -175 192c-25 -14 -51 -22 -76 -21c-58 1 -95 47 -89 130c7 106 76 245 116 294c-91 11 -241 71 -301 1c-5 -6 -14 -18 -13 -26c1 -5 13 -17 1 -27c-11 -9 -15 13 -15 24c1 15 7 26 17 38
c64 75 221 12 321 2c49 58 142 138 230 133c39 -3 53 -20 48 -41c23 -11 39 -36 39 -77c0 -56 -30 -135 -74 -210c-36 -60 -104 -155 -181 -206c34 -59 89 -186 174 -178c40 3 69 39 69 73c-1 26 -27 56 -53 48c-4 -1 -7 -3 -9 -7c-3 -3 -4 -20 -19 -18c-14 3 0 20 7 27
c5 4 10 7 14 8zM533 554c-82 5 -132 -73 -176 -124c22 -1 45 2 67 7c8 17 18 33 28 47c26 33 63 51 95 51c6 0 11 -1 17 -2c0 12 -9 20 -31 21zM560 521c-6 1 -11 1 -17 1c-28 -1 -59 -18 -81 -46c-8 -10 -15 -22 -22 -35c24 8 47 18 66 30c26 16 46 34 54 50zM245 131
c56 11 88 -45 112 -85c73 46 145 150 176 201c43 74 72 150 72 204c0 34 -12 55 -31 65c-10 -19 -31 -40 -60 -58c-23 -14 -51 -26 -81 -34c-15 -38 -19 -119 36 -119c15 0 28 7 31 16c2 5 -3 21 12 24c14 3 7 -19 2 -28c-10 -17 -28 -26 -46 -25c-60 1 -65 84 -50 129
c-23 -4 -47 -6 -72 -4c-33 -40 -110 -185 -122 -288c-7 -67 19 -103 61 -106c16 -1 33 3 49 11c-19 42 -41 84 -89 97z" />
    <glyph glyph-name="W" unicode="W" horiz-adv-x="712" 
d="M1001 599c1 -19 -7 -38 -25 -48c-9 -5 -30 -12 -28 2c3 15 19 10 24 12c9 3 15 15 15 30c1 39 -32 52 -65 50c-215 -8 -298 -643 -429 -655c-71 -6 -76 83 -63 174c-48 -84 -122 -206 -167 -206c-31 1 -43 32 -44 78c-1 111 64 309 74 348c22 86 32 170 -26 173
c-43 2 -84 -23 -121 -66c24 -47 37 -127 19 -192c-10 -35 -37 -77 -77 -75c-27 1 -47 24 -45 63c2 67 44 148 86 199c-19 33 -51 49 -82 48c-67 -5 -93 -95 -55 -112c4 -2 21 2 23 -14c1 -14 -20 -5 -28 1c-54 42 -7 135 69 135c31 0 64 -14 85 -44c40 45 88 76 135 74
c79 -3 74 -108 56 -203c-6 -32 -69 -259 -73 -355c-1 -26 2 -43 12 -43c32 -1 118 143 164 223c12 67 31 129 37 150c26 88 60 164 94 164c19 0 30 -10 33 -24c8 -34 -11 -86 -39 -141c-22 -43 -50 -87 -73 -124c-8 -32 -44 -215 10 -211c99 7 205 653 431 648
c36 -1 70 -17 73 -59zM521 351c-13 -45 -23 -87 -27 -98c18 30 38 64 55 98c27 52 47 101 38 127c-2 7 -5 13 -10 13c-14 0 -38 -74 -56 -140zM132 298c13 47 17 146 2 178c-38 -47 -71 -115 -77 -176c-4 -35 12 -60 31 -62c28 -3 38 40 44 60z" />
    <glyph glyph-name="Y" unicode="Y" horiz-adv-x="615" 
d="M635 212c10 -6 10 -4 6 -11c-27 -54 -107 -212 -187 -227v-2c-5 -19 -12 -46 -21 -72c-19 -57 -65 -133 -136 -134c-40 -1 -75 24 -73 68c2 57 74 98 113 115c28 12 55 21 74 28c11 45 27 109 44 168c-43 -64 -120 -168 -171 -168c-107 1 -5 288 8 343
c22 86 33 170 -25 173c-43 2 -84 -24 -121 -66c23 -47 36 -127 18 -192c-9 -35 -37 -78 -77 -76c-26 2 -46 25 -45 64c3 63 40 138 78 188c3 5 5 7 8 11c-19 35 -50 49 -79 47c-37 -2 -70 -30 -73 -72c-2 -18 4 -33 16 -39c4 -2 21 2 22 -14c1 -14 -19 -5 -28 1
c-16 12 -23 32 -22 52c3 50 47 82 93 83c31 0 63 -13 84 -44c40 45 87 76 135 74c78 -4 74 -109 55 -203c-8 -41 -85 -315 -39 -316c39 0 145 146 174 193c20 67 35 136 56 203c18 60 47 129 83 129c19 0 29 -11 32 -25c8 -32 -9 -81 -35 -133c-23 -45 -52 -93 -76 -132
c-5 -18 -10 -37 -16 -54c-19 -62 -37 -126 -52 -186c69 14 146 172 177 226zM615 496c-24 0 -74 -209 -82 -238c19 33 40 70 58 105c25 50 42 95 35 121c-2 6 -6 12 -11 12zM131 234c13 47 18 145 2 178c-1 -2 -1 -2 -3 -4c-36 -48 -68 -112 -74 -172c-3 -35 13 -60 31 -62
c28 -3 39 40 44 60zM391 -90c5 14 12 40 16 54c-18 -7 -43 -15 -68 -26c-35 -15 -99 -53 -101 -105c-2 -34 20 -51 52 -51c65 1 86 78 101 128z" />
    <glyph glyph-name="X" unicode="X" horiz-adv-x="538" 
d="M594 576c9 0 14 -4 9 -11c-5 -8 -9 -2 -17 -5c-3 -2 -7 -5 -13 -11c-31 -35 -122 -142 -215 -253c10 -95 15 -189 24 -240c4 -24 8 -39 19 -39c6 0 13 4 23 13c46 40 113 143 133 182c10 -5 11 -3 7 -11c-17 -34 -84 -139 -130 -180c-13 -11 -26 -19 -39 -19
c-22 0 -42 19 -51 45c-13 38 -18 117 -25 203c-50 -59 -98 -115 -135 -159c-30 -35 -72 -93 -121 -93c-32 0 -47 20 -49 47c0 10 1 20 6 30c5 9 19 26 25 13c6 -14 -11 -19 -14 -23s-5 -10 -4 -17c1 -20 10 -39 38 -38c42 1 83 60 110 91c46 55 93 110 142 168
c-12 159 -30 331 -105 304c-40 -14 -69 -53 -87 -106c39 -34 82 -104 89 -171c4 -36 -5 -86 -43 -99c-74 -26 -82 114 -79 159c2 29 7 58 15 87c1 5 2 8 4 13c-20 15 -44 23 -66 21c-25 -1 -48 -14 -60 -37c-21 -39 -6 -94 23 -95c4 0 19 10 26 -4c6 -13 -16 -12 -26 -10
c-45 12 -56 72 -31 115c16 29 51 46 85 46c19 0 38 -6 55 -18c20 56 53 103 97 119c92 32 125 -121 142 -278c100 118 196 231 216 250c7 8 16 11 22 11zM184 282c-5 49 -38 142 -65 167c-1 -3 -1 -3 -1 -5c-8 -28 -13 -56 -14 -84c-3 -35 4 -166 62 -149c27 7 20 51 18 71z
" />
    <glyph glyph-name="Z" unicode="Z" horiz-adv-x="458" 
d="M477 212c6 -6 10 -5 6 -11c-11 -20 -68 -115 -110 -153c-33 -29 -46 -30 -77 -36c-50 -85 -184 -246 -294 -242c-22 0 -38 10 -38 31c-3 97 201 199 282 215c26 32 49 96 30 137c-12 -9 -50 -31 -75 -30c-14 0 -22 11 -20 23c2 17 20 36 60 37c13 0 26 -3 35 -8
c55 43 107 173 120 264c7 54 0 95 -29 94c-57 0 -129 -70 -163 -114c21 -22 26 -61 21 -101c-9 -60 -44 -120 -92 -116c-22 3 -32 18 -33 39c-1 54 60 142 80 168c-12 13 -27 18 -43 18c-64 -1 -149 -83 -141 -161c0 -9 3 -24 9 -29c4 -3 21 -3 19 -19c-1 -14 -18 0 -25 8
c-11 11 -14 24 -15 40c-7 89 81 176 161 175c17 0 34 -5 49 -14c38 47 111 118 173 119c64 1 85 -40 81 -97c-7 -97 -90 -240 -155 -284c36 -33 27 -99 9 -139c26 5 36 7 63 32c45 41 111 154 112 154zM193 320c4 31 3 61 -6 78c-16 -22 -73 -106 -74 -154
c0 -15 5 -27 22 -29c29 -3 51 52 58 105zM203 135c17 1 52 24 59 29c-8 4 -21 5 -33 4c-26 -2 -36 -16 -35 -24c0 -5 4 -9 9 -9zM-2 -211c73 -1 199 157 238 212c-73 -14 -251 -110 -256 -194c-1 -12 6 -18 18 -18z" />
    <glyph glyph-name="one" unicode="1" horiz-adv-x="233" 
d="M214 531c14 18 27 9 50 3c-24 -70 -134 -422 -164 -517c-8 -26 -23 -15 -53 -16c20 65 119 383 157 498c-38 -44 -77 -73 -109 -42c-24 24 -18 83 0 70c11 -8 -1 -19 -4 -25c2 -17 5 -29 11 -35c28 -31 71 11 112 64z" />
    <glyph glyph-name="two" unicode="2" horiz-adv-x="367" 
d="M385 450c-4 -156 -262 -320 -352 -416c115 42 190 -17 240 -16c34 0 57 39 58 74c2 31 -12 59 -47 59c-34 1 -62 -42 -38 -61c4 -3 21 -4 19 -19c-3 -14 -20 0 -27 7c-30 34 -3 83 40 86c45 2 68 -33 69 -72c0 -47 -32 -98 -98 -97c-75 0 -176 48 -238 11l-14 11
c74 120 332 306 335 433c1 65 -34 92 -78 90c-64 -4 -123 -65 -135 -127c-8 -36 4 -95 48 -102c20 -3 39 5 47 25c6 13 5 27 -2 33c-3 3 -20 4 -16 19c3 13 19 -1 25 -8c11 -15 12 -34 4 -50c-12 -24 -33 -35 -61 -31c-50 8 -67 73 -58 116c17 82 93 141 176 139
c56 -1 104 -33 103 -104z" />
    <glyph glyph-name="three" unicode="3" horiz-adv-x="372" 
d="M390 453c-4 -61 -67 -139 -172 -187c68 -11 133 -46 111 -129c-25 -93 -123 -138 -213 -137c-80 1 -110 36 -110 70c1 43 35 73 67 72c15 0 29 -6 40 -19c6 -8 16 -27 3 -27c-15 0 -13 17 -15 21c-5 10 -16 15 -28 15c-24 0 -55 -21 -54 -62c1 -28 25 -56 92 -55
c77 2 152 50 173 129c18 65 -20 104 -80 112c-9 -8 -31 -20 -35 -3c-4 18 23 15 30 16c60 40 143 139 146 203c2 35 -20 61 -82 61c-76 0 -153 -67 -154 -145c-1 -52 23 -69 47 -69c29 1 58 28 43 51c-2 3 -18 9 -11 22c6 13 18 -5 22 -14c18 -43 -21 -75 -59 -71
c-27 2 -52 23 -55 71c-5 92 80 166 169 167c91 0 129 -40 125 -92z" />
    <glyph glyph-name="five" unicode="5" horiz-adv-x="348" 
d="M298 572c17 33 69 30 68 -13c-2 -76 -127 -70 -177 -63c-29 -94 -47 -139 -72 -173c14 2 27 2 40 2c115 -5 168 -81 164 -159c-5 -86 -79 -174 -213 -166c-80 5 -108 41 -106 76c2 40 36 68 68 68c16 0 31 -6 41 -21c6 -8 16 -27 2 -27c-15 1 -12 17 -14 21
c-6 12 -18 18 -32 17c-23 -2 -51 -22 -52 -59c-1 -28 22 -58 89 -60c93 -2 156 66 169 137c14 77 -29 156 -152 154c-14 0 -28 -2 -41 -5c34 70 56 152 63 230c39 -5 210 -39 210 30c0 32 -38 28 -44 8c-2 -5 5 -21 -9 -24c-13 -3 -7 18 -2 27z" />
    <glyph glyph-name="four" unicode="4" horiz-adv-x="372" 
d="M363 218c7 -9 11 -19 10 -30c-2 -49 -49 -52 -86 -51c-13 -46 -26 -89 -36 -120c-8 -26 -22 -15 -53 -16c10 30 26 82 44 140c-64 8 -105 24 -214 -13c-17 38 -19 28 -5 44c51 62 231 262 235 339c2 26 -20 39 -42 37c-54 -6 -53 -80 -27 -87c4 -1 20 4 23 -10
c3 -13 -18 -7 -27 -3c-46 23 -32 110 33 113c33 1 67 -19 64 -60c-5 -99 -175 -305 -205 -336c70 13 118 1 170 -7c20 64 42 133 61 190l13 37c10 11 23 4 40 0c-16 -44 -43 -142 -69 -231c29 -2 70 -2 69 38c0 7 -2 12 -6 16c-3 2 -20 4 -16 18c3 13 18 0 24 -8z" />
    <glyph glyph-name="six" unicode="6" horiz-adv-x="369" 
d="M293 539c91 -3 99 -112 49 -127c-9 -2 -31 -5 -25 8c5 13 20 5 24 6c31 3 34 98 -48 100c-112 4 -184 -152 -209 -270c46 52 105 62 143 62c75 -3 112 -64 111 -133c-1 -98 -74 -187 -177 -186c-75 1 -136 57 -134 184c4 155 84 361 266 356zM226 302
c-36 2 -110 -13 -146 -71c-3 -18 -5 -34 -5 -49c-3 -119 50 -163 108 -162c84 3 134 89 135 166c1 62 -24 114 -92 116z" />
    <glyph glyph-name="seven" unicode="7" horiz-adv-x="362" 
d="M410 520c-68 -69 -132 -158 -185 -239h40c-4 -15 -1 -13 -15 -12h-33c-55 -86 -104 -175 -130 -250c-10 -28 -28 -18 -62 -19c24 84 78 180 139 270c-20 0 -39 0 -55 -1c4 12 1 12 12 13h51c58 83 121 161 174 219c-24 7 -118 30 -184 23c-33 -3 -59 -11 -73 -26
c-26 -26 -12 -73 33 -68c11 1 25 12 24 24c0 4 -11 16 1 24c11 8 13 -13 12 -22c-1 -19 -18 -36 -37 -37c-57 -6 -75 53 -42 86c21 21 62 30 110 33c79 5 189 -12 220 -18z" />
    <glyph glyph-name="eight" unicode="8" horiz-adv-x="348" 
d="M255 338c39 0 73 52 68 99c-5 61 -56 86 -103 85c-45 -1 -88 -26 -87 -65c2 -42 46 -100 79 -135c53 -56 114 -118 114 -199c0 -82 -81 -124 -160 -124c-107 0 -154 61 -152 129c1 67 54 144 148 175c-38 50 -70 94 -69 143c2 61 60 94 118 95c63 0 127 -35 126 -114
c-1 -51 -36 -101 -86 -100c-7 0 -15 2 -21 7c-8 6 -24 20 -10 23c15 4 17 -11 20 -14c4 -4 9 -5 15 -5zM279 102c4 69 -53 137 -107 192c-91 -25 -142 -102 -141 -169c1 -60 44 -112 137 -110c56 1 109 29 111 87z" />
    <glyph glyph-name="nine" unicode="9" horiz-adv-x="351" 
d="M218 541c75 -1 136 -57 134 -184c-4 -155 -84 -361 -266 -356c-91 3 -99 112 -49 126c9 3 31 6 25 -7c-5 -13 -20 -5 -24 -6c-31 -3 -34 -98 48 -101c112 -3 184 153 209 271c-46 -53 -105 -62 -143 -62c-74 3 -112 63 -111 133c1 98 74 187 177 186zM304 358
c3 119 -50 163 -108 162c-84 -3 -134 -89 -135 -166c-1 -63 24 -114 92 -117c36 -1 110 14 146 72c3 18 5 34 5 49z" />
    <glyph glyph-name="period" unicode="." horiz-adv-x="102" 
d="M50 75c11 0 19 -9 17 -21s-12 -22 -23 -22s-18 10 -17 22c2 12 12 21 23 21z" />
    <glyph glyph-name="comma" unicode="," horiz-adv-x="104" 
d="M45 75c34 0 9 -58 -15 -77c-8 -6 -8 -5 -10 3c10 8 18 18 19 31c-12 0 -19 10 -17 21c2 12 12 22 23 22z" />
    <glyph glyph-name="colon" unicode=":" horiz-adv-x="140" 
d="M73 179c11 0 19 -9 17 -21s-12 -22 -23 -22s-18 10 -17 22c2 12 12 21 23 21zM97 255c11 0 19 -9 17 -21s-12 -22 -23 -22s-18 10 -17 22c2 12 12 21 23 21z" />
    <glyph glyph-name="semicolon" unicode=";" horiz-adv-x="145" 
d="M97 255c11 0 19 -9 17 -21s-12 -22 -23 -22s-18 10 -17 22c2 12 12 21 23 21zM73 179c34 0 9 -58 -15 -77c-8 -6 -8 -5 -10 3c10 8 18 18 19 31c-12 0 -19 10 -17 21c2 12 12 22 23 22z" />
    <glyph glyph-name="exclam" unicode="!" horiz-adv-x="192" 
d="M163 537c8 32 18 21 55 19l-134 -433c-5 -14 -6 -8 -22 -2l3 12zM58 75c11 0 19 -9 17 -21s-12 -22 -23 -22s-18 10 -17 22c2 12 12 21 23 21z" />
    <glyph glyph-name="slash" unicode="/" horiz-adv-x="148" 
d="M172 619h22c-66 -240 -114 -446 -172 -696h-25c61 231 119 461 175 696z" />
    <glyph glyph-name="zero" unicode="0" horiz-adv-x="365" 
d="M386 445c15 -133 -139 -435 -275 -448c-52 -6 -91 33 -95 109c-7 143 103 426 279 437c21 1 36 -4 42 -13c2 -2 3 -5 4 -8c-23 -2 -9 0 -24 5c-5 2 -11 3 -19 2c-140 -7 -237 -319 -237 -419c1 -61 29 -92 66 -90c117 7 261 307 247 423c-4 37 -26 64 -64 58
c-57 -9 -94 -80 -94 -134c0 -36 13 -75 50 -71c14 1 25 9 27 18c0 4 -6 19 8 23c12 4 8 -17 5 -25c-7 -17 -23 -26 -40 -28c-41 -4 -60 38 -61 77c-3 62 41 145 107 152c44 5 69 -27 74 -68z" />
    <glyph glyph-name="quotedbl" unicode="&#x22;" horiz-adv-x="130" 
d="M97 553c34 0 9 -58 -15 -77c-8 -6 -8 -5 -10 3c10 8 18 18 19 31c-12 0 -19 10 -17 21c2 12 12 22 23 22zM150 553c34 0 10 -58 -15 -77c-8 -6 -7 -5 -9 3c9 8 17 18 18 31c-11 0 -18 10 -16 21c1 12 12 22 22 22z" />
    <glyph glyph-name="quotedblright" unicode="&#x201d;" horiz-adv-x="142" 
d="M97 553c34 0 9 -58 -15 -77c-8 -6 -8 -5 -10 3c10 8 18 18 19 31c-12 0 -19 10 -17 21c2 12 12 22 23 22zM150 553c34 0 10 -58 -15 -77c-8 -6 -7 -5 -9 3c9 8 17 18 18 31c-11 0 -18 10 -16 21c1 12 12 22 22 22z" />
    <glyph glyph-name="quotedblleft" unicode="&#x201c;" horiz-adv-x="183" 
d="M115 492c-34 0 -9 58 15 77c8 6 8 5 10 -3c-10 -8 -18 -18 -19 -31c12 0 19 -10 17 -21c-2 -12 -12 -22 -23 -22zM176 492c-34 0 -9 58 15 77c8 6 8 5 10 -3c-10 -8 -18 -18 -19 -31c12 0 19 -10 17 -21c-2 -12 -12 -22 -23 -22z" />
    <glyph glyph-name="bar" unicode="|" horiz-adv-x="146" 
d="M75 615h23c-8 -235 -12 -465 -14 -696h-25c10 250 18 456 16 696z" />
    <glyph glyph-name="numbersign" unicode="#" horiz-adv-x="327" 
d="M269 341h52c-9 -14 -5 -14 -21 -14h-34c-6 -21 -10 -36 -12 -50c-4 -15 -6 -28 -10 -42h46c-8 -17 -4 -15 -21 -15h-28l-21 -92c-3 -14 -10 -9 -26 -9c14 43 22 75 28 101h-54h-46l-21 -92c-3 -14 -9 -9 -24 -9c12 43 19 75 24 101h-51c3 16 -1 15 14 15h42l12 45
c3 14 6 30 10 47h-52c8 14 4 14 19 14h36l17 79c2 11 12 6 24 6l-24 -85h47h55l17 77c3 13 10 8 24 8zM237 277c4 15 7 32 11 50h-53h-49c-6 -21 -9 -36 -12 -50c-4 -15 -6 -28 -9 -42h48h53c5 14 8 28 11 42z" />
    <glyph glyph-name="hyphen" unicode="-" horiz-adv-x="236" 
d="M212 207c1 -8 -3 -9 -9 -13c-48 -30 -103 1 -156 -11c-2 8 2 10 8 14c49 33 102 -3 157 10z" />
    <glyph glyph-name="dollar" unicode="$" horiz-adv-x="364" 
d="M236 353c35 -54 85 -111 96 -170c20 -112 -76 -189 -181 -184c-8 -33 -16 -67 -24 -102h-25c10 35 19 70 28 105c-90 15 -126 97 -118 163c4 37 21 69 50 82c11 5 22 5 33 1c9 -4 27 -16 14 -22c-12 -7 -18 9 -22 11c-6 4 -13 3 -20 0c-27 -12 -42 -44 -43 -79
c-3 -58 31 -127 110 -139c25 96 50 192 74 289c-25 34 -53 77 -49 121c4 51 52 82 99 85c7 27 13 53 19 79h23c-8 -27 -15 -53 -22 -79c40 -4 58 -32 58 -61c0 -30 -20 -61 -55 -67c-6 -1 -12 -2 -17 -1c-7 1 -12 3 -7 8c9 11 21 3 25 3c26 1 42 26 43 52s-13 54 -49 58
c-14 -52 -27 -102 -40 -153zM200 449c-1 -26 11 -53 24 -76c11 44 22 89 32 133c-31 -3 -54 -24 -56 -57zM155 17c88 -2 150 59 132 150c-10 47 -38 84 -67 123c-22 -89 -43 -178 -65 -273z" />
    <glyph glyph-name="percent" unicode="%" horiz-adv-x="382" 
d="M189 324c-13 -34 -44 -63 -84 -60c-47 3 -61 44 -50 83c10 36 43 70 92 68c50 -3 59 -50 42 -91zM105 272c28 0 44 34 53 70c9 34 13 66 -10 66c-33 0 -49 -29 -59 -62c-11 -37 -11 -74 16 -74zM218 254c-15 -23 -30 -45 -42 -67c-25 -40 -40 -77 -27 -99
c12 -20 30 -19 44 -13c14 7 6 11 22 5c-18 -29 -95 -38 -103 13c-6 40 48 100 88 160c8 12 15 24 22 36c23 39 35 77 30 110c-6 40 -37 53 -64 56c-15 1 -13 -3 -16 11c34 0 108 -3 112 -65c2 -33 -22 -73 -45 -113c-7 -11 -14 -23 -21 -34zM328 263c44 -3 55 -40 45 -77
c-10 -39 -44 -77 -89 -74c-46 3 -60 43 -51 80c10 38 43 74 95 71zM339 187c10 36 12 69 -11 69c-32 0 -49 -29 -59 -62c-12 -38 -12 -73 15 -73c29 0 45 31 55 66z" />
    <glyph glyph-name="Euro" unicode="&#x20ac;" horiz-adv-x="469" 
d="M443 216c2 -3 9 -7 7 -11c-76 -127 -177 -211 -287 -211c-81 0 -107 52 -105 121c1 36 10 81 27 127h-61c8 15 5 15 20 15h46c5 14 11 29 18 43h-69c9 16 5 15 20 15h56c64 131 174 255 300 248c33 -2 48 -15 48 -32c1 -31 -72 -100 -115 -92c-10 2 -31 9 -20 19
s21 -5 25 -6c22 -8 95 49 94 77c0 11 -9 18 -31 19c-91 6 -182 -112 -241 -233h68c-9 -17 -4 -15 -22 -15h-54c-7 -14 -13 -29 -19 -43h80c-9 -17 -5 -15 -22 -15h-64c-22 -58 -35 -110 -36 -142c0 -52 21 -88 81 -87c82 2 186 80 256 203z" />
    <glyph glyph-name="sterling" unicode="&#xa3;" horiz-adv-x="462" 
d="M404 530c77 -4 51 -73 6 -71c29 18 41 58 2 60c-106 8 -133 -103 -173 -214h64c-10 -13 -5 -12 -22 -12h-47c-24 -64 -54 -126 -108 -162c70 -38 144 -98 205 -100c48 -1 72 26 69 54c-2 20 -17 37 -44 38c-9 0 -20 -5 -22 -14c-1 -3 5 -14 -7 -18c-11 -3 -8 13 -4 20
c5 13 18 21 34 21c37 -1 55 -29 53 -59c-2 -38 -34 -79 -96 -71c-74 10 -145 78 -205 118c-16 -9 -31 -12 -46 -12c-31 1 -51 18 -50 32c0 13 12 18 28 19c24 0 57 -11 70 -20c31 30 51 90 74 154h-52c8 12 4 12 19 12h38c40 112 90 232 214 225zM61 120c11 0 23 2 34 8
c-6 7 -36 20 -55 20c-9 0 -15 -2 -15 -9c0 -8 15 -18 36 -19z" />
    <glyph glyph-name="cent" unicode="&#xa2;" horiz-adv-x="431" 
d="M404 222c2 -3 9 -7 6 -11c-59 -99 -133 -172 -215 -199c-6 -26 -12 -52 -19 -79h-25c7 24 13 48 19 72c-15 -3 -31 -5 -46 -5c-81 0 -108 53 -105 121c5 158 136 391 291 440c5 23 11 46 16 69h23c-6 -22 -12 -43 -18 -64c15 3 30 4 45 3c98 -6 27 -122 -24 -114
c-10 2 -31 10 -20 19c12 10 21 -4 26 -6c24 -8 89 83 19 87c-17 1 -34 -3 -52 -12c-47 -174 -85 -335 -126 -514c71 25 148 94 205 193zM175 23c44 168 86 337 127 508c-116 -75 -234 -306 -235 -425c0 -52 21 -88 80 -87c9 1 18 2 28 4z" />
    <glyph glyph-name="ampersand" unicode="&#x26;" horiz-adv-x="419" 
d="M405 314c-9 -51 -41 -68 -78 -81c24 -17 32 -45 29 -69c-10 -87 -140 -163 -213 -162c-86 0 -118 48 -116 106c3 67 52 148 117 186c-19 20 -26 43 -25 68c4 84 109 181 201 180c58 -1 81 -31 74 -65c-9 -46 -79 -95 -124 -81c-14 5 -25 15 -29 30c-3 11 -5 35 8 29
c14 -5 6 -22 6 -27c1 -11 10 -17 19 -20c41 -13 101 34 104 78c1 23 -13 42 -44 42c-79 0 -171 -102 -173 -180c0 -15 3 -29 10 -42c11 6 48 24 71 24c14 0 24 -6 20 -24c-6 -27 -27 -37 -49 -37c-16 -1 -33 4 -45 12c-46 -30 -96 -118 -99 -184c-2 -44 17 -77 71 -77
c111 0 175 89 176 146c0 27 -14 47 -43 47c-31 0 -58 -20 -54 -55c-16 28 -11 58 18 74c43 24 125 14 168 82zM244 312c-16 0 -49 -12 -60 -20c9 -8 22 -11 34 -11c17 0 33 9 36 23c1 5 -3 8 -10 8z" />
    <glyph glyph-name="quotesingle" unicode="'" horiz-adv-x="106" 
d="M97 553c34 0 9 -58 -15 -77c-8 -6 -8 -5 -10 3c10 8 18 18 19 31c-12 0 -19 10 -17 21c2 12 12 22 23 22z" />
    <glyph glyph-name="parenleft" unicode="(" horiz-adv-x="170" 
d="M236 611c-78 -92 -124 -194 -158 -321c-31 -116 -38 -244 -9 -360l-8 -9c-36 117 -58 253 -25 382c32 128 110 234 197 319z" />
    <glyph glyph-name="parenright" unicode=")" horiz-adv-x="186" 
d="M147 621c36 -117 58 -252 25 -382c-33 -128 -110 -234 -197 -319l-4 12c79 92 124 193 158 320c32 116 38 244 9 360z" />
    <glyph glyph-name="asterisk" unicode="*" horiz-adv-x="225" 
d="M238 483c5 -6 3 -15 0 -18c-5 -4 -17 -5 -28 -2c-16 5 -38 8 -47 11c6 -7 20 -24 36 -46c5 -7 8 -16 7 -19c-3 -6 -12 -9 -15 -7c-6 2 -14 12 -17 22c-5 16 -13 38 -16 47c-3 -8 -11 -28 -20 -52c-4 -8 -10 -16 -13 -16c-7 0 -13 6 -14 10c-2 7 3 18 11 25
c12 13 26 29 33 36c-8 -2 -30 -4 -57 -7c-10 -2 -19 1 -20 3c-5 7 -3 16 1 17c4 5 16 6 26 3c17 -4 38 -8 49 -10c-6 7 -21 22 -36 44c-6 8 -8 16 -8 19c4 7 12 9 15 7c6 -2 16 -10 18 -22c4 -16 12 -37 16 -46c1 8 9 28 20 52c4 9 8 15 11 15c9 1 13 -5 15 -9
c2 -7 -2 -17 -11 -24c-11 -14 -25 -29 -32 -36c8 1 30 3 57 7c9 0 18 -1 19 -4z" />
    <glyph glyph-name="plus" unicode="+" horiz-adv-x="306" 
d="M171 202h100c-14 -16 -10 -16 -31 -16h-73l-14 -88c-3 -21 -3 -15 -26 -15l18 103h-96c13 14 9 16 28 16h71l14 92c3 18 5 13 26 13z" />
    <glyph glyph-name="less" unicode="&#x3c;" horiz-adv-x="203" 
d="M53 212c57 17 98 37 130 69l7 -1c-14 -33 -40 -57 -77 -78c18 -17 37 -57 37 -76l-5 -3c-18 36 -58 67 -92 89z" />
    <glyph glyph-name="greater" unicode="&#x3e;" horiz-adv-x="198" 
d="M190 192c-57 -17 -98 -37 -130 -69l-7 1c14 33 40 57 77 78c-18 17 -37 57 -37 76l5 3c18 -36 58 -67 92 -89z" />
    <glyph glyph-name="equal" unicode="=" horiz-adv-x="308" 
d="M65 167c9 15 6 18 23 18h186c-12 -20 -6 -18 -28 -18h-181zM77 240c10 16 5 17 24 17h184c-11 -18 -6 -17 -27 -17h-181z" />
    <glyph glyph-name="endash" unicode="&#x2013;" horiz-adv-x="290" 
d="M77 240c10 16 5 17 24 17h184c-11 -18 -6 -17 -27 -17h-181z" />
    <glyph glyph-name="emdash" unicode="&#x2014;" horiz-adv-x="345" 
d="M77 240c10 16 5 17 24 17h232c-11 -18 -6 -17 -27 -17h-229z" />
    <glyph glyph-name="at" unicode="@" horiz-adv-x="539" 
d="M303 81c-3 11 -2 26 0 42c-19 -30 -40 -55 -61 -55c-17 0 -27 13 -33 32c-22 66 25 170 86 169c14 0 29 -6 44 -19c3 6 5 12 6 15c8 18 30 10 49 6c-2 -3 -12 -30 -20 -52c-18 -48 -43 -124 -38 -149c1 -7 4 -11 10 -11c40 0 139 122 143 214c2 52 -27 95 -114 99
c-171 10 -266 -120 -271 -237c-5 -93 50 -177 171 -173c60 2 115 29 119 53c1 4 -6 19 8 24c12 4 9 -17 6 -26c-13 -35 -80 -63 -151 -62c-141 1 -202 85 -198 179c4 120 114 257 298 259c111 2 146 -51 143 -116c-5 -98 -99 -224 -151 -224c-27 0 -40 13 -46 32zM248 80
c14 0 39 39 61 77c7 28 16 57 27 84c-9 8 -18 11 -26 11c-47 0 -74 -130 -69 -163c1 -6 4 -9 7 -9z" />
    <glyph glyph-name="bracketleft" unicode="[" horiz-adv-x="218" 
d="M184 614l130 9l-3 -11l-87 -12c-67 -221 -119 -435 -168 -662l82 -11l-3 -12l-125 9c52 251 105 448 174 690z" />
    <glyph glyph-name="bracketright" unicode="]" horiz-adv-x="200" 
d="M62 -76l-130 -9l3 11l87 12c67 221 119 435 168 662l-82 11l3 12l125 -9c-52 -251 -105 -448 -174 -690z" />
    <glyph glyph-name="backslash" unicode="\" horiz-adv-x="218" 
d="M233 -77h-22c-56 235 -114 465 -175 696h25c58 -250 106 -456 172 -696z" />
    <glyph glyph-name="underscore" unicode="_" horiz-adv-x="233" 
d="M21 15h208c-10 -17 -6 -15 -25 -15h-205c9 16 5 15 22 15z" />
    <glyph glyph-name="braceleft" unicode="{" horiz-adv-x="229" 
d="M156 452c16 81 36 157 148 133c-8 -9 -5 -8 -16 -7c-66 2 -70 -60 -86 -127c-15 -63 -40 -130 -102 -155c83 -52 34 -154 3 -242c-21 -60 -38 -115 24 -141c13 -6 10 -3 17 -15c-117 26 -115 93 -88 167c33 87 98 184 33 229c-7 -3 -26 -7 -43 -8c-50 -2 -50 43 -1 32
c18 -3 37 -10 42 -13c46 24 57 86 69 147zM45 295c13 0 28 3 33 6c-5 2 -18 6 -30 10c-32 8 -30 -16 -3 -16z" />
    <glyph glyph-name="braceright" unicode="}" horiz-adv-x="244" 
d="M107 30c-16 -81 -36 -157 -148 -133c8 9 5 8 16 7c66 -2 70 60 86 127c15 63 40 130 102 155c-83 52 -34 154 -3 242c21 60 38 115 -24 141c-13 6 -10 3 -17 15c117 -26 115 -93 88 -167c-33 -87 -98 -184 -33 -229c7 3 26 7 43 8c50 2 50 -43 1 -32c-18 3 -37 10 -42 13
c-46 -24 -57 -86 -69 -147zM218 187c-13 0 -28 -3 -33 -6c5 -2 18 -6 30 -10c32 -8 30 16 3 16z" />
    <glyph glyph-name="asciicircum" unicode="^" horiz-adv-x="201" 
d="M142 583c13 -38 32 -85 62 -112l-4 -4c-18 5 -51 33 -63 55c-31 -30 -60 -49 -96 -54l1 7c39 23 69 58 100 108z" />
    <glyph glyph-name="grave" unicode="`" horiz-adv-x="94" 
d="M39 565c21 13 29 28 33 7c5 -24 13 -52 33 -72c-15 -3 -15 -6 -26 4c-20 17 -31 41 -40 61z" />
    <glyph glyph-name="exclamdown" unicode="&#xa1;" horiz-adv-x="191" 
d="M181 371l-98 -404c-8 -32 -18 -21 -55 -19l134 433c5 14 6 8 22 2zM188 429c-11 0 -19 9 -17 21s12 22 23 22s18 -10 17 -22c-2 -12 -12 -21 -23 -21z" />
    <glyph glyph-name="dieresis" unicode="&#xa8;" horiz-adv-x="235" 
d="M152 561c25 0 43 -20 40 -45c-2 -25 -24 -45 -48 -45c-25 0 -43 20 -40 45c2 25 24 45 48 45zM291 561c25 0 43 -20 40 -45c-2 -25 -24 -45 -48 -45c-25 0 -43 20 -40 45c2 25 24 45 48 45z" />
    <glyph glyph-name="plusminus" unicode="&#xb1;" horiz-adv-x="288" 
d="M163 221h100c-14 -16 -10 -16 -31 -16h-73l-14 -88c-3 -21 -3 -15 -26 -15l18 103h-96c13 14 9 16 28 16h71l14 92c3 18 5 13 26 13zM28 52c10 16 5 17 24 17h173c-11 -18 -6 -17 -27 -17h-170z" />
    <glyph glyph-name="asciitilde" unicode="~" horiz-adv-x="255" 
d="M68 171c-2 8 2 9 8 14c49 32 102 -3 156 10c2 -8 -2 -10 -8 -13c-48 -31 -103 0 -156 -11z" />
    <glyph glyph-name="uni00AD" unicode="&#xad;" horiz-adv-x="264" 
d="M54 240c10 16 5 17 24 17h173c-11 -18 -6 -17 -27 -17h-170z" />
    <glyph glyph-name="paragraph" unicode="&#xb6;" horiz-adv-x="303" 
d="M181 357h91c-6 -17 -1 -17 -20 -17h-9l-88 -254c-5 -13 -12 -10 -28 -10l91 264h-29l-88 -256c-4 -11 -8 -8 -21 -8l51 149c-33 1 -51 15 -54 40c-2 8 -1 17 2 26c5 20 17 35 36 48c19 12 41 18 66 18z" />
    <glyph glyph-name="guillemotright" unicode="&#xbb;" horiz-adv-x="297" 
d="M288 192c-57 -17 -98 -37 -130 -69l-7 1c14 33 40 57 77 78c-18 17 -37 57 -37 76l5 3c18 -36 58 -67 92 -89zM185 192c-57 -17 -98 -37 -130 -69l-7 1c14 33 40 57 77 78c-18 17 -37 57 -37 76l5 3c18 -36 58 -67 92 -89z" />
    <glyph glyph-name="guillemotleft" unicode="&#xab;" horiz-adv-x="299" 
d="M48 212c57 17 98 37 130 69l7 -1c-14 -33 -40 -57 -77 -78c18 -17 37 -57 37 -76l-5 -3c-18 36 -58 67 -92 89zM151 212c57 17 98 37 130 69l7 -1c-14 -33 -40 -57 -77 -78c18 -17 37 -57 37 -76l-5 -3c-18 36 -58 67 -92 89z" />
    <glyph glyph-name="uni00A0" unicode="&#xa0;" horiz-adv-x="154" 
 />
    <glyph glyph-name="guilsinglleft" unicode="&#x2039;" horiz-adv-x="214" 
d="M53 212c57 17 98 37 130 69l7 -1c-14 -33 -40 -57 -77 -78c18 -17 37 -57 37 -76l-5 -3c-18 36 -58 67 -92 89z" />
    <glyph glyph-name="guilsinglright" unicode="&#x203a;" horiz-adv-x="202" 
d="M190 192c-57 -17 -98 -37 -130 -69l-7 1c14 33 40 57 77 78c-18 17 -37 57 -37 76l5 3c18 -36 58 -67 92 -89z" />
    <glyph glyph-name="quotedblbase" unicode="&#x201e;" horiz-adv-x="154" 
d="M47 75c34 0 9 -58 -15 -77c-8 -6 -8 -5 -10 3c10 8 18 18 19 31c-12 0 -19 10 -17 21c2 12 12 22 23 22zM106 75c34 0 9 -58 -15 -77c-8 -6 -8 -5 -10 3c10 8 18 18 19 31c-12 0 -19 10 -17 21c2 12 12 22 23 22z" />
    <glyph glyph-name="quotesinglbase" unicode="&#x201a;" horiz-adv-x="96" 
d="M50 75c34 0 9 -58 -15 -77c-8 -6 -8 -5 -10 3c10 8 18 18 19 31c-12 0 -19 10 -17 21c2 12 12 22 23 22z" />
    <glyph glyph-name="quoteleft" unicode="&#x2018;" horiz-adv-x="98" 
d="M84 492c-34 0 -9 58 15 77c8 6 8 5 10 -3c-10 -8 -18 -18 -19 -31c12 0 19 -10 17 -21c-2 -12 -12 -22 -23 -22z" />
    <glyph glyph-name="quoteright" unicode="&#x2019;" horiz-adv-x="79" 
d="M83 575c34 0 9 -58 -15 -77c-8 -6 -8 -5 -10 3c10 8 18 18 19 31c-12 0 -19 10 -17 21c2 12 12 22 23 22z" />
    <glyph glyph-name="bullet" unicode="&#x2022;" horiz-adv-x="168" 
d="M89 253c19 0 33 -15 31 -35c-2 -19 -19 -34 -37 -34c-19 0 -33 15 -31 34c2 20 18 35 37 35z" />
    <glyph glyph-name="ellipsis" unicode="&#x2026;" horiz-adv-x="287" 
d="M80 75c11 0 19 -9 17 -21s-12 -22 -23 -22s-18 10 -17 22c2 12 12 21 23 21zM154 75c11 0 19 -9 17 -21s-12 -22 -23 -22s-18 10 -17 22c2 12 12 21 23 21zM224 75c11 0 19 -9 17 -21s-12 -22 -23 -22s-18 10 -17 22c2 12 12 21 23 21zM80 75c11 0 19 -9 17 -21
s-12 -22 -23 -22s-18 10 -17 22c2 12 12 21 23 21zM154 75c11 0 19 -9 17 -21s-12 -22 -23 -22s-18 10 -17 22c2 12 12 21 23 21zM224 75c11 0 19 -9 17 -21s-12 -22 -23 -22s-18 10 -17 22c2 12 12 21 23 21z" />
    <glyph glyph-name="a" unicode="a" horiz-adv-x="264" 
d="M284 212c8 -7 10 -5 6 -12c-28 -46 -98 -183 -146 -183c-27 0 -40 14 -45 35c-5 20 -1 52 6 85c-20 -35 -44 -67 -67 -67c-33 0 -40 49 -39 74c2 61 42 129 92 128c15 0 31 -7 47 -23c3 7 5 13 6 15c8 20 30 11 48 7c-18 -44 -67 -196 -61 -232c1 -7 5 -12 11 -12
c43 0 118 147 142 185zM44 83c16 0 49 54 72 97c6 21 13 40 19 60c-10 10 -20 15 -29 15c-43 0 -69 -107 -70 -152c0 -5 0 -21 8 -20z" />
    <glyph glyph-name="n" unicode="n" horiz-adv-x="269" 
d="M288 212c10 -6 11 -4 7 -11c-21 -37 -83 -168 -128 -216c-8 -8 -20 -16 -33 -15c-27 2 -37 33 -36 55c2 66 52 207 49 233c-1 3 -3 4 -5 4c-21 -1 -75 -90 -97 -130c-4 -18 -9 -36 -15 -57c-8 -26 -24 -20 -51 -24c19 72 31 137 49 203c6 20 32 10 51 5
c-11 -33 -19 -62 -26 -91c26 48 63 107 95 107c18 0 30 -10 34 -26c11 -40 -56 -231 -45 -262c4 -12 21 6 23 8c45 48 114 193 128 217z" />
    <glyph glyph-name="i" unicode="i" horiz-adv-x="159" 
d="M71 292c-11 0 -18 10 -16 21c2 12 12 22 23 22s18 -10 16 -22c-2 -11 -12 -21 -23 -21zM186 205c0 -1 0 -2 -2 -5c-24 -43 -85 -135 -124 -161c-6 -4 -14 -6 -22 -6c-35 0 -43 36 -43 64c1 48 23 118 37 153c8 19 30 10 48 6c-5 -12 -57 -159 -50 -200c1 -8 5 -12 10 -12
s9 1 15 5c38 25 100 120 123 163c6 -4 8 -5 8 -7z" />
    <glyph glyph-name="circumflex" unicode="&#x2c6;" horiz-adv-x="272" 
d="M177 690c24 -54 50 -92 86 -120l-1 -7c-34 10 -61 33 -88 66c-14 -21 -51 -44 -69 -47l-4 5c33 22 58 66 76 103z" />
    <glyph glyph-name="tilde" unicode="&#x2dc;" horiz-adv-x="288" 
d="M249 580c1 -8 -3 -9 -9 -13c-48 -30 -103 1 -156 -11c-2 8 2 10 8 14c49 33 102 -3 157 10z" />
    <glyph glyph-name="questiondown" unicode="&#xbf;" horiz-adv-x="331" 
d="M37 24c-31 134 232 263 209 325c-4 13 -16 14 -35 -1c-10 -7 -6 -7 -17 -3c25 30 67 37 82 10c47 -86 -233 -215 -204 -343c8 -34 44 -52 85 -52c56 -1 120 31 129 102c5 45 -18 83 -51 58c-3 -2 -8 -18 -19 -11c-10 6 5 18 13 22c43 25 72 -14 69 -62
c-5 -84 -84 -127 -153 -124c-50 1 -96 27 -108 79zM280 400c-11 0 -19 10 -17 22s12 21 23 21s18 -9 17 -21c-2 -12 -12 -22 -23 -22z" />
    <glyph glyph-name="daggerdbl" unicode="&#x2021;" horiz-adv-x="865" 
d="M466 353c-3 0 -5 2 -5 5c-3 0 -3 3 -3 8c0 3 3 6 5 6c0 2 3 5 6 5c2 0 5 -3 8 -5c2 0 2 -3 2 -6c0 -5 -2 -8 -5 -8c-3 -3 -5 -5 -8 -5zM898 440c5 -8 8 -22 8 -35c0 -14 -3 -28 -8 -41c-5 -14 -11 -27 -19 -38s-19 -22 -30 -31c-11 -10 -25 -16 -35 -21
c0 -6 -3 -14 -3 -19c-3 -14 -5 -24 -14 -33c-5 -8 -16 -13 -32 -13c-5 0 -11 3 -16 3c-3 2 -6 5 -8 10c-3 3 -3 9 -3 11c3 6 5 11 8 14c3 2 5 5 11 8c3 3 8 5 11 8c5 3 8 3 13 5c3 3 6 3 8 3c0 14 0 24 -2 36c-3 11 -3 24 -3 35c-3 -5 -6 -8 -8 -14c0 -2 -3 -5 -6 -8v-2
c-2 -3 -5 -9 -10 -17c-3 -8 -9 -16 -14 -27c-5 -8 -14 -16 -19 -27c-6 -8 -14 -16 -19 -25c-6 -8 -11 -16 -17 -19c-5 -5 -10 -8 -13 -8c-8 0 -14 3 -16 8c-3 6 -6 14 -6 22c0 11 0 19 3 30c3 13 3 21 5 32c6 14 9 28 11 36c6 11 8 19 8 24c0 0 -2 0 -5 3c-3 0 -5 3 -5 3
c-6 -6 -9 -11 -11 -16c-3 -6 -8 -14 -11 -19v0c-3 -6 -6 -11 -11 -17c-3 -6 -9 -8 -14 -11c-5 -5 -11 -5 -16 -8c-6 0 -11 3 -16 5c-3 -5 -6 -13 -11 -19c-3 -8 -8 -16 -14 -24l-16 -16c-8 -6 -14 -8 -22 -8c-6 0 -11 2 -16 5c-3 6 -6 11 -8 16c-3 8 -3 17 0 30v3
c-3 -6 -9 -11 -11 -16c-6 -9 -14 -17 -19 -25c-6 -5 -11 -11 -16 -13c-6 -3 -9 -6 -11 -6c-6 0 -11 3 -14 6c-6 2 -8 8 -8 13c-3 8 -3 14 -3 25c3 8 3 16 5 24c-2 -6 -8 -14 -11 -19c-5 -14 -13 -24 -18 -35c-9 -11 -14 -19 -19 -25c-3 -3 -6 -5 -8 -8h-11
c-6 0 -11 3 -14 11c-5 6 -5 11 -5 19s2 19 5 30c3 13 6 27 8 38c6 14 8 25 8 35c3 9 6 17 6 19c0 3 -3 3 -3 3c-3 0 -8 -3 -11 -8c-5 -5 -11 -11 -16 -19c-6 -8 -9 -14 -14 -22s-8 -14 -11 -19c-3 -6 -3 -11 -5 -16c0 -6 -3 -11 -3 -17c-3 -2 -3 -5 -5 -8c0 0 -3 0 -6 -2h-8
h-8c5 19 8 35 11 54c3 2 3 5 3 8c-3 -6 -6 -8 -9 -14c-5 -8 -13 -16 -18 -24c-9 -8 -17 -14 -25 -22c-8 -5 -17 -10 -25 -13s-16 -6 -24 -6s-14 3 -19 9c-3 8 -5 16 -5 32c0 11 0 24 2 35c-2 -5 -8 -8 -13 -13c-8 -3 -16 -9 -25 -11v-8c0 -6 0 -8 -3 -11
c0 -14 -5 -24 -11 -33c-8 -8 -18 -13 -35 -13c-5 0 -10 0 -16 3c-3 2 -5 5 -8 10c-3 3 -3 9 0 11c0 6 3 8 5 14c3 2 6 5 11 8c3 3 8 5 14 8c2 3 8 3 11 5c2 3 5 3 8 3c0 14 0 24 -3 36c-3 11 -3 21 -3 35c-8 -16 -16 -30 -27 -49c-11 -17 -21 -35 -35 -52
c-14 -16 -25 -32 -41 -46c-14 -16 -27 -24 -43 -33c-6 0 -11 -2 -17 -2c-8 -3 -14 0 -19 0s-11 2 -13 8c-6 3 -9 8 -11 16c0 3 -3 5 -3 11c0 0 0 3 3 3v5c0 3 2 3 2 3c3 3 3 0 6 0c3 -3 3 -6 0 -8c-3 -3 -3 -6 -3 -6v-5c0 0 0 -3 3 -3c0 -5 3 -11 8 -13c3 -3 8 -6 13 -6h14
c6 0 9 3 14 3c16 8 30 19 46 32c13 17 27 33 41 52c14 16 24 35 35 55c11 19 22 35 30 48c0 6 0 9 3 9c2 2 5 5 8 5c2 0 5 -3 8 -3l-6 -11c-2 -2 0 -8 0 -13c0 -8 3 -14 6 -22s3 -13 5 -22c0 -8 3 -13 3 -19c9 3 14 8 22 11c6 5 11 11 16 17c3 2 3 2 6 5c5 14 8 22 16 30
c3 5 8 11 14 16c5 6 10 8 18 8c9 -2 14 -2 17 -8c6 -3 6 -8 6 -13c0 -6 -3 -8 -6 -14c-3 -3 -6 -5 -11 -8c-6 -3 -8 -3 -14 -5c-5 0 -10 -3 -13 -3c-6 -11 -8 -25 -14 -39c-2 -10 -2 -21 -5 -29c0 -8 3 -11 3 -14c2 -2 5 -5 8 -5c8 0 16 3 21 5c8 6 17 8 22 16
c9 6 17 11 22 19c8 8 14 17 19 22s8 11 11 17c3 5 5 8 8 13c3 8 3 17 5 27c3 0 3 3 6 3c0 3 2 3 5 3s6 0 8 -3c3 0 6 0 8 -3c-2 -8 -5 -16 -8 -24c0 -8 -2 -16 -5 -22c5 6 8 11 11 19c5 6 11 14 14 19c5 6 8 8 13 14c6 2 8 5 14 5c8 0 16 -5 19 -13v-19c-3 -6 -3 -14 -6 -25
c-2 -8 -5 -19 -8 -30c-2 -11 -5 -19 -8 -30c0 -8 -3 -16 -3 -24c-2 -5 -2 -11 0 -14c0 -3 0 -3 3 -3c0 0 3 0 3 3c3 0 3 0 3 3c2 0 2 0 2 3c6 5 14 13 22 27c5 11 13 22 19 35c5 11 13 22 19 33c0 3 0 3 3 5v0c3 9 5 17 5 22c3 6 8 8 11 6c6 0 11 0 16 -3c0 0 -2 -6 -5 -16
c-3 -9 -8 -20 -11 -31s-5 -24 -8 -35s-3 -19 -3 -24c0 -6 3 -6 6 -6c2 0 5 0 8 3c5 3 11 6 16 14c5 5 11 13 16 21c6 6 11 14 17 22c2 3 2 8 5 11c3 2 3 8 5 11c6 11 11 19 19 27c9 6 17 11 28 11c5 0 8 -3 11 -5c2 2 5 2 8 2c5 0 11 0 11 -5c2 -3 5 -8 5 -14
c0 -5 0 -8 -3 -13v-12c3 -2 8 -5 14 -5c5 0 8 3 13 5c6 3 8 9 14 12c3 5 6 11 11 16v0l19 35c-5 3 -8 8 -11 14c-5 5 -5 8 -5 13c0 6 0 8 3 11c2 3 8 3 13 3c6 0 11 0 11 -6c3 -2 5 -5 5 -11c-2 -2 -2 -5 -2 -8c-3 -5 -3 -8 -3 -8c3 -5 8 -8 13 -11c6 -2 11 -5 17 -8
c0 -2 -3 -8 -6 -21c-5 -14 -11 -31 -13 -47c-3 -11 -6 -19 -8 -27c-3 -11 -3 -19 -6 -24v-19c0 -6 0 -9 3 -9s5 3 11 9c5 5 11 11 16 19s13 16 19 27c5 8 14 19 19 27c6 8 11 16 14 25c5 8 8 13 11 16v0l16 32c3 6 3 9 5 9c3 2 6 5 8 5c3 0 6 -3 9 -3l-9 -11
c0 -2 0 -8 3 -13c0 -5 3 -14 6 -22c0 -5 2 -13 2 -22c3 -8 3 -13 6 -19c10 6 22 11 33 22c10 8 19 19 27 30s13 24 19 38c5 13 5 27 5 38c3 14 0 22 -5 30c-3 8 -9 11 -17 11c-2 0 -5 0 -8 -3c0 0 -2 0 -2 -3c-3 -2 -6 -2 -9 -2l-2 2c0 3 0 3 2 6l3 3c3 0 3 2 6 2h5
c3 3 5 3 8 3c8 -3 16 -8 19 -16zM210 331c0 -3 -2 -5 -2 -11c10 3 21 6 27 11c5 6 8 11 8 16c0 6 -3 8 -11 8c-3 0 -6 -2 -8 -5c-6 -5 -6 -8 -8 -11c-3 -2 -3 -5 -6 -8zM110 263v3c-3 0 -6 -3 -8 -3c-3 -3 -9 -3 -11 -5c-3 -3 -8 -6 -11 -9c-3 0 -5 -2 -8 -5
c-6 -5 -6 -11 -6 -16c3 -6 6 -11 14 -11c5 0 8 3 13 5c3 0 6 6 9 9c2 5 2 8 5 13c0 5 3 11 3 14v5zM580 274c3 8 5 13 8 19c-3 2 -5 5 -8 11c-3 5 -5 8 -5 14c-3 5 -3 10 -3 13c-5 0 -11 -5 -19 -11c-5 -8 -11 -16 -17 -27c-2 -11 -8 -19 -11 -30c0 -11 -2 -19 0 -24
c0 -8 3 -11 9 -11c5 0 14 0 19 5c5 6 11 11 14 19c5 8 10 14 13 22zM594 309v11c0 3 -3 8 -3 11c0 0 -3 3 -6 3c0 0 -2 0 -2 -3v-5v-6v-2c2 -3 2 -6 5 -9c0 -2 3 -5 3 -8c0 0 0 3 3 8zM675 377v8v6c-2 0 -2 2 -5 2s-6 -2 -6 -5c0 -6 3 -11 9 -16c0 0 2 2 2 5zM789 260v6
c-2 0 -5 -3 -8 -3c-5 -3 -8 -3 -11 -5c-5 -3 -8 -6 -10 -6c-3 -3 -6 -5 -9 -8c-5 -5 -5 -11 -5 -16c3 -6 5 -11 14 -11c5 0 8 3 10 5c3 0 6 3 8 9c3 2 6 5 6 10c3 6 3 8 3 14c0 0 2 3 2 5zM577 192v6h7v-6h-7zM621 182c0 -3 0 -3 4 -6v-6v0v-7c-4 0 -4 -2 -4 -6
c-3 0 -3 0 -6 -3h-6h-6c-3 3 -3 3 -7 3c0 4 -3 4 -3 6v7v0v6c0 3 3 3 3 6c4 0 4 4 7 4h6h6s3 -4 6 -4zM621 170c0 3 -3 3 -3 6c0 0 0 3 -3 3c0 0 0 3 -3 3h-3h-6l-3 -3s0 -3 -4 -3v-6v0v-3c4 -4 4 -4 4 -6h3c3 -4 3 -4 6 -4c0 0 3 0 3 4h6v6zM577 154v32h7v-32h-7zM562 179
v19h6v-44h-6v7v-4h-3l-4 -3h-6h-3c-3 3 -3 3 -7 3c0 4 -2 4 -2 6v7v0v6c0 3 2 6 2 6c4 0 4 4 7 4h3h6h4c0 0 0 -4 3 -4v-3zM562 170v6c0 0 0 3 -3 3l-4 3h-3h-6c0 0 0 -3 -3 -3c0 0 0 -3 -4 -3v-6v0v-3c4 -4 4 -4 4 -6h3c3 -4 3 -4 6 -4c0 0 3 0 3 4h4c3 2 3 2 3 6v3z
M464 170v-3l3 -4v0c0 -2 -3 -2 -3 -2v-4c-3 0 -3 -3 -6 -3h-3h-7c-3 3 -6 3 -6 3l3 4h3c3 -4 3 -4 7 -4c3 0 3 0 6 4v2v0v4h-3v0c-3 0 -3 3 -3 3h-7l-3 3v0l-3 3v3l3 3v4h3h7h6c0 0 3 0 3 -4v-3c-3 0 -3 3 -6 3h-3h-7v-3v-3h3v-3h4h3c3 -3 3 -3 6 -3zM480 195v-9h12v-4h-12
v-19c0 -2 3 -2 3 -2c0 -4 3 -4 3 -4h3s0 4 3 4v-7h-3h-3h-3c-3 0 -3 0 -3 3c-3 0 -3 0 -3 4v2v19h-7v4h7v9h3zM521 167v19h6v-32h-6v7c0 -4 0 -4 -3 -4c-4 -3 -4 -3 -6 -3h-7l-3 3l-4 4v6v19h7v-19v-6c3 0 3 -4 7 -4c2 0 2 0 6 4v0c3 0 3 2 3 2v4z" />
    <glyph glyph-name="h" unicode="h" horiz-adv-x="278" 
d="M298 212c9 -6 10 -4 6 -11c-21 -37 -94 -189 -139 -237c-10 -10 -21 -15 -31 -15c-21 1 -39 22 -38 56c2 66 52 207 49 232c-1 4 -2 5 -5 5c-23 -1 -89 -114 -104 -144c-3 -17 -10 -46 -15 -68c-6 -27 -22 -21 -49 -25c6 30 13 66 23 110c12 50 45 181 58 230
s50 199 102 199c19 0 29 -11 33 -25c16 -60 -100 -251 -112 -265c-4 -16 -21 -82 -31 -119c26 50 67 120 101 120c19 0 30 -11 34 -26c11 -40 -55 -231 -45 -262c4 -13 21 6 24 8c44 47 124 213 139 237zM165 524c-23 0 -75 -215 -84 -244c7 8 107 189 97 232
c-2 7 -7 12 -13 12z" />
    <glyph glyph-name="r" unicode="r" horiz-adv-x="224" 
d="M243 212c7 -5 11 -5 7 -11c-25 -44 -133 -230 -173 -230c-61 0 -43 98 -24 175c13 51 29 91 35 108c-7 4 -16 9 -23 14c-14 -22 -26 -46 -40 -68c-2 -4 -6 0 -11 3l41 72c-17 14 -30 36 -29 54c0 14 9 25 30 25c23 0 29 -14 29 -29c-1 -13 -7 -27 -9 -34
c12 -13 38 -27 59 -35c-2 -5 -22 -63 -40 -128c-17 -66 -35 -144 -18 -144c30 0 144 188 166 228zM67 300c2 4 5 16 6 26c0 8 -3 15 -12 15c-6 0 -9 -3 -9 -8c-1 -8 4 -20 15 -33z" />
    <glyph glyph-name="question" unicode="?" horiz-adv-x="318" 
d="M336 450c31 -134 -232 -263 -209 -325c4 -13 16 -14 35 1c10 7 6 7 17 3c-25 -30 -67 -37 -82 -10c-47 86 233 215 204 343c-8 34 -44 52 -85 52c-56 1 -120 -31 -129 -102c-5 -45 18 -83 51 -58c3 2 8 18 19 11c10 -6 -5 -18 -13 -22c-43 -25 -72 14 -69 62
c5 84 84 127 153 124c50 -1 96 -27 108 -79zM93 74c11 0 19 -10 17 -22s-12 -21 -23 -21s-18 9 -17 21c2 12 12 22 23 22z" />
    <glyph glyph-name="R" unicode="R" horiz-adv-x="648" 
d="M696 -62c41 16 67 -24 64 -62c-4 -50 -40 -72 -81 -73c-39 -1 -83 18 -108 49c-81 103 -40 342 -112 393c-5 2 -10 4 -15 8l11 12c82 -39 191 93 193 193c1 55 -30 100 -115 103h-19c-8 -26 -17 -51 -25 -77c-37 -114 -72 -230 -112 -343c-32 -92 -81 -193 -161 -191
c-49 2 -80 35 -96 81c-8 -7 -17 -13 -27 -19c-18 -11 -40 -17 -61 -17c-51 0 -70 35 -68 68c3 31 23 61 55 62c10 0 32 -4 23 -15c-9 -12 -22 0 -26 1c-22 4 -41 -29 -39 -58c1 -24 16 -46 54 -46c19 0 41 7 57 18c10 6 19 14 28 21c-8 27 -10 58 -9 87c4 61 34 173 111 167
c30 -3 41 -19 40 -42c-1 -67 -89 -191 -128 -219c14 -43 42 -70 86 -72c59 -2 94 80 118 164c34 122 68 235 107 355c8 23 16 50 25 73c-65 1 -137 3 -137 49c1 34 47 71 50 49c2 -13 -13 -13 -20 -15c-11 -13 -17 -23 -17 -33c-4 -46 145 -34 191 -36
c126 -5 166 -58 161 -120c-8 -89 -109 -195 -190 -210c80 -65 44 -293 105 -385c18 -26 47 -39 74 -39c35 0 66 22 65 66c-1 22 -20 56 -45 41c-3 -2 -10 -18 -24 -10c-12 7 7 18 17 22zM126 55c29 25 96 147 102 204c1 16 -3 27 -15 28c-64 5 -91 -104 -94 -155
c-1 -25 1 -53 7 -77z" />
    <glyph glyph-name="b" unicode="b" horiz-adv-x="266" 
d="M286 212c8 -7 10 -5 6 -11c-40 -66 -58 -100 -125 -121c-7 -2 -15 -4 -23 -6c-19 -44 -53 -78 -89 -78c-15 0 -34 8 -34 27c1 28 59 46 78 51c9 16 54 165 28 164c-21 0 -70 -87 -89 -125c-4 -18 -11 -49 -16 -71c-6 -27 -23 -21 -50 -25c6 30 15 70 25 114
c12 50 30 128 42 178c13 49 51 198 103 198c27 0 35 -21 34 -43c-5 -74 -102 -234 -113 -247c-4 -14 -11 -42 -16 -65c23 45 55 98 86 98c67 0 31 -115 16 -163c6 1 13 3 19 5c58 19 79 58 118 120zM152 488c-23 0 -75 -215 -84 -244c6 7 94 167 97 222c1 8 -2 22 -13 22z
M43 10c17 0 40 27 51 52c-13 -4 -62 -21 -62 -41c0 -8 4 -11 11 -11z" />
    <glyph glyph-name="d" unicode="d" horiz-adv-x="284" 
d="M304 212c7 -7 10 -6 6 -12c-31 -51 -96 -206 -155 -206c-10 0 -20 4 -29 14c-29 34 -11 121 -4 162c-25 -55 -59 -114 -87 -114c-17 0 -27 13 -34 32c-21 66 36 206 98 205c15 0 30 -6 46 -21c16 63 33 125 46 166c17 54 43 108 75 108c19 0 29 -11 32 -25
c16 -60 -99 -251 -111 -265c-3 -11 -42 -170 -41 -230c1 -16 5 -21 12 -21c44 0 122 170 146 207zM233 428c-14 -47 -37 -134 -41 -146c6 8 106 189 97 232c-2 7 -7 12 -13 12c-16 0 -39 -83 -43 -98zM131 211c3 17 7 34 11 51c-10 10 -19 14 -28 14
c-47 0 -85 -166 -80 -199c1 -6 4 -9 7 -9c19 0 63 87 90 143z" />
    <glyph glyph-name="A.01" unicode="&#xe000;" horiz-adv-x="713" 
d="M733 213c7 -6 10 -5 6 -11c-31 -51 -103 -201 -163 -202c-38 0 -46 49 -45 78c0 43 13 107 29 175c-32 -5 -70 -12 -105 -15v-1c-32 -72 -84 -161 -138 -217c-37 -38 -73 -55 -104 -54c-109 1 -93 156 -70 229c-80 -27 -180 -3 -174 96c3 50 37 96 84 114c16 6 33 8 47 5
v0v0v0v0h1v0v0v0v-1v0v0h1v0v0c15 -4 26 -14 31 -28c3 -10 7 -32 -7 -27s-6 21 -7 25c-2 10 -11 16 -20 19v0h-1v0v0v0v0v0v0v0v0v0v0v0v0v0v0v0v0v0v0v0c-12 3 -27 2 -41 -4c-42 -16 -73 -59 -76 -104c-6 -97 93 -106 167 -78c21 65 140 324 218 319c39 -2 34 -52 25 -78
c-20 -61 -72 -128 -117 -173c-36 -33 -76 -62 -118 -79c-20 -65 -44 -217 57 -219c26 0 56 15 85 51c41 51 77 135 107 205c-36 3 -61 16 -61 48c0 34 47 71 50 49c2 -13 -14 -12 -20 -14c-11 -13 -17 -24 -18 -33c-1 -26 21 -36 54 -38c56 132 109 284 250 323
c11 4 28 -2 39 -4c-1 -2 -12 -41 -16 -54c-18 -60 -47 -153 -72 -243c13 1 23 1 30 -1s13 -8 15 -17c2 -8 -1 -15 -4 -20c-3 -7 -7 -12 -14 -17c-8 -6 -28 -15 -27 -1c1 16 18 12 22 14c2 1 4 2 6 4c4 5 7 12 6 18c-1 4 -4 7 -8 8c-6 2 -16 2 -29 0
c-20 -72 -35 -141 -39 -188c0 -12 -6 -58 11 -58c44 0 133 165 153 199zM358 517c-64 -6 -175 -240 -196 -299c38 17 72 45 101 79c46 53 78 118 93 164c2 6 18 57 2 56zM461 251c33 3 70 10 102 15c23 92 53 190 72 248c1 5 8 26 11 39c-117 -44 -136 -179 -185 -302z" />
    <glyph glyph-name="B.01" unicode="&#xe001;" horiz-adv-x="515" 
d="M405 296c53 -28 71 -73 66 -121c-10 -86 -99 -180 -201 -190c-114 -10 -93 164 23 206c12 5 31 9 43 9c11 0 33 -4 24 -15c-10 -12 -22 1 -27 1c-10 2 -29 -4 -37 -7c-101 -38 -124 -186 -28 -177c75 7 145 108 155 191c4 38 -5 73 -33 91c-73 -52 -103 -35 -103 -15
c0 44 71 43 103 33c51 40 75 100 75 151c0 57 -28 105 -81 106c-26 1 -57 -10 -94 -36c43 -56 18 -175 -35 -288c-62 -133 -162 -258 -237 -267c-139 -18 49 307 70 343c45 76 106 162 177 216c-12 21 -40 24 -65 21c-54 -7 -123 -47 -162 -93c-6 -7 -16 -19 -17 -28
c-1 -5 6 -21 -9 -25c-8 -3 -10 3 -9 11c1 18 14 35 26 49c42 51 119 94 178 99c27 2 53 -4 73 -24c35 25 71 38 103 40c70 4 124 -40 126 -106c1 -50 -28 -113 -104 -175zM205 235c52 111 86 227 69 277c-82 -63 -121 -121 -173 -211c-15 -26 -188 -326 -94 -318
c56 5 139 125 198 252zM300 270c1 -15 24 -18 75 22c-20 7 -78 8 -75 -22z" />
    <glyph glyph-name="B.02" unicode="&#xe002;" horiz-adv-x="561" 
d="M581 212c6 -5 10 -5 6 -11l-7 -13c-27 -43 -62 -50 -102 -46c-17 -85 -113 -170 -216 -170c-49 0 -71 31 -70 68c1 51 42 114 108 134c47 13 88 -1 133 -11c8 38 3 74 -24 95c-77 -48 -106 -26 -105 -6c3 43 74 42 106 24c64 41 93 111 90 167c-3 50 -30 90 -82 90
c-23 0 -52 -8 -86 -27c38 -62 2 -178 -62 -287c-74 -125 -185 -239 -261 -241c-140 -4 78 301 102 335c52 72 121 152 197 199c-11 22 -38 28 -64 27c-61 -2 -146 -45 -185 -96c-2 -2 -3 -6 -4 -8c-2 -5 4 -21 -11 -24c-14 -3 -8 18 -3 27c2 4 5 8 8 11
c42 56 136 103 204 102c27 -1 52 -9 70 -31c37 22 73 31 104 30c70 -1 120 -49 118 -113c-2 -51 -37 -112 -121 -169c46 -29 60 -72 56 -114c36 -3 68 3 90 40zM216 219c65 108 112 225 99 277c-88 -55 -131 -110 -192 -194c-18 -24 -217 -307 -123 -308
c55 0 146 107 216 225zM318 253c0 -15 23 -21 77 14c-19 9 -77 16 -77 -14zM261 -12c71 0 147 85 169 163c-42 10 -83 23 -126 11c-59 -18 -96 -72 -98 -116c-2 -32 15 -58 55 -58z" />
    <glyph glyph-name="B.03" unicode="&#xe003;" horiz-adv-x="485" 
d="M374 273c40 -17 64 -61 64 -105c-1 -89 -94 -193 -202 -203c-114 -11 -93 163 24 205c12 5 31 10 43 9c10 0 32 -4 23 -15c-10 -12 -22 1 -26 2c-11 2 -29 -5 -37 -8c-102 -38 -124 -186 -29 -177c79 7 155 119 158 203c1 33 -9 62 -34 78c-72 -52 -104 -34 -105 -14
c0 42 76 43 102 34c48 36 76 107 79 169c5 84 -52 120 -115 118c-36 0 -75 -14 -105 -37c51 -53 41 -181 2 -304c-43 -135 -121 -264 -191 -284c-135 -38 4 311 19 350c34 83 80 175 144 239c-16 20 -43 18 -68 11c-52 -14 -115 -64 -146 -116c-5 -7 -13 -21 -14 -30
c0 -4 9 -19 -4 -26c-8 -3 -10 2 -11 10c-1 18 9 37 18 52c35 57 104 111 163 124c26 6 52 4 74 -12l2 -2c40 31 95 50 145 51c70 1 131 -34 132 -120c2 -72 -40 -156 -105 -202zM168 225c37 121 56 247 30 294v0c-71 -73 -101 -137 -140 -233c-11 -28 -137 -351 -45 -328
c53 12 115 137 155 267zM266 250c1 -16 25 -19 75 21c-20 7 -78 9 -75 -21z" />
    <glyph glyph-name="B.04" unicode="&#xe004;" horiz-adv-x="733" 
d="M529 550c-8 -22 -16 -61 -22 -85c-35 -136 -86 -338 -144 -428c-30 -44 -62 -67 -92 -73c-107 -20 -128 115 -120 191c-73 -42 -176 -38 -189 60c-6 50 18 102 60 129c16 10 33 15 48 13c15 -1 28 -8 35 -21c6 -9 13 -30 -1 -28c-15 2 -10 19 -12 23c-4 10 -14 14 -23 15
c-13 1 -27 -4 -41 -12c-38 -24 -60 -72 -54 -117c12 -97 112 -86 179 -44c8 67 75 345 151 355c40 5 44 -44 41 -72c-8 -64 -46 -140 -82 -192c-28 -40 -62 -76 -100 -101c-7 -68 6 -201 104 -183c26 5 53 26 74 66c29 55 86 296 118 422c6 23 12 53 21 75c7 19 30 11 49 7z
M299 512c-61 -18 -125 -269 -133 -331c34 24 62 59 83 97c35 61 54 131 59 179c1 6 7 60 -9 55zM727 463c-1 -52 -38 -113 -100 -163c46 -25 65 -63 64 -104c-1 -90 -93 -194 -201 -204c-55 -5 -78 32 -75 77c3 49 38 107 98 129c12 4 31 9 43 9c11 -1 33 -5 23 -16
c-9 -11 -21 1 -26 2c-10 2 -29 -4 -37 -7c-58 -22 -90 -81 -89 -125c1 -32 20 -57 61 -53c79 8 154 119 157 203c2 33 -8 62 -33 78c-73 -52 -105 -34 -105 -14c-1 43 68 43 101 34c42 38 72 98 72 149c1 56 -31 102 -113 104c-59 7 -202 -14 -204 48c-1 33 47 70 50 48
c2 -13 -14 -12 -20 -14c-12 -13 -17 -24 -18 -33c-3 -47 146 -35 192 -36c113 -3 161 -52 160 -112zM519 277c2 -16 25 -19 76 21c-20 8 -79 9 -76 -21z" />
    <glyph glyph-name="C.01" unicode="&#xe005;" horiz-adv-x="565" 
d="M338 407c-35 -42 -118 -200 -123 -304c-2 -53 16 -92 71 -94c4 30 18 85 39 138c30 78 77 154 134 154c45 1 73 -47 72 -88c-2 -54 -36 -107 -81 -147c-46 -40 -104 -69 -153 -75c-3 -33 2 -80 19 -104c3 -3 18 -7 12 -21c-3 -8 -8 -6 -13 -1c-4 4 -7 9 -10 15
c-17 37 -23 71 -21 110c-85 -5 -116 42 -118 107c-3 107 73 263 117 317c-91 11 -241 71 -300 1c-6 -6 -15 -18 -14 -26c1 -5 13 -17 1 -27c-11 -9 -15 14 -14 24c0 15 6 26 17 38c63 75 221 12 320 2c49 58 143 138 230 133c35 -2 49 -15 49 -33
c-1 -48 -111 -129 -234 -119zM525 544c-82 5 -132 -73 -176 -123c101 -7 206 66 207 103c0 11 -9 19 -31 20zM339 124c-20 -44 -35 -88 -40 -115c47 2 101 29 144 68c40 36 70 83 74 129c2 26 -9 71 -42 68c-53 -4 -102 -78 -136 -150z" />
    <glyph glyph-name="D.01" unicode="&#xe006;" horiz-adv-x="504" 
d="M346 607c92 1 151 -92 147 -225c-6 -177 -101 -396 -241 -410c-114 -10 -93 164 24 206c12 5 30 9 43 9c10 0 32 -4 23 -15c-10 -12 -22 1 -27 1c-10 2 -29 -4 -37 -7c-101 -38 -123 -186 -28 -177c101 9 195 248 194 419c-1 103 -47 175 -119 173
c-28 -1 -60 -14 -95 -41c47 -48 42 -158 12 -271c-40 -146 -125 -296 -201 -317c-135 -38 3 311 19 349c34 84 80 175 144 240c-16 19 -44 18 -68 11c-53 -14 -115 -64 -146 -116c-5 -7 -13 -21 -14 -30c0 -5 9 -19 -4 -26c-8 -4 -11 2 -11 10c-2 18 9 37 18 52
c35 57 104 111 162 124c27 6 53 4 75 -13l2 -1c47 37 90 54 128 55zM192 260c32 112 46 223 22 267v0c-71 -74 -101 -137 -140 -233c-11 -28 -138 -351 -46 -329c57 14 124 155 164 295z" />
    <glyph glyph-name="D.02" unicode="&#xe0007;" horiz-adv-x="733" 
d="M528 549c-9 -23 -17 -65 -24 -90c-35 -137 -85 -334 -142 -422c-30 -45 -62 -68 -92 -73c-108 -21 -128 115 -120 191c-73 -42 -176 -38 -189 60c-6 50 18 102 60 128c16 10 32 15 48 14c15 -2 28 -9 35 -22c5 -9 13 -30 -1 -28c-15 3 -11 20 -12 24c-4 9 -14 13 -23 14
c-13 1 -27 -3 -41 -11c-38 -25 -60 -72 -54 -117c12 -97 112 -86 179 -45c8 68 75 345 151 356c40 5 44 -45 40 -72c-7 -64 -45 -140 -81 -192c-28 -40 -62 -76 -100 -101c-8 -68 5 -201 104 -183c26 4 53 25 74 66c28 54 85 289 117 417c6 24 13 56 22 79c7 20 30 11 49 7z
M298 512c-61 -18 -125 -269 -134 -331c35 24 62 58 84 97c35 61 54 131 59 178c1 7 7 61 -9 56zM563 575c133 -4 173 -123 157 -253c-19 -152 -116 -319 -234 -331c-113 -10 -93 164 24 206c12 5 31 9 43 9c10 0 32 -4 23 -15c-10 -12 -22 1 -26 2c-11 2 -29 -5 -37 -8
c-102 -38 -124 -186 -29 -177c88 8 170 180 187 331c13 117 -14 220 -108 223c-60 5 -204 -17 -203 47c0 34 46 71 49 49c2 -13 -13 -12 -20 -14c-11 -13 -17 -24 -17 -33c-4 -47 145 -35 191 -36z" />
    <glyph glyph-name="D.03" unicode="&#xe008;" horiz-adv-x="518" 
d="M389 576c105 3 135 -128 112 -268c-25 -151 -112 -312 -234 -323c-55 -5 -78 35 -74 81c5 48 40 104 100 125c12 4 31 9 43 8c10 0 32 -4 23 -15c-10 -12 -22 1 -26 2c-11 2 -29 -4 -37 -7c-51 -19 -83 -65 -89 -106c-7 -41 11 -76 59 -71c89 7 162 173 185 321
c19 126 2 239 -73 235c-24 -1 -53 -12 -86 -35c42 -56 18 -170 -34 -281c-62 -135 -166 -263 -243 -272c-139 -17 52 306 73 342c46 76 108 162 179 215c-12 21 -40 24 -65 21c-54 -6 -123 -45 -162 -92c-6 -7 -16 -19 -18 -28c-1 -4 6 -20 -9 -24c-8 -3 -10 3 -9 11
c2 18 15 35 26 49c43 50 120 93 180 97c27 2 52 -4 72 -24c37 26 74 38 107 39zM208 243c51 108 84 220 68 268c-83 -61 -122 -120 -175 -209c-15 -26 -190 -325 -96 -317c57 5 143 129 203 258z" />
    <glyph glyph-name="D.04" unicode="&#xe009;" horiz-adv-x="746" 
d="M765 212c6 -5 10 -5 6 -11l-8 -13c-31 -50 -70 -52 -122 -42c-43 -98 -113 -177 -193 -184c-55 -6 -78 32 -75 78c5 60 54 117 111 133c41 12 77 3 116 -6c16 46 27 95 33 142c13 117 -14 220 -108 223h-15c-5 -16 -11 -32 -16 -48c-41 -123 -78 -249 -121 -371
c-32 -93 -82 -194 -161 -192c-49 2 -80 36 -96 81c-26 -21 -53 -36 -88 -36c-51 0 -70 35 -68 69c3 31 23 61 54 61c11 0 33 -3 24 -14c-9 -12 -22 0 -26 0c-22 4 -41 -28 -39 -58c1 -24 16 -46 54 -46c35 0 59 18 85 39c-8 27 -10 59 -9 87c3 61 34 174 111 167
c30 -2 41 -18 40 -42c-1 -67 -89 -191 -128 -218c14 -44 42 -71 86 -73c59 -1 94 81 118 165c37 130 73 252 116 382c5 14 10 31 16 46c-65 1 -140 2 -140 48c0 34 46 71 50 49c2 -13 -14 -12 -20 -14c-12 -13 -17 -24 -18 -33c-4 -47 145 -35 192 -36
c125 -4 168 -112 158 -234c-4 -51 -18 -104 -38 -154c44 -8 81 -6 108 37zM122 26c29 25 96 147 102 205c1 16 -3 26 -15 27c-64 5 -91 -104 -94 -155c-1 -25 1 -53 7 -77zM446 -22c58 5 113 82 149 177c-35 9 -71 18 -108 7c-48 -14 -97 -65 -101 -118
c-2 -39 15 -71 60 -66z" />
    <glyph glyph-name="E.01" unicode="&#xe00a;" horiz-adv-x="565" 
d="M471 293c44 0 72 -47 71 -89c-2 -53 -35 -106 -81 -146c-46 -41 -103 -69 -153 -75c-2 -33 2 -80 20 -104c2 -3 18 -8 12 -22c-3 -7 -9 -5 -14 0c-4 4 -7 9 -9 14c-17 38 -24 72 -21 111c-89 -5 -122 49 -116 114c8 82 78 181 178 200c-37 16 -61 59 -56 107
c-92 11 -260 73 -320 4c-5 -6 -14 -19 -13 -27c1 -4 13 -17 1 -26c-11 -9 -15 13 -15 23c0 16 7 27 17 39c64 74 230 11 330 1c16 92 108 137 173 137c39 -1 69 -17 66 -50c-3 -48 -80 -116 -195 -106c-4 -40 11 -82 62 -104c-94 -20 -176 -137 -179 -217
c-2 -42 18 -74 69 -76c4 30 17 84 38 138c31 78 77 154 135 154zM486 539c-45 1 -122 -50 -137 -127c99 -6 177 63 172 98c-2 19 -16 28 -35 29zM528 198c3 26 -8 70 -42 68c-52 -5 -102 -78 -135 -150c-21 -45 -36 -88 -41 -115c47 2 101 29 144 68c40 36 70 83 74 129z
" />
    <glyph glyph-name="F.01" unicode="&#xe00b;" horiz-adv-x="424" 
d="M496 570c37 -1 64 -18 60 -50c-5 -48 -85 -116 -199 -106l-20 2c-18 -58 -27 -126 -46 -189c-3 -10 -6 -20 -10 -30h49c6 19 16 48 41 47c15 -1 29 -17 25 -32c-4 -22 -32 -26 -50 -26c-1 -4 -2 -7 -3 -11c-6 -19 -17 -42 -36 -52c-5 -2 -11 -2 -14 1c17 8 26 35 30 51
c1 4 3 8 3 11h-49c-23 -63 -56 -131 -95 -176c-32 -39 -66 -55 -96 -55c-96 1 -111 119 -105 198c0 10 2 56 17 56c6 0 9 -8 9 -13c-1 -7 -9 -13 -10 -16c-3 -6 -4 -22 -4 -28c-6 -73 6 -179 90 -180c26 -1 54 15 78 50c28 42 49 104 68 164h-46l8 11h41c4 12 7 23 11 34
c18 63 35 130 62 189c-93 14 -251 71 -312 3c-6 -6 -16 -19 -15 -27c1 -4 12 -17 0 -26s-14 13 -14 23c1 16 8 27 19 39c67 74 228 12 328 1c35 72 104 139 185 137zM374 235c-15 0 -22 -26 -26 -38c14 -1 36 1 40 17c3 9 -4 21 -14 21zM359 428c100 -6 181 63 177 99
c-1 18 -13 27 -30 28c-70 5 -139 -58 -164 -125z" />
    <glyph glyph-name="F.02" unicode="&#xe00c;" horiz-adv-x="559" 
d="M495 423l-19 2c-10 -48 -30 -147 -61 -247c16 2 32 4 48 7c3 20 9 50 35 52c15 1 30 -13 29 -29c-2 -21 -29 -30 -47 -32c0 -4 -1 -7 -1 -11c-4 -20 -11 -44 -29 -56c-4 -4 -11 -4 -14 -2c16 10 21 38 23 55c1 4 2 8 2 11c-17 -2 -33 -5 -49 -7
c-34 -104 -80 -205 -142 -243c-16 -10 -32 -16 -48 -17c-47 -4 -87 30 -105 83c-7 -5 -14 -10 -22 -15c-52 -32 -134 -27 -132 48c1 32 23 64 55 64c10 -1 32 -5 23 -16c-10 -11 -22 1 -26 2c-19 3 -37 -22 -40 -49c-5 -68 71 -66 117 -35c7 5 14 11 21 16c-1 5 -2 6 -2 11
c-5 24 -6 50 -4 76s7 51 15 74c14 43 48 96 99 91c42 -5 41 -47 32 -77c-18 -65 -76 -139 -126 -182c13 -43 51 -80 90 -74c13 2 25 7 37 18c47 43 80 128 108 218c-8 -1 -17 -2 -25 -3c-9 -1 -15 -2 -18 -3l6 13c2 0 7 1 14 2l27 3c28 95 51 195 79 260
c-86 20 -174 48 -255 37c-63 -8 -93 -46 -94 -80c-5 -91 153 -55 150 -6c-1 5 -12 18 1 26c12 8 14 -14 13 -24c-9 -74 -176 -97 -177 1c0 40 33 87 107 97c85 11 173 -19 261 -38c31 74 105 136 185 133c131 -5 33 -171 -141 -154zM646 562c-70 7 -143 -50 -165 -123l17 -2
c141 -14 230 116 148 125zM123 17v-4c34 29 85 124 98 170c7 24 19 57 -5 60c-42 4 -71 -49 -83 -82c-7 -22 -12 -46 -14 -71s-1 -50 4 -73zM502 228c-15 -2 -19 -28 -21 -41c13 1 36 6 38 23c1 9 -8 19 -17 18z" />
    <glyph glyph-name="G.01" unicode="&#xe00d;" horiz-adv-x="548" 
d="M567 212c11 -6 11 -3 7 -10c-16 -31 -32 -61 -51 -90c-35 -56 -81 -113 -127 -120c-6 -25 -13 -50 -21 -75c-19 -56 -65 -132 -136 -133c-40 -1 -75 24 -73 68c2 57 74 98 113 115c28 12 55 21 74 28c6 24 14 55 22 89c-38 -36 -93 -57 -141 -55c-74 3 -98 54 -99 111
c-1 27 4 56 10 81c-55 -10 -109 -13 -156 -4c-10 2 -33 13 -21 25c10 11 22 -7 26 -9c34 -15 92 -11 156 4c45 151 180 331 328 323c32 -2 63 -18 71 -52c13 -55 -50 -119 -118 -167c-60 -43 -142 -82 -225 -105c-9 -27 -20 -64 -21 -99c-2 -48 14 -90 74 -89
c41 0 88 24 122 57c5 21 11 43 17 63c10 37 33 122 87 106c36 -10 -24 -84 -40 -107c-16 -55 -32 -112 -45 -163c37 6 79 60 114 114c19 31 37 65 53 94zM481 263c-11 3 -22 -50 -26 -61c7 10 41 57 26 61zM480 545c-107 6 -216 -160 -267 -290c75 24 149 60 192 94
c62 50 122 116 113 168c-3 20 -21 27 -38 28zM333 -73c5 15 12 41 16 55c-18 -7 -43 -15 -68 -26c-35 -15 -99 -53 -101 -105c-1 -34 20 -51 53 -51c65 1 85 78 100 127z" />
    <glyph glyph-name="H.01" unicode="&#xe00e;" horiz-adv-x="730" 
d="M750 212c7 -6 10 -5 6 -11c-31 -51 -103 -201 -163 -201c-9 0 -21 4 -29 14c-34 40 -10 154 17 256c-31 -5 -71 -12 -81 -14c-16 -3 -33 -7 -50 -12c-27 -85 -58 -168 -94 -221c-30 -44 -63 -67 -93 -72c-108 -18 -118 138 -109 214c-74 -40 -177 -34 -187 65
c-6 49 19 101 62 127c16 9 33 14 48 12c16 -2 28 -9 35 -22c5 -9 13 -31 -1 -28c-15 3 -11 19 -12 24c-3 9 -14 13 -23 14c-13 2 -27 -2 -41 -10c-39 -24 -62 -71 -57 -116c11 -97 111 -89 178 -48c10 67 83 343 160 352c39 4 42 -46 38 -73c-9 -64 -48 -139 -86 -190
c-29 -40 -63 -75 -101 -99c-10 -68 -7 -221 93 -205c26 4 53 24 75 64c16 30 40 108 64 192c-36 -17 -64 -41 -75 -72c-2 -7 -6 -22 -2 -29c2 -4 18 -11 10 -24c-7 -13 -18 7 -22 16c-5 15 -3 27 2 42c12 36 48 63 91 82c27 96 53 196 66 237c3 8 20 64 21 68
c8 19 31 10 50 6c-1 -1 -19 -60 -22 -73c-18 -59 -39 -139 -64 -219c17 4 34 8 50 11c10 2 50 9 80 14c9 34 18 64 23 85c13 49 50 198 102 198c19 0 30 -11 33 -25c14 -60 -38 -232 -112 -265c-22 -82 -47 -156 -44 -243c0 -16 5 -20 11 -20c44 0 133 165 153 199zM720 546
c-24 0 -79 -225 -87 -255c56 24 113 200 99 243c-2 7 -7 12 -12 12zM310 519c-61 -17 -131 -266 -141 -328c35 23 63 57 86 95c36 60 56 130 63 177c1 7 8 61 -8 56z" />
    <glyph glyph-name="H.02" unicode="&#xe00f;" horiz-adv-x="365" 
d="M312 373c-17 -48 -41 -152 -49 -258c-11 -151 12 -306 138 -304c36 0 70 17 71 58c0 27 -18 44 -43 44c-12 0 -25 -7 -27 -19c-1 -5 7 -20 -8 -25c-13 -5 -9 17 -6 27c7 17 22 29 42 29c32 0 56 -22 54 -58c-3 -50 -44 -73 -87 -73c-144 -1 -182 163 -178 318
c2 88 18 173 35 223c-63 -55 -87 -73 -148 -128c-11 -49 -53 -210 -114 -210c-22 0 -42 14 -41 46c2 45 55 112 115 160c34 148 59 262 82 361c-49 -1 -87 10 -87 49c0 33 46 71 50 49c2 -13 -14 -13 -20 -15c-12 -13 -17 -24 -18 -33c-3 -42 61 -42 130 -33
c-27 -109 -57 -222 -91 -347c62 59 89 78 151 128c29 74 63 142 121 196c31 28 73 48 101 45c14 -1 19 -9 18 -20c-5 -50 -143 -178 -191 -210zM411 556c-40 -41 -67 -103 -89 -158c37 31 163 151 165 184c0 5 -2 8 -9 8c-17 1 -47 -13 -67 -34zM-7 14c42 0 63 131 70 164
c-53 -40 -90 -101 -93 -136c-1 -15 7 -28 23 -28z" />
    <glyph glyph-name="H.03" unicode="&#xe010;" horiz-adv-x="737" 
d="M756 212c7 -7 10 -6 7 -11c-31 -52 -103 -201 -163 -202c-38 0 -46 49 -46 78c1 48 13 112 28 176c-41 -7 -90 -16 -132 -17c-27 -85 -58 -166 -91 -214c-30 -44 -63 -66 -93 -71c-108 -18 -118 138 -109 214c-74 -40 -177 -34 -187 64c-6 50 19 101 62 127
c16 10 33 14 48 13c16 -2 28 -10 35 -23c5 -9 13 -30 -1 -28c-16 3 -11 20 -12 24c-4 10 -14 14 -23 15c-13 1 -27 -3 -41 -11c-39 -23 -62 -71 -57 -116c11 -97 111 -88 178 -48c10 68 83 344 159 352c40 5 43 -45 39 -72c-9 -64 -48 -139 -86 -191
c-29 -39 -63 -75 -102 -99c-9 -67 -6 -220 94 -205c26 4 53 24 75 65c16 30 42 115 69 207c-27 6 -44 19 -44 46c0 34 46 71 49 49c2 -13 -13 -13 -20 -15c-11 -12 -17 -23 -17 -32c-2 -21 12 -31 35 -36c30 107 60 220 73 261c2 8 13 45 15 49c7 20 31 10 49 6
c0 -1 -12 -41 -16 -54c-19 -65 -46 -167 -77 -264c41 1 90 10 131 16c17 69 39 138 55 189c2 8 18 62 20 66c8 19 31 10 49 6c0 -2 -17 -58 -21 -71c-15 -52 -36 -118 -55 -184c11 1 20 1 26 -1c8 -3 13 -8 15 -17c2 -8 -1 -15 -3 -21c-4 -6 -8 -11 -15 -16
c-8 -6 -28 -15 -27 -1c1 15 18 11 22 13c2 1 4 3 6 5c4 4 7 12 6 18c-1 4 -4 7 -8 8c-6 2 -14 1 -25 1c-18 -68 -34 -136 -37 -190c-1 -11 -7 -57 10 -57c45 0 133 165 153 199zM313 519c-61 -17 -131 -266 -141 -329c35 24 63 58 86 95c36 61 56 131 63 178c1 6 8 60 -8 56
z" />
    <glyph glyph-name="K.01" unicode="&#xe011;" horiz-adv-x="699" 
d="M542 552c-1 -2 -11 -41 -15 -55c-35 -126 -92 -388 -162 -494c-29 -45 -61 -68 -91 -74c-108 -20 -128 116 -121 192c-73 -42 -175 -38 -188 60c-6 41 10 85 40 113v0c1 0 1 1 1 1h1c0 1 1 2 2 3h1l3 3c0 0 1 0 1 1c1 0 2 1 3 2v0c1 1 2 2 4 3v0c1 1 3 2 4 2
c15 10 32 15 47 14c16 -2 28 -9 36 -22c5 -9 13 -30 -1 -28c-1 1 -3 1 -4 1c-10 5 -7 19 -8 23c-3 8 -12 12 -20 14h-4c-12 1 -26 -3 -40 -12c-10 -6 -18 -13 -26 -22v0c-22 -25 -33 -61 -28 -95c12 -96 112 -86 178 -44c9 68 76 345 152 356c39 5 44 -45 40 -72
c-7 -64 -45 -140 -82 -192c-27 -40 -61 -77 -99 -101c-8 -68 5 -201 104 -183c26 4 53 25 74 66c35 66 111 404 135 483c2 7 10 38 13 47c-66 -7 -126 -2 -126 47c0 33 47 71 50 49c2 -13 -13 -13 -20 -15c-11 -13 -17 -24 -17 -33c-3 -40 54 -42 119 -35c19 3 20 2 44 -3z
M302 478c-61 -18 -125 -269 -134 -331c35 24 62 58 84 97c34 61 53 131 59 178c1 7 7 61 -9 56zM828 591c47 7 68 -21 70 -54c-15 0 -11 -2 -14 10c-5 21 -21 37 -54 31c-35 -5 -52 -60 -88 -109c-50 -70 -123 -141 -236 -182c133 -20 71 -312 149 -409
c18 -21 45 -32 70 -31c33 2 62 22 63 62c0 25 -12 48 -34 49c-4 0 -7 -1 -11 -3c-4 -3 -11 -18 -24 -11c-12 7 7 19 16 22c6 3 11 4 16 4c33 0 50 -29 49 -61c-1 -56 -43 -79 -89 -77c-33 1 -66 14 -88 36c-103 102 -42 387 -141 413c0 12 -3 12 7 15
c115 37 167 130 218 199c37 52 81 89 121 96z" />
    <glyph glyph-name="L.01" unicode="&#xe012;" horiz-adv-x="417" 
d="M499 527c33 1 97 -12 91 -56c-7 -49 -104 -107 -219 -71l-19 6c-52 -118 -127 -316 -235 -389c79 -63 160 -164 235 -175c99 -15 124 121 43 131c-8 1 -16 -1 -23 -6c-2 -2 -5 -5 -6 -9c-1 -5 4 -21 -11 -24c-14 -3 -7 19 -2 28c2 5 6 9 10 12c10 10 23 13 35 11
c103 -14 59 -208 -73 -172c-88 24 -164 128 -231 191c-21 -9 -40 -12 -58 -10c-38 6 -59 32 -56 52c7 46 95 9 119 -16c79 61 157 290 224 387c-80 37 -161 81 -243 87c-63 4 -100 -27 -108 -60c-23 -88 139 -84 145 -35c1 4 -7 20 7 25s11 -17 7 -27
c-22 -70 -191 -60 -172 36c8 40 49 79 124 74c85 -5 167 -51 249 -86c37 55 101 94 167 96zM36 11c13 -2 28 0 42 7c-10 15 -79 54 -84 25c-1 -11 16 -28 42 -32zM571 477c2 30 -45 35 -67 35c-56 -2 -114 -39 -143 -93l16 -5c103 -31 192 23 194 63z" />
    <glyph glyph-name="M.01" unicode="&#xe013;" horiz-adv-x="836" 
d="M896 -81c33 0 57 -23 55 -59c-3 -50 -44 -73 -87 -73c-226 -1 -190 403 -144 541c-62 -54 -87 -69 -147 -125c-10 -43 -47 -213 -97 -213c-15 0 -21 18 -19 44c3 44 28 111 74 160c29 127 61 246 109 349c-117 -49 -133 -190 -186 -314c-31 -72 -83 -161 -137 -217
c-38 -38 -74 -54 -104 -54c-110 1 -93 156 -71 230c-80 -27 -180 -4 -173 95c3 50 37 97 83 114c18 7 35 9 50 4c15 -4 26 -13 31 -28c3 -10 7 -32 -7 -27s-7 21 -7 26c-2 10 -11 15 -20 18c-13 4 -27 2 -42 -3c-43 -17 -74 -59 -77 -105c-6 -97 94 -106 167 -78
c22 65 141 324 218 320c40 -3 34 -53 26 -79c-20 -61 -72 -128 -118 -172c-35 -34 -75 -63 -117 -80c-21 -65 -44 -217 56 -219c27 0 57 15 85 51c42 52 79 138 109 209c56 129 106 281 240 327c15 5 32 9 47 13c-49 -121 -85 -220 -114 -347c62 59 89 78 151 128
c28 74 63 142 120 196c31 28 74 48 101 45c49 -5 -6 -76 -68 -140c-39 -39 -82 -75 -104 -90c-43 -116 -125 -566 88 -562c37 1 70 17 71 58c1 27 -17 45 -42 44c-12 0 -25 -7 -27 -19c-1 -5 6 -20 -8 -25s-10 17 -6 27c6 18 22 30 41 30zM878 550
c-40 -42 -67 -104 -89 -158c16 13 50 44 83 77c53 54 103 113 73 114c-17 1 -47 -13 -67 -33zM357 509c-63 -6 -175 -239 -195 -299c38 17 72 46 100 79c46 53 79 118 93 164c2 6 19 58 2 56zM480 2c31 0 39 117 49 165c-23 -19 -54 -93 -59 -135c-2 -18 1 -30 10 -30z" />
    <glyph glyph-name="N.01" unicode="&#xe014;" horiz-adv-x="768" 
d="M993 648c76 0 93 -81 48 -107c-8 -5 -29 -13 -27 1c2 15 19 11 23 12c24 9 27 80 -41 81c-152 3 -254 -330 -303 -461c-16 -41 -63 -185 -119 -183c-43 2 -40 84 -36 116c13 114 72 307 101 398c2 6 8 27 12 40c-125 -45 -140 -191 -195 -317
c-35 -81 -137 -273 -241 -272c-110 2 -93 157 -71 230c-79 -27 -179 -3 -173 96c3 50 37 96 84 114c17 7 34 8 49 4s26 -14 31 -28c3 -10 7 -32 -7 -27s-6 21 -7 25c-2 10 -11 16 -20 19c-12 3 -27 2 -42 -4c-43 -16 -73 -59 -76 -104c-7 -98 93 -106 167 -78
c21 65 140 324 217 319c40 -2 34 -52 26 -78c-20 -62 -72 -129 -118 -173c-35 -34 -75 -63 -117 -80c-21 -65 -44 -216 56 -218c93 -2 165 190 195 260c57 134 109 292 255 331c11 4 26 -1 39 -4c0 -2 -12 -41 -16 -54c-29 -99 -93 -295 -110 -411c-2 -15 -12 -85 5 -84
c30 1 61 78 98 178c51 135 155 458 313 459zM360 508c-64 -6 -176 -240 -196 -299c38 16 72 45 101 78c45 54 78 119 92 164c2 6 19 58 3 57z" />
    <glyph glyph-name="O.01" unicode="&#xe015;" horiz-adv-x="639" 
d="M659 212c7 -5 11 -3 7 -10c-44 -71 -121 -152 -206 -106c-63 -73 -135 -126 -197 -125c-58 1 -95 48 -90 131c7 105 77 245 117 293c-63 8 -152 38 -222 35c-32 -2 -60 -11 -79 -33c-5 -6 -14 -19 -13 -27c1 -4 13 -17 1 -26s-15 13 -15 23c0 16 7 27 17 39
c25 29 63 37 107 36c70 -2 153 -28 214 -34c49 58 142 137 230 132c39 -2 52 -19 47 -40c23 -12 40 -37 40 -77c0 -83 -66 -217 -150 -318c81 -40 152 40 192 107zM531 526c-82 5 -131 -73 -176 -124c23 -1 46 1 68 7c10 24 28 50 50 69c25 21 56 34 89 27
c1 11 -8 20 -31 21zM558 492c-29 7 -56 -5 -78 -25c-17 -15 -32 -35 -41 -54c26 8 50 19 70 32c24 16 42 33 49 47zM284 -5c50 -3 110 43 165 108c-70 49 -59 221 -32 290c-23 -5 -48 -6 -73 -4c-33 -40 -110 -185 -121 -288c-8 -67 19 -103 61 -106zM457 112
c80 99 147 236 147 311c0 34 -13 55 -31 64c-10 -18 -30 -38 -57 -55c-23 -15 -52 -28 -85 -36c-27 -63 -41 -237 26 -284z" />
    <glyph glyph-name="P.01" unicode="&#xe016;" horiz-adv-x="685" 
d="M573 573c84 -2 159 -26 159 -121c0 -83 -106 -218 -193 -218c-88 0 -63 100 -17 124c13 8 28 9 41 2c10 -5 28 -18 15 -24c-14 -6 -20 10 -23 13c-9 6 -19 4 -28 -1c-34 -19 -60 -98 12 -98c80 0 147 117 147 192c0 88 -36 117 -114 119c-10 0 -23 0 -37 -1
c-2 -4 -5 -18 -8 -30c-35 -126 -93 -388 -162 -494c-29 -45 -61 -68 -91 -74c-108 -20 -129 115 -121 192c-73 -42 -176 -38 -188 60c-8 61 41 148 107 142c16 -2 28 -9 36 -22c5 -9 13 -30 -1 -28c-15 3 -11 19 -13 24c-3 9 -13 13 -23 14c-58 5 -102 -75 -95 -129
c13 -97 112 -86 179 -44c8 68 75 345 152 356c39 5 43 -45 40 -72c-8 -64 -45 -140 -82 -192c-28 -40 -62 -77 -99 -102c-8 -67 5 -200 104 -183c26 5 52 26 74 67c34 66 111 404 134 483c3 8 6 23 8 26c0 2 1 3 2 5c-59 4 -119 8 -119 49c0 34 46 71 50 49
c2 -13 -14 -13 -20 -15c-12 -13 -17 -24 -18 -33c-4 -46 145 -34 192 -36zM302 511c-61 -19 -126 -269 -134 -331c34 23 62 58 83 96c35 62 54 132 60 179c0 7 6 61 -9 56z" />
    <glyph glyph-name="P.02" unicode="&#xe017;" horiz-adv-x="462" 
d="M508 467c1 -104 -95 -238 -207 -235c-14 0 -27 4 -39 12c7 7 10 10 13 11c2 0 16 -6 29 -6c82 1 153 106 158 194c5 84 -52 120 -115 119c-36 -1 -75 -14 -105 -38c108 -110 -54 -550 -189 -588s4 311 19 350c34 83 80 175 144 240c-16 19 -43 18 -68 11
c-52 -15 -115 -65 -146 -117c-5 -7 -13 -21 -13 -30c-1 -4 8 -19 -5 -26c-8 -3 -10 3 -11 10c-1 19 9 37 18 53c35 56 104 110 163 123c24 6 56 4 76 -14c40 31 95 51 145 51c70 1 131 -33 133 -120zM41 -50c102 24 238 462 185 562v-1c-71 -73 -101 -137 -140 -233
c-11 -28 -137 -351 -45 -328z" />
    <glyph glyph-name="R.01" unicode="&#xe018;" horiz-adv-x="679" 
d="M743 -59c34 1 51 -32 48 -65c-3 -50 -39 -71 -80 -72c-40 -1 -84 17 -108 48c-82 103 -40 342 -112 393c-6 2 -11 5 -16 8l11 12c82 -39 190 92 193 192c2 55 -29 101 -115 104c-9 0 -21 0 -34 -1c-1 -4 -5 -18 -8 -30c-34 -126 -92 -388 -161 -494
c-30 -45 -62 -68 -92 -74c-108 -20 -128 116 -120 192c-73 -42 -176 -38 -189 60c-6 50 18 102 60 128c16 10 32 15 48 14c15 -2 28 -9 35 -22c5 -9 13 -30 -1 -28c-15 3 -11 19 -12 24c-4 9 -14 13 -23 14c-13 1 -27 -3 -41 -12c-38 -24 -60 -72 -54 -117
c12 -96 112 -86 179 -44c8 68 75 345 151 356c40 5 44 -45 40 -72c-7 -64 -45 -140 -81 -192c-28 -40 -62 -77 -100 -101c-8 -68 5 -201 104 -183c26 4 53 25 74 66c35 66 111 404 135 483c2 8 6 24 10 31c-61 4 -123 8 -123 49c0 34 46 71 50 49c2 -13 -14 -13 -20 -14
c-12 -13 -17 -24 -18 -33c-3 -47 145 -35 192 -36c123 -6 164 -57 160 -118c-5 -89 -107 -198 -190 -213c81 -65 44 -293 106 -385c17 -26 46 -39 73 -39c35 0 67 23 65 66c0 23 -13 44 -34 44c-3 0 -7 0 -10 -3c-4 -2 -11 -18 -24 -10c-13 7 7 19 16 22c6 2 11 3 16 3z
M297 511c-61 -18 -125 -269 -134 -331c35 24 62 58 84 97c35 61 54 131 59 178c1 7 7 61 -9 56z" />
    <glyph glyph-name="R.02" unicode="&#xe019;" horiz-adv-x="464" 
d="M530 -58c33 1 50 -32 48 -65c-4 -50 -40 -72 -81 -73c-95 -2 -132 68 -151 153c-24 112 -17 252 -69 289c-5 2 -11 4 -16 8l12 12c71 -34 162 60 186 151c23 85 -22 157 -116 154c-34 -1 -71 -13 -102 -37c53 -54 42 -186 0 -312c-43 -132 -119 -257 -188 -276
c-135 -38 3 311 19 350c34 83 80 175 144 239c-16 20 -44 18 -69 12c-52 -15 -114 -65 -146 -117c-4 -7 -12 -21 -13 -30c0 -4 9 -19 -5 -26c-7 -3 -10 2 -10 10c-2 18 9 37 18 53c35 56 104 110 162 123c24 6 55 4 77 -14c45 36 93 52 136 52c106 0 173 -91 134 -190
c-29 -76 -110 -152 -178 -164c59 -48 55 -185 73 -290c14 -75 39 -134 106 -134c35 0 66 22 65 66c-1 23 -13 43 -34 44c-4 0 -7 -1 -11 -3s-11 -18 -24 -10c-12 7 7 18 17 22c5 2 10 3 16 3zM195 223c38 122 57 250 31 298v0c-72 -73 -101 -137 -140 -233
c-11 -28 -138 -351 -46 -328c53 12 114 134 155 263z" />
    <glyph glyph-name="S.01" unicode="&#xe01a;" horiz-adv-x="419" 
d="M515 531c4 -58 -78 -152 -213 -194c22 -70 31 -129 30 -180c-5 -154 -102 -223 -189 -222c-72 1 -137 49 -137 136c0 56 26 111 70 121c15 4 29 2 41 -7c8 -6 22 -22 8 -25c-15 -2 -16 14 -19 17c-7 7 -18 7 -27 5c-36 -9 -59 -59 -59 -110c-1 -82 59 -122 121 -118
c71 4 146 67 140 218c-2 43 -10 93 -28 150c-198 -52 -285 43 -285 135c1 75 59 141 143 141c37 0 72 -16 97 -42c4 -5 7 -10 9 -15c3 -6 3 -12 -5 -12c-16 0 -13 16 -16 20c-13 23 -54 36 -84 37c-61 2 -111 -49 -115 -103c-6 -87 85 -189 252 -144c-7 31 -9 59 -7 84
c10 95 87 147 186 155c58 5 85 -16 87 -47zM297 352c124 36 210 126 207 177c-1 25 -25 41 -75 37c-91 -7 -137 -63 -141 -136c-2 -24 1 -51 9 -78z" />
    <glyph glyph-name="T.01" unicode="&#xe01b;" horiz-adv-x="500" 
d="M642 614c45 -2 63 -23 60 -49c-6 -49 -87 -116 -201 -105l-19 2c-28 -123 -98 -505 -254 -519c-48 -4 -88 30 -106 83c-27 -21 -54 -35 -90 -34c-50 2 -68 37 -65 70c3 31 24 61 56 61c10 -1 32 -5 23 -16c-10 -11 -22 1 -26 2c-23 4 -43 -28 -41 -58
c1 -24 16 -46 53 -47c35 0 60 16 86 37c-7 28 -8 59 -6 87c2 26 7 52 15 74c15 43 48 96 100 91c41 -5 40 -47 32 -77c-19 -64 -77 -139 -126 -181c12 -44 50 -80 90 -75c114 16 183 406 228 508c-86 20 -174 48 -256 37c-62 -8 -92 -46 -94 -80c-5 -91 153 -55 150 -6
c0 5 -11 18 2 26c12 8 13 -14 12 -24c-9 -74 -176 -97 -177 1c0 40 33 87 107 97c85 11 174 -19 261 -38c31 74 106 136 186 133zM124 127c-2 -24 -1 -53 5 -77c33 30 84 124 97 170c7 24 19 58 -5 60c-41 4 -71 -49 -83 -82c-7 -21 -12 -46 -14 -71zM682 567
c2 17 -7 29 -31 32c-70 7 -142 -50 -165 -123l18 -2c100 -10 173 53 178 93z" />
    <glyph glyph-name="U.01" unicode="&#xe01c;" horiz-adv-x="619" 
d="M638 212c7 -7 10 -6 7 -11c-31 -52 -103 -202 -163 -202c-38 0 -46 49 -46 78c1 35 7 77 16 123c-41 -64 -122 -174 -174 -173c-107 0 -5 287 8 343c22 85 33 170 -25 172c-43 2 -85 -23 -121 -65c23 -47 36 -127 18 -193c-9 -34 -37 -77 -77 -75c-26 1 -46 24 -45 63
c2 41 20 90 32 113c14 31 33 61 54 86c-19 36 -51 50 -80 48c-36 -3 -69 -31 -72 -73c-2 -18 4 -33 16 -38c4 -2 21 1 22 -14c1 -14 -19 -6 -28 1c-16 12 -23 31 -22 51c3 51 47 82 93 83c31 0 63 -13 84 -43c40 44 87 75 135 73c78 -3 74 -108 55 -203
c-8 -41 -85 -314 -39 -315c38 -1 143 143 173 191c19 79 44 162 63 222c2 8 10 33 11 36c8 20 31 11 50 7c-1 -2 -9 -29 -13 -42c-32 -109 -88 -276 -95 -385c-1 -12 -7 -58 10 -58c45 0 133 165 153 200zM125 283c13 47 18 146 2 179c-18 -23 -34 -50 -47 -77
c-9 -18 -26 -62 -30 -99c-3 -36 12 -61 31 -63c28 -2 39 40 44 60z" />
    <glyph glyph-name="Y.01" unicode="&#xe01d;" horiz-adv-x="608" 
d="M627 212c10 -6 10 -4 6 -11c-1 -3 -110 -215 -187 -227c-22 -85 -60 -206 -157 -208c-40 -1 -75 24 -73 68c2 57 74 98 113 115c28 12 55 21 74 28c11 42 25 101 41 156c-44 -64 -115 -156 -164 -156c-107 1 -4 288 9 343c22 86 32 170 -26 173c-43 2 -84 -24 -121 -66
c24 -47 37 -127 19 -193c-10 -34 -37 -77 -77 -75c-26 2 -47 25 -45 64c2 66 44 148 86 199c-20 35 -51 49 -80 47c-36 -2 -69 -30 -73 -72c-1 -18 4 -33 16 -39c4 -2 21 1 23 -14c1 -14 -20 -5 -28 1c-17 12 -24 32 -22 52c2 50 47 82 93 82c31 1 63 -12 83 -43
c40 45 88 76 135 74c79 -4 74 -109 56 -203c-8 -41 -85 -315 -40 -316c36 0 129 124 166 180c9 25 65 248 74 271c8 19 31 10 50 6c-9 -24 -67 -250 -75 -276c-20 -62 -38 -126 -53 -186c63 10 175 223 177 226zM128 233c13 48 17 146 2 179c-38 -47 -71 -115 -77 -176
c-4 -36 12 -60 31 -62c28 -3 38 40 44 59zM282 -218c77 2 98 116 117 182c-18 -7 -43 -15 -68 -26c-35 -15 -99 -53 -101 -105c-2 -34 20 -51 52 -51z" />
    <glyph glyph-name="W.01" unicode="&#xe01e;" horiz-adv-x="717" 
d="M926 653c37 0 73 -17 75 -61c0 -18 -8 -36 -25 -46c-9 -5 -30 -12 -28 2c3 15 19 10 24 12c10 3 17 19 15 36c-3 35 -33 46 -63 45c-217 -7 -299 -644 -431 -656c-68 -5 -76 76 -65 164c-43 -64 -112 -151 -159 -150c-107 0 -5 287 8 343c23 85 33 170 -25 172
c-43 2 -84 -23 -121 -65c24 -47 37 -127 19 -193c-10 -34 -37 -77 -78 -75c-26 1 -46 24 -45 63c3 67 44 148 87 199c-20 36 -51 50 -80 48c-37 -3 -70 -31 -73 -73c-1 -18 4 -33 16 -38c4 -2 21 1 22 -14c2 -14 -19 -6 -27 1c-17 12 -24 31 -23 51c3 51 47 82 93 83
c31 1 63 -13 84 -43c40 44 88 75 135 73c78 -3 74 -108 56 -203c-8 -41 -86 -314 -40 -315c33 -1 113 103 155 164c12 71 33 141 40 164c26 88 60 165 94 165c19 0 30 -11 33 -25c14 -60 -60 -181 -111 -265c-9 -32 -45 -215 9 -211c98 7 205 649 429 648zM521 346
c-13 -45 -23 -86 -27 -98c46 78 107 182 93 226c-2 6 -5 12 -10 12c-14 0 -38 -74 -56 -140zM117 255c13 47 17 146 2 179c-38 -48 -71 -116 -77 -176c-4 -36 12 -61 31 -63c27 -2 38 40 44 60z" />
    <glyph glyph-name="Z.01" unicode="&#xe01f;" horiz-adv-x="456" 
d="M476 212c6 -6 10 -5 6 -11c-11 -20 -68 -115 -110 -153c-33 -29 -46 -30 -78 -37c-49 -84 -183 -245 -293 -241c-22 0 -38 10 -39 31c-2 97 201 199 283 215c11 13 34 53 37 93c1 15 0 30 -7 44c-12 -9 -50 -31 -75 -30c-14 0 -22 11 -21 23c2 17 21 36 61 37
c13 0 26 -3 35 -8c87 68 170 359 91 358c-35 0 -76 -27 -115 -63c17 -50 19 -129 -7 -191c-14 -33 -47 -72 -86 -65c-26 4 -43 30 -37 69c11 65 63 141 111 186c-14 35 -45 56 -76 58c-66 4 -103 -82 -68 -104c4 -2 21 -1 21 -16c-1 -15 -20 -3 -28 4c-48 48 11 135 86 125
c31 -4 62 -24 79 -55c41 36 82 64 119 65c177 4 29 -312 -73 -381c20 -18 25 -44 24 -71c0 -25 -7 -50 -15 -68c26 5 35 7 63 32c45 41 111 154 112 154zM211 282c19 45 36 142 25 177c-45 -44 -84 -104 -99 -165c-10 -38 4 -61 23 -66c27 -6 43 35 51 54zM202 135
c17 1 52 23 59 29c-8 3 -21 5 -33 4c-26 -2 -36 -16 -35 -25c0 -4 3 -8 9 -8zM-3 -211c73 -1 199 157 238 212c-74 -15 -252 -110 -257 -194c0 -13 7 -18 19 -18z" />
    <glyph glyph-name="a.01" unicode="&#xe020;" horiz-adv-x="267" 
d="M286 212c9 -7 10 -5 6 -12c-28 -46 -105 -206 -152 -206c-27 0 -41 14 -46 35c-5 22 2 65 12 107c-22 -42 -48 -79 -70 -79c-17 0 -27 13 -34 32c-21 66 36 206 98 205c16 0 32 -8 49 -24c3 8 5 14 6 16c7 19 29 11 48 6c-21 -51 -83 -238 -76 -276c1 -8 4 -12 10 -12
c44 0 126 170 149 208zM42 69c16 0 53 67 79 120c7 24 16 48 24 72c-10 11 -20 16 -30 16c-47 -1 -85 -166 -80 -200c1 -5 4 -8 7 -8z" />
    <glyph glyph-name="b.01" unicode="&#xe021;" horiz-adv-x="265" 
d="M284 212c9 -7 10 -5 6 -12c-40 -65 -51 -79 -118 -100c-7 -2 -15 -4 -23 -6c-19 -44 -54 -78 -89 -78c-15 0 -34 8 -34 27c1 28 59 46 78 51c9 16 47 144 22 144c-22 -1 -70 -86 -90 -125c-4 -18 -9 -40 -13 -58c-6 -27 -22 -21 -49 -25c6 30 14 70 25 114
c11 50 29 128 42 178c13 49 50 198 102 198c28 0 36 -21 34 -43c-5 -74 -102 -234 -113 -247c-4 -17 -13 -56 -19 -79c23 45 55 99 86 99c68 0 38 -95 23 -143c6 1 13 3 19 5c58 18 73 37 111 100zM154 501c-24 0 -76 -215 -84 -244c5 7 94 167 97 222c0 8 -2 22 -13 22z
M48 30c17 0 40 27 51 51c-13 -3 -62 -20 -62 -41c0 -7 4 -10 11 -10z" />
    <glyph glyph-name="c.01" unicode="&#xe022;" horiz-adv-x="221" 
d="M240 212c7 -6 9 -6 6 -11c-50 -90 -139 -193 -212 -192c-37 1 -50 38 -47 86c2 43 18 93 39 134c23 41 52 72 82 71c19 0 37 -11 44 -30c3 -10 6 -32 -7 -27c-14 6 -4 22 -5 26c-1 9 -8 16 -17 16c-24 0 -46 -48 -54 -66c-18 -44 -46 -122 -48 -167c-1 -23 8 -31 20 -31
c67 -2 162 126 199 191z" />
    <glyph glyph-name="d.01" unicode="&#xe023;" horiz-adv-x="282" 
d="M301 212c7 -7 10 -6 7 -12c-32 -51 -96 -206 -156 -206c-10 0 -20 4 -29 14c-11 14 -16 36 -16 63c0 26 4 56 10 88c-26 -58 -63 -129 -94 -129c-17 1 -28 14 -34 33c-21 66 36 206 98 205c16 -1 32 -8 48 -24c14 54 30 107 43 150c17 53 43 107 74 107
c19 0 29 -11 33 -25c16 -60 -100 -251 -112 -265c-3 -10 -31 -125 -29 -184c0 -17 5 -22 11 -22c44 0 122 171 146 207zM219 384c-14 -48 -37 -134 -40 -147c6 8 106 189 96 232c-1 7 -7 12 -12 12c-17 0 -39 -82 -44 -97zM125 199c2 11 5 23 8 35c-11 12 -21 17 -31 17
c-47 -1 -85 -166 -80 -200c1 -5 4 -8 7 -8c20 0 71 103 96 156z" />
    <glyph glyph-name="e.01" unicode="&#xe024;" horiz-adv-x="218" 
d="M237 212c7 -6 10 -6 7 -11c-10 -20 -23 -39 -36 -56c-44 -61 -108 -124 -172 -123c-27 1 -48 20 -48 78c1 49 18 109 46 148c14 21 37 42 63 42c27 -1 43 -18 42 -38c-3 -38 -54 -51 -83 -56c-18 -44 -32 -98 -33 -130c-1 -24 8 -32 20 -32c51 -1 113 61 156 118
c14 19 27 39 38 60zM76 240c-5 -9 -11 -20 -16 -32c48 7 66 31 66 48c0 9 -7 16 -17 17c-13 0 -27 -23 -33 -33z" />
    <glyph glyph-name="f.01" unicode="&#xe025;" horiz-adv-x="176" 
d="M195 212c4 -4 11 -4 8 -9c-30 -50 -58 -68 -132 -85c-9 -2 -19 -4 -29 -7l2 -6c10 -35 17 -108 10 -169c-7 -55 -26 -100 -64 -98c-32 1 -32 44 -32 68c3 107 64 324 86 407c4 18 13 54 25 91c18 53 43 107 74 107c20 0 29 -11 33 -24c17 -61 -99 -252 -111 -266
c-9 -32 -17 -66 -25 -99c12 3 24 6 35 9c58 12 95 32 120 81zM111 394c-15 -48 -37 -133 -41 -145c6 8 106 188 97 230c-2 7 -8 13 -13 13c-16 0 -39 -83 -43 -98zM40 -60c8 59 3 130 -6 158c-4 -16 -54 -196 -47 -235c1 -7 4 -9 7 -9c27 0 40 39 46 86z" />
    <glyph glyph-name="g.01" unicode="&#xe026;" horiz-adv-x="265" 
d="M285 212c10 -6 10 -4 6 -11c-12 -22 -23 -44 -35 -66c-34 -58 -85 -131 -141 -140c-6 -25 -13 -50 -21 -74c-19 -56 -65 -132 -136 -134c-40 0 -75 24 -73 68c2 57 74 99 113 115c28 12 55 21 74 29c11 43 27 106 43 163c-25 -52 -56 -105 -83 -105c-18 0 -28 13 -34 32
c-21 66 36 206 98 205c17 0 34 -8 52 -28c3 9 6 16 7 20c8 20 31 11 50 6c-6 -15 -19 -53 -24 -69c-23 -70 -44 -146 -62 -215c45 7 93 75 126 132c13 23 27 49 40 72zM52 -69c5 15 12 40 16 54c-18 -7 -43 -14 -68 -25c-35 -15 -99 -53 -101 -106c-1 -33 20 -51 53 -50
c65 1 85 77 100 127zM38 69c20 0 72 105 96 157c4 11 7 21 11 31c-12 14 -24 20 -34 20c-47 0 -85 -166 -80 -199c1 -6 4 -9 7 -9z" />
    <glyph glyph-name="h.01" unicode="&#xe027;" horiz-adv-x="271" 
d="M290 212c10 -6 11 -4 7 -11c-21 -37 -84 -168 -129 -216c-10 -11 -31 -22 -50 -8c-14 10 -19 31 -18 49c2 66 52 206 48 232c0 4 -2 5 -4 4c-22 -1 -81 -100 -101 -136c-3 -16 -7 -34 -11 -49c-6 -28 -22 -22 -49 -25c6 29 13 65 23 109c12 50 38 158 51 207
s57 222 109 222c19 0 29 -11 33 -25c16 -60 -106 -274 -118 -288c-6 -20 -25 -97 -31 -117v-1c26 49 66 117 99 117c19 0 30 -11 35 -27c11 -39 -56 -230 -45 -261c4 -13 21 5 23 8c44 47 113 193 128 216zM176 570c-23 0 -81 -238 -90 -267c6 8 112 212 103 255
c-2 7 -7 12 -13 12z" />
    <glyph glyph-name="i.01" unicode="&#xe028;" horiz-adv-x="161" 
d="M59 268c-11 0 -18 10 -17 22c2 11 12 21 23 21s19 -10 17 -21c-2 -12 -12 -22 -23 -22zM180 212c8 -6 9 -5 6 -11c-2 -3 -18 -30 -20 -34c-23 -39 -81 -126 -119 -151c-6 -4 -13 -7 -21 -7c-20 0 -36 14 -41 36c-11 45 17 139 34 181c8 20 30 11 49 7
c-5 -12 -57 -160 -50 -201c1 -7 4 -12 10 -12c4 0 9 2 14 6c34 21 89 105 114 146c4 7 22 36 24 40z" />
    <glyph glyph-name="j.01" unicode="&#xe029;" horiz-adv-x="146" 
d="M165 212c10 -6 11 -3 7 -10c-17 -31 -18 -35 -37 -64c-35 -56 -81 -113 -127 -120c-6 -25 -13 -50 -21 -75c-19 -56 -65 -132 -136 -133c-40 -1 -75 24 -73 68c2 57 74 98 113 115c28 12 55 20 74 28c19 73 49 199 76 265c8 20 31 11 49 7c-28 -82 -55 -178 -78 -263
c37 6 79 60 114 114c19 30 22 38 39 68zM-55 -47c5 15 12 41 16 55c-17 -7 -43 -15 -67 -26c-36 -15 -100 -53 -102 -105c-1 -34 20 -52 53 -51c65 1 85 78 100 127zM81 328c-11 0 -18 9 -17 21c2 12 12 21 23 21s19 -9 17 -21s-12 -21 -23 -21z" />
    <glyph glyph-name="k.01" unicode="&#xe02a;" horiz-adv-x="270" 
d="M289 212c8 -7 10 -5 7 -11c-35 -59 -62 -121 -104 -175c-17 -22 -36 -30 -54 -29s-36 12 -51 29c-23 27 -37 69 -38 111c40 0 101 97 102 123c1 5 -1 10 -9 10c-24 0 -84 -102 -98 -130c-2 -9 -13 -55 -19 -85c-6 -28 -23 -21 -50 -25c6 30 15 70 25 114
c12 50 29 128 42 178c13 49 50 198 103 198c27 0 35 -21 34 -44c-5 -74 -102 -233 -113 -246c-3 -12 -9 -33 -13 -53c24 45 62 107 94 107c25 0 37 -19 37 -40c0 -39 -45 -107 -90 -107c1 -16 13 -75 37 -104c8 -10 17 -16 27 -16c8 0 17 5 25 16c42 55 72 119 106 179z
M155 501c-24 0 -75 -215 -84 -244c6 7 94 167 97 222c1 8 -2 22 -13 22z" />
    <glyph glyph-name="l.01" unicode="&#xe02b;" horiz-adv-x="169" 
d="M188 212c7 -7 10 -6 7 -12c-32 -51 -96 -205 -156 -206c-38 0 -45 51 -45 77c2 90 53 276 82 368c16 53 43 107 74 107c19 0 29 -11 33 -25c16 -60 -100 -251 -112 -265c-3 -11 -42 -170 -40 -229c0 -17 5 -22 11 -22c44 0 122 171 146 207zM117 429
c-14 -48 -37 -134 -41 -147c7 8 107 189 97 232c-2 7 -7 12 -13 12c-16 0 -38 -83 -43 -97z" />
    <glyph glyph-name="m.01" unicode="&#xe02c;" horiz-adv-x="388" 
d="M408 212c9 -7 10 -5 6 -11c-20 -37 -83 -169 -128 -217c-7 -7 -19 -15 -32 -14c-27 1 -37 32 -36 55c2 66 51 207 48 232c0 4 -2 5 -5 5c-25 -1 -101 -136 -106 -150c-1 0 -15 -53 -17 -60c-6 -28 -22 -21 -49 -24c3 17 55 206 52 224c0 4 -2 6 -5 6
c-21 -1 -79 -107 -100 -148c-6 -27 -13 -52 -20 -76c-8 -27 -24 -21 -50 -25c18 72 41 173 59 238c6 21 33 11 52 7c-12 -31 -22 -67 -31 -103c26 52 64 119 96 119c19 0 33 -11 37 -27c3 -14 -4 -52 -14 -91c25 50 67 123 102 123c19 0 30 -11 34 -26
c11 -40 -55 -231 -45 -262c4 -13 22 6 24 8c44 47 113 193 128 217z" />
    <glyph glyph-name="n.01" unicode="&#xe02d;" horiz-adv-x="265" 
d="M284 212c10 -7 10 -4 7 -11c-21 -37 -95 -189 -140 -237c-7 -8 -18 -15 -31 -15c-28 1 -38 32 -37 56c2 66 52 206 48 232c0 4 -2 4 -4 4c-20 -1 -70 -80 -94 -123c-5 -23 -11 -45 -17 -66c-8 -26 -24 -21 -50 -24c18 72 40 172 59 238c6 21 33 11 51 7
c-13 -36 -23 -76 -33 -117c25 46 60 99 89 99c19 0 30 -11 35 -27c11 -40 -56 -230 -46 -261c5 -13 22 5 24 8c44 47 124 213 139 237z" />
    <glyph glyph-name="o.01" unicode="&#xe02e;" horiz-adv-x="217" 
d="M236 212c7 -6 10 -6 7 -11c-22 -39 -63 -86 -109 -54c-18 -47 -59 -130 -116 -129c-23 1 -38 16 -45 40c-16 60 34 188 107 186c8 0 15 -2 21 -6c4 3 10 5 17 5c19 0 25 -17 27 -36c1 -19 -3 -38 -6 -46c36 -35 74 12 97 51zM26 32c44 -5 87 88 99 123
c-12 11 -22 28 -27 44c-3 10 -4 21 -2 28c-45 -4 -98 -129 -88 -174c2 -12 8 -20 18 -21zM131 170c2 4 4 21 4 35c-1 14 -4 26 -12 26c-14 0 -7 -24 -6 -30c4 -13 10 -25 14 -31z" />
    <glyph glyph-name="p.01" unicode="&#xe02f;" horiz-adv-x="265" 
d="M284 212c9 -7 10 -5 6 -12c-39 -65 -57 -99 -125 -120c-7 -2 -14 -5 -23 -6c-19 -44 -53 -78 -88 -78c-15 0 -35 7 -34 27c1 28 59 46 78 51c8 15 54 164 28 164c-22 -1 -74 -93 -92 -129c-6 -26 -12 -51 -16 -67c-24 -102 -47 -212 -93 -278c-13 -19 -32 -32 -48 -31
c-45 1 -27 66 -18 91c27 74 90 170 106 191l6 24c8 36 29 121 41 167c3 9 9 33 10 40c6 20 33 11 52 6c-4 -10 -12 -39 -16 -54c-4 -14 -9 -30 -13 -48c23 45 55 100 87 100c67 0 30 -115 15 -164c7 2 13 4 19 5c59 19 80 58 118 121zM-105 -240c26 39 59 207 62 222
c-12 -15 -62 -99 -85 -161c-5 -15 -23 -70 5 -72c6 -1 13 3 18 11zM42 10c17 0 40 27 51 51c-14 -3 -63 -21 -62 -41c0 -7 4 -10 11 -10z" />
    <glyph glyph-name="q.01" unicode="&#xe030;" horiz-adv-x="292" 
d="M312 212c8 -6 9 -5 5 -11c-43 -72 -74 -125 -161 -145c-9 -2 -19 -5 -29 -7l2 -7c10 -34 17 -108 10 -169c-7 -54 -26 -99 -64 -98c-32 1 -32 45 -31 68c3 64 24 174 47 266c-24 -48 -53 -94 -78 -94c-18 0 -28 13 -34 32c-22 66 36 206 98 205c15 0 31 -7 46 -22
c3 7 5 14 6 17c6 20 30 11 48 7c-5 -15 -16 -51 -21 -68c-11 -41 -21 -86 -31 -126c12 3 24 5 35 8c73 16 110 76 152 144zM19 27c17 0 58 77 84 132c4 13 7 25 10 36c2 6 5 16 8 25c-11 10 -20 15 -29 15c-48 -1 -86 -166 -80 -199c1 -6 3 -9 7 -9zM125 -122
c8 59 3 130 -6 158c-4 -16 -54 -196 -47 -235c1 -7 4 -9 7 -9c27 0 40 39 46 86z" />
    <glyph glyph-name="r.01" unicode="&#xe031;" horiz-adv-x="224" 
d="M243 212c7 -5 11 -5 7 -11c-3 -5 -6 -11 -11 -18c-30 -47 -98 -137 -138 -137c-87 0 -29 166 -13 208c-7 4 -16 10 -23 15c-14 -22 -26 -47 -40 -69c-2 -4 -6 0 -11 3l41 72c-11 9 -20 22 -25 34c-9 23 -4 45 26 45c26 0 30 -17 28 -34c-1 -11 -6 -23 -8 -28
c12 -14 38 -28 59 -36c-3 -11 -70 -200 -37 -200c34 0 101 87 132 133c6 10 11 18 13 23zM72 322c1 10 -1 20 -11 20c-9 0 -12 -9 -6 -22c2 -6 6 -13 12 -19c1 3 5 12 5 21z" />
    <glyph glyph-name="s.01" unicode="&#xe032;" horiz-adv-x="183" 
d="M202 212c6 -5 10 -5 6 -11c-7 -11 -15 -22 -25 -30c-23 -20 -47 -24 -78 -35c-1 -12 -1 -23 -3 -34c-6 -51 -30 -88 -87 -88c-46 0 -64 40 -37 70c22 24 67 42 82 47c2 46 -9 71 -9 114c-8 -15 -17 -30 -25 -45c-3 -4 -7 0 -12 3l40 71c3 12 10 22 23 22c8 0 12 -3 14 -6
l-12 -19c-3 -21 24 -86 25 -124c29 10 52 16 71 32c12 10 19 21 27 33zM58 107c1 4 1 9 2 13c-17 -6 -55 -22 -72 -43c-15 -17 -11 -46 16 -47c38 -2 51 42 54 77z" />
    <glyph glyph-name="t.01" unicode="&#xe033;" horiz-adv-x="174" 
d="M194 212c7 -6 10 -5 6 -11c-33 -50 -96 -158 -153 -160c-80 -3 -38 180 -7 285c-28 -4 -56 -9 -82 -9c-86 0 -107 65 -77 101c-1 -59 38 -90 83 -90c24 0 52 6 80 11c7 24 13 43 16 52c2 8 5 14 6 18c8 19 31 10 49 6c0 -1 -3 -10 -7 -23c-1 -6 -7 -24 -14 -48
c15 0 30 -2 43 -8c13 -5 23 -16 19 -29c-21 16 -43 21 -67 22c-29 -99 -77 -275 -39 -275c45 0 124 124 144 158z" />
    <glyph glyph-name="u.01" unicode="&#xe034;" horiz-adv-x="292" 
d="M312 212c8 -6 9 -5 5 -11c-1 -3 -17 -30 -19 -34c-24 -39 -77 -108 -115 -132c-8 -5 -16 -7 -24 -7c-32 2 -40 34 -41 63c0 11 1 22 3 30c-19 -24 -41 -46 -61 -59c-6 -4 -13 -6 -21 -6c-20 0 -35 14 -41 35c-11 45 11 109 27 152c7 20 29 10 48 6
c-5 -12 -49 -130 -42 -171c1 -7 4 -12 10 -12c4 0 9 2 14 6c23 14 48 44 70 74c7 29 18 59 26 81c8 19 30 10 49 6c-8 -17 -50 -133 -47 -177c1 -10 4 -16 10 -17c4 0 10 2 15 5c34 22 85 87 110 128c4 7 21 36 24 40z" />
    <glyph glyph-name="v.01" unicode="&#xe035;" horiz-adv-x="225" 
d="M244 212c7 -6 10 -6 7 -11c-22 -38 -60 -77 -105 -44c-13 -34 -68 -156 -112 -156c-27 0 -41 14 -46 35c-9 38 15 154 32 197c8 19 30 11 49 6c-15 -35 -53 -190 -48 -215c1 -8 4 -13 10 -13c41 0 95 123 106 153c-14 13 -21 33 -21 51c0 21 11 39 33 39
c14 0 18 -10 18 -23c0 -21 -12 -50 -16 -60c36 -36 70 2 93 41zM143 180c2 5 11 30 12 47c1 8 -1 15 -7 15c-8 0 -12 -9 -13 -19c-1 -16 3 -36 8 -43z" />
    <glyph glyph-name="w.01" unicode="&#xe036;" horiz-adv-x="354" 
d="M373 212c7 -6 10 -6 7 -11c-22 -38 -60 -76 -105 -44c-13 -34 -68 -155 -112 -155c-27 0 -41 14 -46 35c-3 14 -2 41 2 71c-16 -22 -53 -73 -83 -73c-20 0 -35 14 -40 36c-10 38 7 112 22 149c8 19 30 11 48 6c-13 -32 -43 -137 -38 -168c1 -7 5 -12 10 -12
c24 0 73 68 85 86c7 39 18 80 27 101c7 20 29 11 48 7c-15 -36 -53 -191 -48 -216c1 -8 4 -12 10 -12c41 0 95 123 106 152c-14 14 -22 36 -21 54c1 20 12 36 33 36c16 0 19 -12 18 -27c-2 -21 -13 -47 -16 -56c36 -36 70 2 93 41zM272 180c2 5 13 34 12 51c0 6 -2 11 -7 11
c-8 0 -12 -8 -13 -19c-1 -15 3 -35 8 -43z" />
    <glyph glyph-name="x.01" unicode="&#xe037;" horiz-adv-x="288" 
d="M307 212c9 -6 11 -4 7 -11c-22 -43 -121 -163 -160 -167c-28 -3 -44 10 -56 28c-7 11 -12 28 -15 47c-26 -25 -49 -47 -68 -61c-3 -3 -6 -6 -9 -7c-22 -12 -33 19 -8 16c10 -1 7 -2 15 4c19 16 43 40 67 64c-6 52 -5 110 -22 110c-9 0 -23 -19 -32 -34c-2 -4 -7 1 -11 3
c1 3 3 5 4 8c20 30 39 48 54 48c33 2 43 -45 48 -95c29 28 56 54 77 70c19 16 40 3 29 -8c-2 -2 -7 -3 -16 1c-1 1 -3 0 -6 -2c-21 -18 -52 -48 -83 -79c4 -53 6 -104 26 -102c34 4 130 115 154 158c2 4 4 7 5 9z" />
    <glyph glyph-name="y.01" unicode="&#xe038;" horiz-adv-x="270" 
d="M289 212c10 -6 11 -3 7 -11c-17 -30 -18 -34 -37 -63c-35 -56 -81 -113 -127 -120c-6 -25 -13 -51 -21 -75c-19 -56 -65 -132 -136 -133c-40 -1 -75 24 -73 68c2 57 74 98 113 115c28 11 55 20 74 28c6 25 14 57 23 90c-15 -18 -47 -55 -73 -55c-20 0 -35 14 -40 36
c-8 32 1 74 12 111l17 51c7 19 30 10 49 6c-2 -4 -13 -34 -21 -58c-13 -41 -29 -97 -25 -123c1 -7 5 -12 10 -12c22 0 66 54 78 70c10 39 21 86 36 122c8 20 31 11 49 7c-27 -75 -48 -159 -68 -236c37 6 79 60 113 114c20 30 23 38 40 68zM69 -47c5 15 12 41 16 55
c-18 -7 -43 -15 -68 -26c-35 -15 -99 -53 -101 -105c-1 -34 20 -52 53 -51c64 1 85 78 100 127z" />
    <glyph glyph-name="z.01" unicode="&#xe039;" horiz-adv-x="254" 
d="M273 212c10 -6 11 -4 7 -11c-20 -36 -41 -62 -71 -91c-26 -25 -56 -48 -85 -63c1 -86 -94 -217 -193 -211c-17 2 -40 9 -46 33c-13 51 99 132 203 178c5 27 2 52 -23 60c-49 -27 -72 28 -6 16c35 10 59 52 60 87c0 28 -14 40 -33 39c-29 -1 -46 -25 -60 -48
c-1 -2 -8 3 -10 4c20 37 50 70 95 69c28 -1 52 -18 51 -55c0 -36 -27 -76 -83 -102c26 -11 41 -29 44 -58c25 13 53 35 78 59c37 35 49 55 72 94zM-72 -146c49 0 132 103 157 178c-88 -36 -193 -115 -186 -159c3 -16 18 -19 29 -19z" />
    <glyph glyph-name="a.02" unicode="&#xe03a;" horiz-adv-x="265" 
d="M284 212c8 -7 9 -6 6 -12c-28 -47 -98 -183 -146 -183c-27 0 -40 14 -45 35c-5 20 -2 52 6 85c-20 -36 -44 -67 -67 -67c-18 0 -28 13 -34 32c-10 30 -6 68 8 101c-69 -69 -174 -169 -271 -185c-46 -7 -94 9 -101 61c-1 8 -1 15 1 21c3 10 12 30 21 18
c8 -12 -7 -21 -9 -25c-2 -3 -2 -9 -1 -16c7 -43 50 -53 87 -47c107 18 227 144 299 215c14 15 32 27 53 27c15 0 31 -7 48 -23c2 7 4 13 5 15c8 20 30 11 49 7c-19 -45 -68 -195 -62 -232c1 -7 5 -12 11 -12c43 0 118 146 142 185zM44 82c16 1 49 55 72 98c6 20 12 40 19 60
c-10 10 -20 15 -29 15c-48 0 -74 -130 -69 -164c1 -6 3 -9 7 -9z" />
    <glyph glyph-name="a.03" unicode="&#xe03b;" horiz-adv-x="454" 
d="M433 270c31 -1 67 -18 65 -54c-1 -10 -6 -32 -17 -22s2 22 3 26c6 26 -32 37 -51 38c-132 4 -226 -241 -289 -241c-27 0 -40 14 -46 35c-5 20 -1 52 6 85c-20 -36 -44 -67 -67 -67c-17 0 -27 13 -34 32c-21 66 26 170 87 170c16 -1 32 -8 49 -24c2 7 4 13 6 16
c7 20 29 11 48 7c-19 -46 -68 -194 -62 -232c1 -8 4 -12 10 -12c57 0 151 247 292 243zM43 82c17 1 49 55 72 98c6 20 13 39 20 59c-10 11 -20 15 -30 15c-47 0 -74 -130 -69 -163c1 -6 4 -9 7 -9z" />
    <glyph glyph-name="b.02" unicode="&#xe03c;" horiz-adv-x="267" 
d="M286 212c8 -7 10 -5 6 -12c-40 -65 -58 -99 -125 -120c-7 -2 -15 -4 -23 -6c-20 -44 -54 -78 -89 -78c-15 0 -34 8 -34 27c1 28 59 46 78 51c9 16 54 165 28 164c-21 -1 -70 -87 -89 -125c-5 -18 -11 -49 -16 -71c-7 -28 -23 -21 -50 -25c10 48 21 96 32 143
c-57 -76 -136 -171 -219 -198c-44 -14 -95 -7 -109 44c-2 8 -3 15 -3 21c1 10 8 31 18 21c10 -11 -3 -21 -4 -26c-2 -4 -1 -10 1 -16c14 -41 58 -44 93 -33c86 29 169 134 229 216c10 41 21 87 29 120c13 49 50 198 103 198c27 0 35 -21 34 -44c-6 -74 -102 -233 -113 -246
c-4 -14 -11 -43 -16 -65c23 45 55 98 86 98c67 0 31 -115 15 -163c7 1 13 3 19 5c59 18 80 58 119 120zM152 488c-24 0 -75 -215 -84 -244c6 7 94 167 97 222c1 8 -2 22 -13 22zM43 10c17 0 40 27 51 51c-13 -3 -62 -20 -62 -41c0 -7 4 -10 11 -10z" />
    <glyph glyph-name="b.03" unicode="&#xe03d;" horiz-adv-x="384" 
d="M387 358c36 -5 45 -43 41 -73c-15 -95 -196 -192 -284 -212c-19 -43 -53 -77 -88 -77c-15 0 -34 7 -34 27c1 28 59 46 78 50c8 16 54 165 28 164c-21 0 -70 -86 -90 -125c-4 -18 -11 -49 -16 -71c-6 -27 -22 -21 -49 -24c6 29 15 69 25 113c11 51 29 129 42 178
c13 50 50 199 102 199c28 0 36 -22 34 -44c-5 -74 -101 -234 -112 -246c-4 -15 -11 -43 -16 -66c23 46 55 99 86 99c67 -1 31 -116 15 -164c77 17 255 118 267 200c3 19 -2 59 -28 58c-4 0 -18 -11 -26 2c-8 12 15 13 25 12zM153 487c-24 0 -76 -215 -84 -244
c6 8 94 167 97 222c0 8 -2 22 -13 22zM44 10c17 0 40 27 51 51c-14 -4 -62 -21 -62 -41c0 -8 4 -10 11 -10z" />
    <glyph glyph-name="c.02" unicode="&#xe03e;" 
d="M241 212c6 -6 9 -5 6 -11c-15 -28 -34 -56 -54 -80c-43 -52 -98 -99 -153 -98c-28 0 -49 20 -48 77c0 38 10 82 27 118c-69 -69 -175 -171 -273 -186c-46 -7 -94 8 -100 61c-1 7 -1 15 0 20c3 10 13 30 21 19c9 -13 -6 -21 -8 -25s-2 -10 -1 -16c6 -44 50 -54 87 -48
c110 18 233 152 305 222c15 14 31 25 52 25c16 0 34 -11 40 -29c4 -10 7 -32 -6 -27c-15 5 -4 22 -5 27c-1 8 -9 15 -17 15c-35 0 -85 -145 -88 -210c-1 -23 8 -31 21 -31c45 -1 98 47 140 98c19 24 39 52 54 79z" />
    <glyph glyph-name="c.03" unicode="&#xe03f;" horiz-adv-x="254" 
d="M284 379c71 -103 -136 -359 -245 -357c-27 1 -48 20 -48 78c1 81 47 190 111 190c16 -1 33 -11 40 -30c3 -10 7 -32 -7 -27s-4 22 -4 27c-2 9 -9 16 -17 16c-35 -1 -85 -145 -88 -210c-1 -24 8 -30 20 -30c95 -2 290 244 230 335c-8 11 -21 21 -34 15
c-4 -2 -13 -17 -25 -8s9 18 19 20c19 5 37 -2 48 -19z" />
    <glyph glyph-name="c.04" unicode="&#xe040;" horiz-adv-x="398" 
d="M377 272c31 -1 67 -20 65 -56c-1 -10 -6 -32 -16 -22c-12 10 1 22 2 26c6 25 -32 40 -51 40c-127 4 -209 -240 -332 -239c-31 0 -54 22 -53 78c1 81 46 191 110 190c17 0 34 -11 40 -29c4 -10 7 -32 -6 -27c-15 5 -4 22 -5 27c-1 8 -9 15 -17 15c-35 0 -85 -145 -88 -210
c-1 -25 10 -33 26 -32c108 5 195 243 325 239z" />
    <glyph glyph-name="d.02" unicode="&#xe041;" horiz-adv-x="284" 
d="M304 212c7 -6 10 -6 6 -11c-31 -52 -96 -206 -155 -207c-37 0 -46 49 -45 77c0 26 5 61 12 99c-25 -54 -59 -114 -87 -114c-35 0 -40 53 -38 79c3 29 12 60 25 87c-69 -69 -173 -167 -269 -182c-46 -8 -95 8 -101 61c-1 7 -1 15 1 20c2 10 12 30 20 19
c9 -13 -6 -21 -8 -25s-2 -10 -1 -16c7 -44 50 -54 87 -48c109 18 231 149 303 220c12 12 28 23 45 23c15 -1 30 -7 46 -22c16 63 33 125 46 167c17 53 43 107 75 107c19 0 29 -11 33 -24c16 -61 -100 -252 -112 -266c-3 -10 -42 -170 -40 -229c0 -17 5 -21 11 -21
c44 -1 122 170 146 206zM233 429c-14 -48 -37 -134 -41 -147c6 9 106 190 97 232c-2 7 -7 12 -13 12c-16 0 -38 -82 -43 -97zM131 211c3 17 7 34 12 52c-10 9 -20 13 -29 13c-47 0 -85 -166 -80 -199c1 -5 4 -9 7 -9c19 1 63 88 90 143z" />
    <glyph glyph-name="d.03" unicode="&#xe042;" horiz-adv-x="471" 
d="M516 243c0 -10 -4 -32 -15 -23c-12 9 0 22 1 26c4 26 -35 35 -54 34c-104 -5 -174 -165 -229 -238c-21 -28 -43 -48 -65 -48c-9 0 -19 4 -28 14c-12 14 -17 36 -16 62c0 27 5 62 12 100c-26 -55 -59 -114 -87 -114c-32 0 -39 43 -38 68c1 70 50 170 102 169
c15 0 30 -6 46 -21c15 63 33 125 46 166c17 54 43 108 74 108c19 0 30 -11 33 -25c16 -60 -99 -251 -111 -265c-3 -11 -43 -170 -41 -229c1 -17 5 -22 12 -22c14 0 33 19 51 45c56 78 129 236 238 241c31 2 68 -12 69 -48zM233 428c-15 -47 -37 -134 -41 -146
c6 8 106 189 97 232c-2 7 -8 12 -13 12c-16 0 -39 -83 -43 -98zM130 211l12 51c-10 10 -19 14 -28 14c-47 0 -85 -166 -80 -199c1 -6 4 -9 7 -9c18 0 63 87 89 143z" />
    <glyph glyph-name="e.02" unicode="&#xe043;" horiz-adv-x="220" 
d="M239 212c7 -5 9 -5 6 -11c-15 -28 -35 -58 -55 -83c-44 -56 -102 -110 -157 -109c-69 2 -55 129 -10 215c-69 -69 -173 -167 -270 -183c-46 -7 -94 9 -101 61c-1 8 0 15 1 21c3 10 13 30 21 18c9 -12 -7 -21 -8 -25c-2 -3 -2 -9 -1 -16c6 -43 49 -53 86 -47
c110 18 234 151 306 222c14 13 29 26 50 26c26 0 42 -18 41 -38c-3 -38 -55 -51 -85 -56c-18 -46 -42 -121 -43 -154c-2 -24 8 -32 20 -32c43 -1 95 48 136 100c23 28 46 60 63 91zM118 284c-15 0 -33 -27 -50 -65c49 7 67 31 67 48c0 9 -7 17 -17 17z" />
    <glyph glyph-name="e.03" unicode="&#xe044;" horiz-adv-x="251" 
d="M282 379c71 -104 -149 -372 -250 -370c-33 0 -47 31 -47 73c-1 86 59 218 121 218c26 0 43 -18 41 -38c-2 -38 -55 -51 -84 -55c-19 -47 -43 -122 -44 -155c-1 -24 8 -31 20 -31c84 -2 296 256 234 350c-7 11 -21 21 -34 15c-4 -2 -13 -17 -25 -8s9 18 19 20
c19 5 37 -2 49 -19zM117 283c-15 0 -33 -26 -50 -65c50 7 68 31 67 48c0 10 -6 17 -17 17z" />
    <glyph glyph-name="e.04" unicode="&#xe045;" horiz-adv-x="399" 
d="M378 274c31 -1 67 -22 65 -58c0 -10 -6 -32 -16 -22c-11 10 2 22 3 26c6 25 -33 41 -52 42c-128 4 -215 -256 -345 -254c-34 1 -48 33 -47 75c0 87 59 217 121 217c26 -1 43 -18 41 -38c-2 -38 -55 -52 -84 -56c-19 -46 -43 -121 -44 -155c-1 -23 8 -31 20 -31
c113 -2 203 258 338 254zM118 283c-15 0 -33 -27 -50 -65c50 7 68 31 67 47c0 10 -6 17 -17 18z" />
    <glyph glyph-name="f.02" unicode="&#xe046;" horiz-adv-x="185" 
d="M204 212c9 -7 10 -5 6 -12c-44 -72 -60 -99 -147 -119c-9 -2 -19 -4 -29 -7l2 -6c10 -35 17 -108 9 -170c-6 -54 -25 -99 -63 -98c-12 1 -24 8 -29 30c-11 50 14 174 41 284c-57 -78 -139 -179 -226 -207c-44 -15 -95 -7 -109 44c-2 7 -3 15 -3 20c1 11 8 32 18 22
c10 -11 -3 -22 -4 -26c-2 -4 -1 -10 1 -16c14 -42 58 -45 93 -33c90 30 176 143 237 226c14 53 27 101 34 132c5 18 14 54 26 91c18 53 43 107 74 107c19 0 29 -11 33 -25c17 -60 -99 -251 -111 -265c-9 -32 -17 -66 -25 -99c12 3 24 6 35 8c73 17 95 50 137 119zM103 357
c-15 -48 -37 -133 -41 -146c6 8 106 188 96 231c-1 7 -7 12 -12 12c-16 0 -39 -82 -43 -97zM32 -97c8 59 3 130 -6 158c-4 -16 -54 -196 -47 -235c1 -7 4 -9 7 -9c26 0 40 39 46 86z" />
    <glyph glyph-name="f.03" unicode="&#xe047;" horiz-adv-x="298" 
d="M300 363c36 -5 46 -43 41 -73c-17 -111 -209 -192 -307 -216l1 -7c11 -34 18 -108 10 -169c-7 -55 -25 -99 -63 -98c-12 0 -24 7 -29 29c-18 80 57 351 82 446c5 18 13 54 26 91c18 53 43 108 74 108c19 0 29 -11 33 -25c17 -61 -99 -252 -112 -265
c-9 -33 -16 -67 -24 -100c90 23 283 106 298 207c2 19 -2 59 -28 58c-5 -1 -19 -11 -27 2c-7 12 15 13 25 12zM102 356c-14 -47 -37 -133 -40 -145c6 8 106 188 96 231c-1 7 -7 12 -13 12c-16 0 -38 -83 -43 -98zM32 -97c7 58 3 130 -6 157c-4 -15 -54 -195 -47 -235
c1 -6 4 -9 7 -9c26 0 40 39 46 87z" />
    <glyph glyph-name="g.02" unicode="&#xe048;" horiz-adv-x="269" 
d="M288 212c10 -6 11 -4 7 -11c-13 -24 -25 -48 -39 -71c-37 -65 -93 -147 -148 -156c-6 -25 -14 -50 -22 -74c-18 -57 -64 -133 -136 -134c-40 -1 -75 24 -73 68c3 57 75 98 114 115c27 12 55 21 73 28c11 41 25 100 41 155c-25 -49 -54 -97 -79 -97c-17 0 -28 13 -34 32
c-11 35 -1 89 20 134c-69 -70 -172 -167 -268 -182c-46 -7 -94 8 -101 61c-1 7 -1 15 1 20c3 10 12 30 21 19c8 -13 -7 -21 -9 -25c-1 -4 -1 -10 0 -16c6 -43 49 -53 86 -47c108 17 230 146 302 218c12 12 28 23 46 23c16 0 33 -8 51 -26c3 8 5 15 7 19c8 20 31 11 49 6
c-5 -16 -19 -56 -25 -73c-22 -69 -43 -144 -61 -212c47 8 102 92 139 156c13 22 25 47 38 70zM45 -90c4 14 12 40 15 54c-17 -7 -42 -15 -67 -26c-36 -15 -100 -53 -102 -105c-1 -34 21 -51 53 -51c65 2 86 78 101 128zM32 47c19 1 65 90 91 145c4 15 9 30 15 45
c-12 13 -23 18 -33 18c-47 0 -85 -165 -80 -199c1 -6 4 -9 7 -9z" />
    <glyph glyph-name="g.03" unicode="&#xe049;" horiz-adv-x="313" 
d="M337 338c70 -103 -49 -315 -228 -363c-6 -25 -13 -50 -21 -74c-19 -56 -65 -132 -136 -134c-40 -1 -75 24 -73 68c2 57 74 99 113 115c28 12 55 21 74 28c11 42 25 100 40 155c-24 -49 -53 -97 -78 -97c-18 0 -28 13 -34 32c-22 66 35 206 97 205c17 0 34 -8 52 -27
c0 1 5 16 7 22c7 18 36 7 49 4c-29 -81 -64 -199 -86 -284c165 48 276 250 215 342c-7 11 -21 20 -34 15c-4 -2 -13 -17 -25 -8s9 18 19 20c19 5 37 -2 49 -19zM46 -89c5 14 12 40 16 54c-18 -7 -43 -15 -68 -25c-35 -16 -99 -54 -101 -106c-1 -34 20 -51 53 -51
c64 2 85 78 100 128zM33 48c19 1 65 91 91 146c5 16 10 31 15 44c-11 13 -22 18 -33 18c-47 0 -85 -165 -79 -199c0 -6 3 -9 6 -9z" />
    <glyph glyph-name="h.02" unicode="&#xe04a;" horiz-adv-x="278" 
d="M297 212c10 -7 10 -4 7 -11c-21 -37 -95 -189 -140 -237c-7 -8 -18 -15 -31 -15c-28 1 -38 32 -37 56c2 65 52 206 48 232c0 4 -2 4 -5 4c-23 -1 -89 -113 -103 -143c-4 -17 -10 -46 -15 -68c-6 -28 -23 -22 -49 -25c11 59 24 117 39 176c-58 -79 -143 -189 -234 -218
c-44 -15 -95 -7 -109 44c-2 7 -3 15 -3 20c1 10 8 32 18 22c10 -11 -3 -22 -5 -26c-1 -4 0 -10 2 -16c14 -42 58 -45 93 -33c94 31 184 153 245 237c13 51 27 105 34 134c13 49 50 198 102 198c19 0 29 -11 33 -24c16 -61 -99 -252 -112 -266c-4 -16 -21 -81 -31 -118
c26 49 67 120 101 120c19 0 30 -11 35 -27c11 -40 -56 -230 -46 -261c5 -13 22 5 24 8c44 47 124 213 139 237zM165 524c-24 0 -76 -215 -84 -244c6 8 106 189 96 231c-1 7 -7 13 -12 13z" />
    <glyph glyph-name="h.03" unicode="&#xe04b;" horiz-adv-x="464" 
d="M508 276c1 -10 -1 -32 -13 -24s-1 21 -1 26c2 26 -38 32 -56 30c-125 -16 -186 -251 -273 -343c-7 -8 -20 -16 -33 -15c-26 3 -36 33 -35 56c2 65 52 206 49 232c-1 4 -3 4 -5 4c-24 -1 -89 -113 -104 -143c-4 -17 -10 -46 -15 -68c-6 -28 -22 -22 -49 -25
c6 30 13 65 23 109c12 51 44 181 57 231c13 49 50 198 102 198c20 0 30 -11 33 -24c16 -61 -99 -252 -111 -266c-5 -16 -22 -81 -31 -118c25 49 66 120 101 120c18 0 29 -11 34 -27c11 -40 -56 -230 -45 -261c4 -13 21 5 23 8c85 94 139 327 277 343c31 4 69 -7 72 -43z
M166 525c-24 0 -76 -215 -84 -244c6 8 106 189 97 231c-2 7 -8 13 -13 13z" />
    <glyph glyph-name="i.02" unicode="&#xe04c;" horiz-adv-x="352" 
d="M71 292c-11 0 -19 10 -17 22c2 11 12 21 23 21s18 -10 16 -21c-1 -12 -12 -22 -22 -22zM331 286c31 -1 67 -18 65 -54c-1 -10 -6 -32 -17 -22s2 22 3 26c6 26 -32 37 -51 38c-132 4 -226 -241 -289 -241c-27 0 -40 14 -46 35c-7 32 7 94 22 142c6 19 8 28 13 40
c8 19 30 11 49 6c-2 -4 -9 -23 -19 -56c-17 -52 -36 -120 -32 -145c1 -7 4 -12 10 -12c57 0 152 247 292 243z" />
    <glyph glyph-name="i.03" unicode="&#xe04d;" horiz-adv-x="159" 
d="M178 212c8 -7 10 -5 6 -12c-12 -21 -26 -42 -39 -62c-27 -39 -61 -82 -86 -99c-6 -4 -13 -6 -21 -6c-20 0 -35 14 -41 36c-8 34 7 98 22 145c-57 -79 -149 -206 -248 -238c-45 -14 -95 -7 -110 44c-2 8 -3 15 -2 21c1 10 8 31 17 21c11 -11 -2 -22 -4 -26
c-1 -4 0 -10 2 -16c13 -42 57 -45 93 -33c105 35 206 185 266 266c9 16 33 7 47 3c-5 -12 -57 -159 -50 -200c1 -8 4 -12 10 -12c4 0 9 2 14 5c22 14 52 53 78 90c16 23 32 48 46 73zM71 292c-11 0 -18 10 -17 22c2 11 12 21 23 21s19 -10 17 -21c-2 -12 -12 -22 -23 -22z
" />
    <glyph glyph-name="j.02" unicode="&#xe04e;" horiz-adv-x="155" 
d="M75 302c-11 0 -18 10 -17 22c2 12 12 21 23 21s19 -9 17 -21s-12 -22 -23 -22zM174 212c10 -6 11 -3 7 -10c-17 -31 -32 -61 -51 -91c-36 -56 -82 -112 -127 -120c-6 -25 -13 -50 -21 -74c-19 -56 -65 -132 -136 -134c-41 0 -75 24 -73 68c2 57 74 99 113 115
c28 12 55 21 73 28c18 66 44 175 68 245c-67 -68 -185 -190 -293 -207c-46 -8 -94 8 -101 60c-1 8 -1 16 1 21c3 10 12 30 21 19c8 -13 -7 -21 -9 -25c-1 -4 -1 -10 0 -17c6 -43 49 -53 86 -47c111 18 236 154 308 224c10 10 29 3 45 -1c-29 -81 -56 -177 -78 -262
c37 5 79 60 113 114c20 30 37 64 54 94zM-60 -73c4 15 12 40 16 54c-18 -7 -43 -15 -68 -25c-35 -16 -100 -54 -102 -106c-1 -34 21 -51 53 -50c65 1 86 77 101 127z" />
    <glyph glyph-name="j.03" unicode="&#xe04f;" horiz-adv-x="199" 
d="M223 333c70 -103 -48 -316 -228 -363c-6 -25 -13 -50 -21 -74c-19 -57 -65 -133 -136 -134c-40 -1 -75 24 -73 68c3 57 75 98 113 115c28 12 55 21 74 28c26 100 51 191 85 289c6 19 35 8 48 5c-29 -81 -63 -200 -86 -285c165 49 277 250 215 343c-7 11 -20 20 -34 14
c-4 -1 -13 -16 -25 -7c-11 8 9 18 19 20c20 5 38 -3 49 -19zM-67 -94c4 14 11 40 15 54c-17 -7 -42 -15 -67 -26c-36 -15 -100 -53 -102 -105c-1 -34 20 -51 53 -51c65 1 85 78 101 128zM76 304c-11 0 -18 9 -16 21c1 12 12 21 23 21c10 0 18 -9 16 -21s-12 -21 -23 -21z
" />
    <glyph glyph-name="k.02" unicode="&#xe050;" horiz-adv-x="277" 
d="M296 212c9 -6 10 -5 7 -11c-17 -29 -33 -60 -49 -90c-22 -41 -48 -84 -69 -111c-17 -22 -36 -30 -54 -29s-36 12 -50 29c-24 27 -37 69 -38 111c39 0 100 97 102 123c0 5 -2 10 -10 10c-22 0 -77 -91 -95 -124c-9 -33 -15 -67 -23 -101c-6 -27 -22 -21 -49 -24
c13 62 27 124 42 186c-57 -78 -140 -183 -229 -212c-44 -14 -94 -6 -109 45c-2 7 -3 14 -3 20c2 10 8 32 18 21c11 -10 -3 -21 -4 -26c-1 -3 0 -9 1 -16c14 -41 58 -44 94 -32c91 30 178 146 239 230c12 48 25 97 32 123c13 50 50 199 102 199c19 0 29 -11 33 -25
c16 -60 -100 -251 -112 -265c-3 -12 -13 -51 -22 -86c24 45 60 101 91 101c25 0 37 -19 37 -40c0 -39 -46 -107 -91 -107c1 -16 13 -75 37 -104c9 -10 17 -16 27 -16c8 0 17 5 26 16c19 25 43 66 65 106c18 32 36 67 54 99zM161 513c-23 0 -75 -214 -84 -244
c7 8 107 189 97 232c-2 7 -7 12 -13 12z" />
    <glyph glyph-name="k.03" unicode="&#xe051;" horiz-adv-x="459" 
d="M503 276c1 -10 -1 -32 -13 -24s-1 22 -1 26c2 26 -38 32 -56 30c-113 -14 -181 -224 -246 -308c-17 -22 -38 -29 -56 -28s-36 12 -51 29c-23 27 -37 69 -38 111c39 0 101 97 102 123c1 5 -1 10 -9 10c-23 0 -78 -91 -95 -124c-9 -33 -15 -67 -23 -101
c-6 -27 -22 -21 -49 -24c22 114 51 227 80 339c13 50 50 199 103 199c19 0 29 -11 32 -25c16 -60 -99 -251 -111 -265c-4 -12 -14 -51 -23 -86c25 45 60 101 91 101c25 0 37 -19 37 -40c0 -39 -45 -107 -90 -107c1 -16 13 -75 37 -104c8 -10 17 -16 27 -16c8 0 16 5 25 16
c71 91 127 296 255 311c31 4 69 -7 72 -43zM161 514c-24 0 -76 -214 -84 -244c6 8 106 189 97 232c-2 7 -8 12 -13 12z" />
    <glyph glyph-name="l.02" unicode="&#xe052;" horiz-adv-x="178" 
d="M197 212c7 -6 10 -5 7 -11c-31 -51 -105 -222 -165 -222c-37 0 -45 49 -45 77c1 23 4 52 9 82c-56 -76 -133 -166 -215 -193c-44 -14 -94 -7 -109 44c-2 8 -3 15 -3 21c2 10 8 31 18 21c11 -11 -3 -22 -4 -26s0 -10 2 -16c13 -42 57 -45 93 -33c83 28 163 127 223 208
c15 77 40 164 59 224c17 54 43 107 75 107c19 0 29 -10 32 -24c16 -61 -99 -252 -111 -266c-3 -10 -34 -134 -32 -193c0 -17 5 -21 11 -21c45 0 135 187 155 221zM109 378c-15 -48 -37 -134 -41 -146c6 8 106 189 97 232c-2 6 -8 12 -13 12c-16 0 -39 -83 -43 -98z" />
    <glyph glyph-name="l.03" unicode="&#xe053;" horiz-adv-x="365" 
d="M409 281c1 -10 -1 -33 -13 -25c-12 9 -1 22 0 27c2 26 -38 32 -57 30c-142 -17 -208 -334 -300 -335c-37 0 -46 49 -45 77c1 90 44 241 73 332c16 54 43 108 74 108c19 0 29 -11 33 -25c16 -60 -100 -251 -112 -265c-3 -11 -33 -135 -32 -194c1 -17 5 -20 12 -20
c75 0 148 316 296 333c30 4 68 -7 71 -43zM108 377c-14 -47 -37 -134 -40 -146c6 8 106 189 96 232c-1 7 -7 12 -13 12c-16 0 -38 -83 -43 -98z" />
    <glyph glyph-name="m.02" unicode="&#xe054;" horiz-adv-x="395" 
d="M414 212c9 -7 10 -5 6 -11c-21 -38 -94 -189 -139 -238c-11 -11 -32 -21 -51 -7c-13 10 -18 30 -18 48c2 66 52 207 49 233c-1 3 -2 4 -5 4c-23 -1 -84 -105 -102 -140c-4 -13 -7 -24 -8 -31c-6 -27 -23 -21 -49 -24c3 18 55 206 52 224c-1 4 -2 6 -5 6
c-22 -1 -80 -107 -100 -148c-7 -26 -13 -52 -21 -76c-7 -26 -23 -21 -50 -24c17 65 37 155 55 221c-67 -67 -187 -194 -298 -211c-45 -8 -94 8 -100 60c-1 8 -1 16 0 21c3 10 13 30 21 19c9 -13 -6 -21 -8 -25s-2 -10 -1 -17c7 -43 50 -53 87 -47c111 19 235 154 307 224
c12 11 35 2 48 -1c-11 -31 -21 -66 -30 -103c26 53 64 119 96 119c18 0 32 -11 36 -27c5 -17 -8 -71 -21 -119c26 49 64 112 97 112c18 0 30 -10 34 -26c11 -40 -55 -231 -45 -262c4 -12 21 6 24 8c44 48 124 214 139 238z" />
    <glyph glyph-name="m.03" unicode="&#xe055;" horiz-adv-x="570" 
d="M614 270c1 -10 0 -32 -12 -25c-13 9 -2 22 -2 27c2 26 -38 31 -57 28c-120 -16 -182 -249 -263 -336c-10 -11 -31 -21 -50 -7c-14 10 -19 30 -18 48c2 66 52 207 48 233c0 3 -2 4 -4 4c-23 -1 -85 -105 -102 -140c-4 -13 -7 -24 -9 -31c-6 -27 -22 -21 -49 -24
c4 18 55 206 52 224c0 4 -2 6 -4 6c-22 -1 -80 -107 -101 -148c-6 -26 -13 -52 -20 -76c-8 -26 -23 -21 -50 -24c18 71 41 172 59 238c6 20 33 10 52 6c-12 -31 -21 -66 -30 -103c26 53 64 119 95 119c19 0 33 -11 37 -27c5 -17 -9 -71 -21 -119c26 49 64 112 96 112
c19 0 30 -10 35 -26c11 -40 -56 -231 -45 -262c4 -12 21 6 23 8c84 90 136 319 268 337c30 4 68 -6 72 -42z" />
    <glyph glyph-name="n.02" unicode="&#xe056;" horiz-adv-x="269" 
d="M289 212c9 -7 10 -5 6 -11c-21 -37 -83 -169 -128 -217c-10 -11 -32 -22 -50 -8c-14 11 -19 31 -19 49c3 66 52 207 49 232c0 4 -2 5 -5 5c-21 -1 -75 -90 -97 -131c-4 -17 -9 -36 -15 -56c-8 -26 -23 -20 -50 -24c16 66 28 125 44 185c-67 -67 -186 -192 -296 -209
c-46 -7 -94 8 -100 61c-1 7 -1 15 0 20c3 10 13 31 21 19c9 -13 -6 -21 -8 -25s-2 -10 -1 -16c6 -43 50 -53 87 -47c109 18 232 150 304 220l3 3c11 8 31 0 46 -3c-12 -33 -19 -62 -26 -92c25 49 62 108 94 108c19 0 30 -11 34 -26c11 -40 -55 -231 -45 -262
c4 -13 22 6 24 8c44 47 113 193 128 217z" />
    <glyph glyph-name="n.03" unicode="&#xe057;" horiz-adv-x="455" 
d="M499 290c2 -10 0 -33 -12 -25c-13 8 -2 22 -2 26c2 26 -38 32 -57 29c-120 -17 -181 -250 -262 -336c-8 -8 -20 -15 -34 -14c-26 2 -36 32 -35 55c2 66 52 207 49 232c-1 4 -3 5 -5 5c-21 -1 -75 -90 -97 -130c-4 -18 -9 -37 -15 -57c-8 -27 -24 -21 -50 -24
c18 72 30 136 48 202c6 21 33 10 52 6c-12 -33 -20 -62 -27 -91c26 48 63 107 95 107c18 0 30 -11 34 -26c11 -40 -56 -231 -45 -262c4 -13 21 6 23 8c85 90 137 319 268 337c30 4 69 -7 72 -42z" />
    <glyph glyph-name="o.02" unicode="&#xe058;" 
d="M241 212c6 -5 9 -5 6 -11c-22 -38 -59 -76 -105 -44c-18 -47 -51 -118 -108 -117c-23 1 -39 17 -45 40c-7 28 -2 68 13 102c-70 -69 -174 -169 -272 -184c-45 -7 -94 8 -100 61c-1 8 -1 15 0 20c3 10 13 31 21 19c9 -13 -6 -21 -8 -25s-2 -10 -1 -16c7 -43 50 -53 87 -47
c107 17 228 145 301 217c15 16 35 28 59 27c7 0 14 -2 21 -6c3 3 9 6 16 6c19 0 25 -18 27 -37c1 -18 -3 -38 -6 -46c36 -35 70 2 94 41zM42 54c43 -4 79 77 92 111c-13 11 -23 28 -28 44c-3 11 -4 21 -2 29c-44 -4 -90 -118 -81 -163c3 -12 9 -20 19 -21zM139 180
c2 5 5 24 4 39c-1 12 -4 22 -12 22c-11 0 -10 -14 -5 -29c4 -14 12 -29 13 -32z" />
    <glyph glyph-name="o.03" unicode="&#xe059;" horiz-adv-x="401" 
d="M445 279c1 -10 0 -33 -12 -25c-13 9 -2 22 -2 27v4c-5 23 -39 27 -57 24c-108 -15 -143 -215 -232 -152c-18 -47 -51 -118 -109 -117c-22 1 -38 17 -44 40c-16 60 26 176 99 174c8 0 15 -2 21 -6c4 3 9 6 17 6c20 0 26 -21 27 -42c0 -17 -3 -34 -6 -41
c65 -64 119 135 226 150c28 4 65 -5 72 -38v-4zM42 54c43 -4 79 77 91 111c-13 12 -23 30 -28 47c-2 9 -3 18 -1 26c-44 -4 -91 -118 -81 -163c2 -12 8 -20 19 -21zM139 180c1 4 4 22 3 37c0 13 -3 24 -11 24c-11 0 -10 -13 -6 -27c4 -15 12 -31 14 -34z" />
    <glyph glyph-name="p.02" unicode="&#xe05a;" horiz-adv-x="269" 
d="M288 212c8 -7 10 -5 6 -12c-40 -65 -51 -79 -118 -100c-7 -2 -15 -4 -23 -6c-20 -44 -54 -78 -89 -78c-15 0 -34 8 -34 27c1 28 59 46 78 51c8 16 47 144 21 144c-22 -1 -76 -97 -92 -131c-5 -18 -9 -35 -12 -48c-23 -101 -47 -212 -93 -278c-13 -19 -32 -31 -48 -31
c-45 1 -27 66 -18 91c27 74 90 170 106 191c11 50 24 101 37 151c3 12 8 30 12 45c-67 -67 -186 -192 -296 -209c-45 -7 -94 8 -100 61c-1 8 -1 15 0 20c3 10 13 31 21 19c9 -13 -6 -21 -8 -25s-2 -10 -1 -16c7 -43 50 -53 87 -47c110 18 233 151 305 221l2 2v0v0
c11 8 31 2 46 -2c-5 -14 -15 -50 -22 -73c-2 -10 -5 -20 -8 -31c23 46 56 102 88 102c67 0 38 -95 22 -143c7 1 13 3 19 5c59 19 73 37 112 100zM-98 -223c26 39 59 207 63 223c-13 -16 -63 -99 -86 -162c-5 -15 -23 -69 5 -72c6 -1 13 3 18 11zM52 30c17 0 40 27 51 52
c-13 -4 -62 -21 -62 -41c0 -8 4 -11 11 -11z" />
    <glyph glyph-name="p.03" unicode="&#xe05b;" horiz-adv-x="402" 
d="M405 381c36 -5 45 -43 41 -73c-15 -95 -185 -182 -271 -209c-7 -2 -14 -4 -23 -6c-19 -44 -53 -78 -88 -78c-15 0 -35 8 -34 27c0 28 59 46 78 51c8 16 47 144 21 144c-22 -1 -76 -97 -93 -131c-4 -18 -8 -35 -11 -48c-24 -101 -47 -212 -93 -278
c-14 -19 -32 -31 -49 -31c-45 1 -26 66 -17 91c27 74 90 170 106 191c2 8 4 16 5 24c9 37 26 105 38 151c3 9 8 32 10 39c6 20 33 11 52 7c-4 -10 -11 -38 -16 -52c-4 -16 -9 -34 -14 -53c23 46 56 102 88 102c67 0 37 -95 22 -143c7 1 13 3 19 5c80 25 245 114 258 198
c3 19 -2 59 -28 58c-4 -1 -18 -11 -26 2c-8 12 15 13 25 12zM-98 -224c26 39 59 207 62 223c-12 -16 -62 -99 -85 -162c-5 -15 -23 -69 5 -72c6 -1 13 3 18 11zM52 29c17 0 39 27 51 52c-14 -4 -63 -21 -62 -41c0 -8 4 -11 11 -11z" />
    <glyph glyph-name="q.02" unicode="&#xe05c;" horiz-adv-x="297" 
d="M317 212c9 -6 10 -5 6 -11c-44 -72 -60 -100 -147 -120c-9 -2 -19 -4 -29 -7l2 -6c10 -35 17 -108 10 -169c-7 -55 -26 -100 -64 -98c-12 0 -24 7 -29 29c-11 49 20 210 51 330c-27 -58 -63 -129 -94 -129c-18 0 -28 13 -34 32c-11 35 -1 90 20 134
c-69 -69 -172 -167 -269 -183c-46 -7 -94 9 -100 61c-1 8 -1 15 0 21c3 10 13 30 21 18c9 -12 -6 -21 -8 -25c-2 -3 -2 -9 -1 -16c6 -43 50 -53 87 -47c108 18 231 149 303 220c12 12 27 23 45 22c17 0 34 -8 52 -27c3 8 6 18 8 23c6 20 29 11 48 7c-4 -11 -11 -34 -15 -45
c-13 -46 -24 -96 -35 -141c12 3 24 6 35 9c73 16 95 50 137 118zM29 43c22 1 82 127 103 172c1 5 3 11 4 16c-12 14 -24 20 -34 20c-47 0 -85 -166 -80 -199c1 -6 4 -9 7 -9zM145 -97c8 59 3 130 -6 158c-4 -16 -54 -196 -47 -235c1 -7 4 -9 7 -9c26 0 40 39 46 86z" />
    <glyph glyph-name="q.03" unicode="&#xe05d;" horiz-adv-x="329" 
d="M307 398c49 12 68 -32 66 -73c-2 -84 -75 -214 -227 -252l2 -6c10 -35 17 -108 10 -169c-7 -55 -25 -100 -64 -98c-11 0 -24 7 -29 29c-11 49 20 210 51 330c-26 -58 -63 -129 -94 -129c-17 0 -27 13 -34 32c-21 66 36 206 98 205c17 0 35 -8 53 -27v3c1 3 6 17 7 20
c7 21 30 11 49 7c-3 -9 -10 -29 -13 -39c-15 -47 -26 -100 -37 -147c144 37 212 164 216 241c1 25 -11 76 -47 60c-5 -2 -14 -16 -26 -7c-11 8 9 18 19 20zM28 42c22 1 83 127 103 172c1 5 3 11 5 16c-13 14 -24 20 -35 20c-47 0 -85 -166 -80 -199c1 -6 4 -9 7 -9zM145 -98
c7 59 2 130 -6 158c-4 -16 -55 -196 -48 -235c1 -7 4 -9 8 -9c26 0 40 39 46 86z" />
    <glyph glyph-name="r.02" unicode="&#xe05e;" horiz-adv-x="224" 
d="M244 212c7 -5 11 -5 7 -11c-17 -26 -28 -45 -51 -83c-40 -64 -94 -146 -122 -146c-61 0 -43 98 -24 174c13 52 28 92 35 109c-7 4 -16 9 -24 14c-65 -109 -168 -306 -289 -355c-43 -18 -94 -14 -112 36c-3 7 -4 14 -4 20c0 10 5 32 16 23c11 -10 -1 -22 -2 -27
c-1 -4 0 -9 3 -15c16 -41 60 -41 95 -26c113 46 225 247 284 351c-17 13 -29 35 -29 52c-1 15 8 26 30 26s28 -12 28 -26s-6 -29 -9 -36c13 -14 38 -27 60 -35c-2 -6 -22 -64 -40 -128c-18 -66 -35 -144 -18 -144c23 0 71 74 109 135c26 42 38 62 57 92zM73 324
c1 9 -1 18 -12 18c-9 0 -11 -9 -5 -23c2 -5 6 -11 12 -18c1 4 4 13 5 23z" />
    <glyph glyph-name="r.03" unicode="&#xe05f;" horiz-adv-x="425" 
d="M404 270c31 -1 67 -18 65 -54c-1 -10 -6 -32 -17 -22s2 22 3 26c6 25 -32 37 -51 38c-127 4 -237 -241 -307 -281c-8 -5 -16 -7 -23 -6c-32 1 -40 34 -39 71c3 66 30 150 53 212c-7 4 -16 9 -23 14c-14 -22 -26 -46 -40 -68c-2 -4 -6 0 -11 3l41 72c-17 13 -29 34 -29 52
c-1 15 8 26 30 26c24 0 29 -14 28 -29c0 -13 -6 -26 -8 -33c12 -14 37 -27 59 -35c-8 -27 -92 -271 -56 -272c3 0 7 1 12 4c66 33 175 286 313 282zM67 300c1 4 5 15 5 25c1 9 -2 16 -11 16c-6 0 -9 -3 -9 -10c-1 -7 4 -18 15 -31z" />
    <glyph glyph-name="s.02" unicode="&#xe060;" horiz-adv-x="183" 
d="M202 212c6 -5 10 -6 6 -12c-6 -9 -12 -18 -19 -26c-24 -28 -49 -42 -83 -54c0 -12 -1 -24 -2 -35c-7 -50 -31 -88 -88 -88c-46 1 -64 40 -36 71c22 24 66 41 81 47c2 46 -10 86 -10 129c-58 -103 -161 -285 -274 -332c-43 -17 -94 -13 -112 37c-3 7 -5 14 -4 20
c0 10 5 32 16 22s-2 -21 -3 -26c-1 -4 1 -10 3 -16c16 -40 61 -40 95 -26c115 48 223 245 282 350c3 13 10 23 23 23c8 0 12 -3 14 -6l-12 -20c-3 -21 25 -101 26 -139c31 10 53 25 73 48c9 10 17 21 24 33zM60 91c0 4 1 8 1 12c-16 -6 -54 -21 -72 -42
c-14 -18 -11 -46 16 -47c38 -2 51 41 55 77z" />
    <glyph glyph-name="s.03" unicode="&#xe061;" horiz-adv-x="397" 
d="M442 276v-4c-1 -10 -6 -32 -16 -22c-12 10 1 22 2 26c1 2 1 3 1 5c-1 23 -33 32 -52 33c-114 3 -156 -154 -271 -194c-1 -61 -17 -123 -90 -123c-46 1 -64 40 -36 71c22 24 66 41 81 47c2 46 -10 86 -10 129c-9 -15 -17 -30 -26 -44c-2 -5 -6 0 -11 3l40 70
c3 13 10 23 23 23c8 0 12 -3 14 -6l-12 -20c-3 -21 25 -101 26 -139c107 34 147 195 273 195c29 -1 63 -16 64 -50zM5 14c44 -2 54 56 56 89c-16 -6 -55 -21 -72 -42c-14 -18 -11 -46 16 -47z" />
    <glyph glyph-name="s.04" unicode="&#xe062;" horiz-adv-x="235" 
d="M-21 68c22 25 67 42 82 47c1 46 -11 87 -11 130c-8 -15 -16 -31 -25 -45c-3 -4 -6 0 -11 3l39 70c4 13 11 23 23 23c8 0 12 -3 14 -6l-12 -19c-2 -22 25 -102 27 -140c92 31 161 144 162 238c1 45 -14 77 -41 77c-5 0 -11 -1 -15 -4c-4 -2 -11 -18 -24 -11s6 19 16 23
c7 3 16 4 24 4c35 -2 54 -42 52 -94c-3 -106 -76 -209 -174 -244c0 -13 -1 -26 -3 -38c-7 -46 -29 -84 -87 -84c-46 0 -63 40 -36 70zM60 104c-16 -6 -54 -22 -72 -43c-14 -17 -10 -46 17 -47c34 -1 48 36 53 68c1 8 2 15 2 22z" />
    <glyph glyph-name="t.02" unicode="&#xe063;" horiz-adv-x="178" 
d="M96 337c-25 -84 -49 -172 -54 -248c-1 -13 -1 -26 -1 -38c1 -16 5 -20 12 -20c44 0 125 147 145 181c7 -6 10 -5 6 -11c-31 -51 -95 -183 -155 -183c-38 -1 -46 49 -46 78c2 71 22 160 45 242c-20 -2 -39 -7 -57 -21c-4 13 6 24 19 29c13 6 28 8 43 8c9 31 18 60 26 87
c3 8 5 14 6 18c8 19 31 10 50 6c-1 -1 -3 -10 -7 -23c-9 -29 -19 -60 -28 -92c29 -5 58 -12 83 -12c45 0 84 31 83 90c29 -36 9 -101 -77 -101c-30 0 -62 7 -93 10z" />
    <glyph glyph-name="t.03" unicode="&#xe064;" horiz-adv-x="179" 
d="M198 212c7 -6 10 -5 7 -11c-31 -51 -96 -183 -155 -183c-38 0 -47 49 -46 78c1 47 10 103 23 158c-49 -83 -131 -223 -229 -266c-43 -18 -93 -15 -113 34c-3 7 -4 15 -4 20c0 10 4 33 15 23c12 -10 -1 -22 -1 -26c-1 -4 0 -10 3 -16c17 -40 61 -39 95 -24
c103 45 191 207 243 293c3 14 7 28 11 41c-21 -3 -42 -6 -62 -6c-86 0 -106 66 -77 101c-1 -59 38 -90 83 -90c18 0 39 4 60 8c9 34 19 66 29 96c2 8 4 14 6 17c7 20 30 11 49 6c-1 -1 -3 -9 -7 -22c-8 -29 -18 -59 -27 -90c22 2 44 1 63 -6c13 -6 23 -17 19 -29
c-26 19 -55 22 -86 21c-26 -87 -58 -197 -55 -287c0 -17 5 -21 11 -21c44 0 126 147 145 181z" />
    <glyph glyph-name="t.04" unicode="&#xe065;" horiz-adv-x="178" 
d="M197 212c7 -6 10 -5 7 -11c-31 -51 -95 -183 -155 -183c-38 0 -47 49 -46 78c1 74 23 168 48 253c-110 16 -259 48 -339 49c-46 0 -99 -6 -122 -31c-11 -12 -20 -29 -23 -50c-7 10 -10 22 -9 33c3 49 71 63 132 64c98 2 252 -38 364 -53c8 28 17 56 25 81c2 8 4 14 6 17
c7 20 31 11 49 6c0 -1 -3 -9 -7 -22c-8 -28 -17 -57 -26 -87c24 -2 44 -1 59 2c11 3 22 6 32 11c3 -13 -9 -22 -24 -26c-16 -3 -41 -3 -71 0c-26 -87 -59 -200 -56 -291c0 -17 5 -21 11 -21c45 0 126 147 145 181z" />
    <glyph glyph-name="t.05" unicode="&#xe066;" horiz-adv-x="178" 
d="M623 349c1 -11 -2 -22 -9 -32c-3 21 -11 37 -23 50c-22 25 -75 31 -121 30c-89 0 -261 -40 -372 -53c-26 -88 -60 -201 -57 -293c1 -16 5 -20 11 -20c45 0 126 147 146 181c7 -7 10 -6 6 -11c-31 -52 -95 -183 -155 -184c-38 0 -46 49 -46 78c1 72 22 163 46 245
c-15 0 -26 1 -35 3c-15 3 -28 13 -25 26c10 -6 21 -9 32 -11c9 -2 20 -3 32 -3c9 30 18 59 26 86c3 8 5 14 6 18c8 19 31 10 50 6c-1 -2 -4 -10 -7 -23c-8 -27 -17 -55 -26 -85c113 12 284 58 389 57c62 -1 129 -15 132 -65z" />
    <glyph glyph-name="t.06" unicode="&#xe067;" horiz-adv-x="179" 
d="M198 212c7 -6 10 -5 7 -11c-31 -51 -96 -183 -156 -183c-38 0 -46 49 -45 78c1 70 21 158 43 239c11 38 19 64 30 97c2 8 2 6 3 9c8 20 31 11 50 7c-1 -2 -1 -2 -5 -15c-10 -34 -18 -61 -30 -98c-25 -86 -56 -194 -53 -283c0 -17 5 -21 11 -21c44 0 125 147 145 181z" />
    <glyph glyph-name="t.07" unicode="&#xe068;" horiz-adv-x="391" 
d="M435 330c1 -10 -1 -33 -13 -25c-13 9 -2 22 -1 27c2 26 -38 32 -56 30c-145 -17 -209 -344 -316 -344c-38 -1 -47 49 -46 78c1 70 21 156 43 237c-21 -3 -42 -6 -62 -6c-86 0 -106 65 -77 101c0 -59 38 -90 83 -90c18 0 39 4 60 8c9 34 19 66 29 96c2 7 4 13 6 17
c8 19 31 10 49 6c0 -1 -3 -9 -7 -22c-8 -29 -17 -59 -27 -90c22 2 44 1 63 -7c13 -5 23 -16 19 -29c-22 17 -47 22 -73 22h-13c-26 -87 -58 -197 -55 -288c0 -16 5 -20 11 -20c87 0 162 325 311 342c31 4 69 -7 72 -43z" />
    <glyph glyph-name="t.08" unicode="&#xe069;" horiz-adv-x="391" 
d="M435 330c1 -11 -1 -33 -13 -25c-12 9 -1 22 -1 26c3 26 -37 33 -56 30c-144 -16 -209 -343 -316 -343c-38 -1 -46 48 -46 77c2 72 22 161 45 243c-20 -2 -39 -7 -57 -21c-4 13 6 24 19 29c13 6 28 8 43 8c9 31 18 60 26 87c3 8 5 14 6 18c8 19 31 10 50 6
c-1 -2 -3 -10 -7 -23c-9 -29 -19 -60 -28 -92c29 -5 58 -12 83 -12c45 0 84 31 83 90c29 -36 9 -101 -77 -101c-30 0 -62 6 -93 10c-26 -86 -58 -196 -55 -286c1 -16 5 -20 12 -20c87 0 162 325 311 342c30 3 68 -8 71 -43z" />
    <glyph glyph-name="u.02" unicode="&#xe06a;" horiz-adv-x="296" 
d="M315 212c8 -7 9 -6 6 -12c-2 -3 -18 -30 -20 -34c-23 -39 -81 -126 -119 -150c-6 -4 -13 -7 -21 -7c-20 0 -35 14 -41 36c-4 18 -2 43 3 70c-16 -21 -53 -71 -82 -71c-20 0 -36 14 -41 36c-9 38 7 106 23 151c-68 -68 -185 -189 -293 -206c-45 -7 -94 8 -100 61
c-1 8 -1 15 0 21c3 10 13 30 21 18c9 -12 -6 -21 -8 -25s-2 -10 -1 -16c7 -43 50 -53 87 -47c110 18 233 151 305 221c10 12 33 4 45 1c-5 -13 -53 -151 -47 -192c2 -7 5 -12 11 -12c24 0 72 69 85 87c8 32 18 64 27 84c7 19 29 11 48 7c-5 -13 -57 -160 -50 -201
c1 -8 4 -12 10 -12c4 0 9 2 14 5c34 22 89 106 114 146c5 7 22 37 24 41z" />
    <glyph glyph-name="u.03" unicode="&#xe06b;" horiz-adv-x="506" 
d="M550 328c1 -10 -1 -32 -13 -24c-12 9 -1 22 -1 26c2 26 -37 32 -56 30c-141 -16 -221 -351 -319 -351c-20 0 -35 14 -40 36c-5 18 -3 43 2 70c-16 -21 -52 -71 -82 -71c-20 0 -36 14 -41 36c-11 45 14 130 31 172c8 20 30 11 48 7c-5 -13 -53 -151 -46 -192
c1 -7 4 -12 10 -12c24 0 73 69 85 87c8 32 19 64 27 84c8 19 29 11 48 7c-5 -13 -57 -160 -50 -201c1 -8 4 -12 10 -12c85 0 166 335 315 352c31 3 69 -8 72 -44z" />
    <glyph glyph-name="v.02" unicode="&#xe06c;" horiz-adv-x="229" 
d="M248 212c7 -5 10 -5 7 -11c-22 -38 -60 -76 -105 -44c-13 -34 -60 -136 -105 -136c-26 0 -40 14 -45 35c-12 49 8 131 28 187c-68 -68 -185 -189 -293 -206c-46 -8 -95 8 -101 60c-1 8 -1 16 1 21c2 10 12 30 20 18c9 -12 -6 -20 -8 -25c-2 -3 -2 -9 -1 -16
c7 -43 50 -53 87 -47c110 18 235 153 307 223c11 11 31 3 44 0c-18 -45 -58 -189 -52 -228c2 -7 5 -12 11 -12c40 0 87 104 98 134c-15 14 -22 37 -21 56c2 19 13 34 33 34c15 0 19 -12 18 -27c-2 -21 -13 -47 -16 -57c36 -35 70 3 93 41zM147 180c2 5 11 30 12 47
c1 9 -1 15 -7 15c-8 0 -12 -8 -13 -19c-1 -16 3 -35 8 -43z" />
    <glyph glyph-name="v.03" unicode="&#xe06d;" horiz-adv-x="412" 
d="M456 279c1 -10 -1 -32 -13 -24s-1 21 -1 26c2 26 -38 31 -57 29c-106 -16 -145 -216 -235 -153c-13 -33 -60 -136 -104 -136c-27 0 -40 14 -46 35c-13 56 14 153 36 209c8 19 30 11 49 6c-19 -44 -58 -188 -52 -227c1 -8 4 -13 10 -13c41 0 87 104 99 134
c-16 15 -23 38 -21 57c2 18 13 33 32 33c37 0 8 -67 2 -84c69 -67 124 136 228 150c31 4 69 -6 73 -42zM147 181c3 7 23 62 5 62c-8 0 -12 -9 -13 -20c-1 -16 3 -35 8 -42z" />
    <glyph glyph-name="w.02" unicode="&#xe06e;" horiz-adv-x="351" 
d="M371 212c6 -5 9 -5 6 -11c-21 -38 -59 -76 -105 -44c-13 -34 -60 -136 -104 -136c-27 0 -40 14 -45 35c-5 18 -5 41 -3 65c-15 -20 -49 -65 -78 -65c-20 0 -35 14 -40 36c-10 39 5 90 19 132c-67 -68 -185 -190 -294 -208c-46 -7 -94 9 -101 61c-1 8 -1 15 1 21
c3 10 12 30 21 18s-7 -21 -9 -25c-1 -3 -1 -9 0 -16c6 -43 49 -53 86 -47c110 18 234 151 306 221c12 13 30 4 45 1c-5 -12 -49 -130 -42 -171c1 -7 5 -12 10 -12c23 0 67 60 79 77c5 26 12 51 19 70c8 20 30 11 49 7c-5 -12 -43 -137 -36 -178c1 -8 5 -12 11 -12
c40 0 87 104 98 134c-18 17 -32 47 -31 67c1 12 8 22 23 22c25 0 29 -30 27 -55c-1 -12 -3 -23 -5 -28c36 -35 69 2 93 41zM273 205c1 17 -1 36 -12 36c-6 0 -9 -5 -8 -12c0 -15 11 -40 17 -49c1 3 2 13 3 25z" />
    <glyph glyph-name="w.03" unicode="&#xe06f;" horiz-adv-x="534" 
d="M578 279c1 -10 0 -32 -12 -25c-13 9 -2 22 -2 27c2 26 -38 31 -57 28c-103 -15 -146 -214 -235 -152c-13 -33 -60 -136 -104 -136c-27 0 -40 14 -46 35c-4 19 -4 42 -2 65c-16 -20 -50 -65 -78 -64c-20 0 -35 14 -41 35c-11 45 11 109 27 152c7 19 29 10 48 6
c-5 -12 -49 -130 -42 -171c1 -7 4 -12 10 -12c23 0 67 60 79 77c4 26 11 51 19 71c8 19 30 10 49 6c-6 -12 -43 -137 -36 -178c1 -7 4 -12 10 -12c41 0 87 104 99 134c-19 17 -32 47 -31 67c1 13 8 22 23 22c20 0 27 -21 27 -42c0 -17 -3 -34 -6 -41c69 -67 126 136 229 150
c30 4 68 -6 72 -42zM272 202c2 17 0 39 -11 39c-6 0 -9 -4 -9 -11c0 -15 11 -41 17 -50c1 3 3 12 3 22z" />
    <glyph glyph-name="x.02" unicode="&#xe070;" horiz-adv-x="287" 
d="M306 212c10 -6 11 -4 7 -11c-7 -13 -21 -37 -38 -64c-38 -58 -92 -130 -119 -132c-28 -3 -45 9 -56 28c-8 12 -13 33 -17 57c-26 -29 -50 -55 -66 -70c-4 -3 -7 -6 -9 -7c-21 -13 -35 16 -10 15c10 0 8 -2 14 5c18 17 43 45 69 74c-7 60 -7 128 -23 128
c-37 1 -157 -287 -312 -287c-30 0 -58 14 -69 48c-3 8 -4 15 -3 21c0 10 6 32 16 22c11 -11 -2 -22 -3 -26s0 -10 2 -16c10 -27 31 -37 55 -37c152 -3 270 298 328 300c34 2 44 -51 49 -108c30 33 58 64 77 81c18 16 39 6 30 -6c-1 -2 -6 -3 -16 0c-1 1 -3 0 -5 -2
c-20 -19 -52 -55 -84 -91c5 -61 6 -120 27 -118c23 2 73 67 110 122c16 23 33 50 46 74z" />
    <glyph glyph-name="x.03" unicode="&#xe071;" horiz-adv-x="493" 
d="M471 308c30 0 67 -16 66 -52c-1 -10 -6 -32 -16 -23c-12 10 1 22 2 27c5 25 -33 36 -52 36c-135 1 -248 -284 -314 -290c-29 -3 -45 9 -57 28c-7 12 -12 33 -16 57c-26 -29 -50 -55 -67 -70c-3 -3 -6 -6 -8 -7c-21 -13 -35 16 -10 15c10 0 8 -2 14 5c18 17 43 45 69 74
c-7 60 -8 128 -23 128c-10 0 -24 -19 -33 -34c-2 -4 -7 1 -11 3c2 3 3 5 5 8c19 30 38 48 53 48c33 2 44 -51 49 -108c30 33 58 64 77 81c18 16 39 6 30 -6c-2 -2 -6 -3 -16 0c-1 1 -3 0 -6 -2c-19 -19 -51 -55 -83 -91c4 -61 6 -120 27 -118c64 6 177 292 320 291z" />
    <glyph glyph-name="y.02" unicode="&#xe072;" horiz-adv-x="288" 
d="M308 212c10 -6 10 -3 6 -10c-10 -18 -19 -36 -28 -54c-37 -66 -98 -164 -159 -174v-1c-5 -19 -12 -46 -21 -73c-19 -56 -65 -132 -136 -133c-40 -1 -75 24 -73 68c2 57 74 98 113 115c28 11 55 20 73 28c11 40 24 93 39 143c-19 -23 -40 -45 -59 -57c-6 -4 -14 -7 -22 -7
c-20 0 -35 14 -40 36c-10 38 5 90 19 131c-67 -67 -185 -190 -294 -207c-46 -7 -94 8 -100 61c-1 8 -1 15 0 21c3 9 13 30 21 18c9 -12 -6 -21 -8 -25s-2 -10 -1 -16c6 -43 50 -53 87 -47c110 18 234 152 306 222c10 11 32 2 44 0c-5 -13 -49 -130 -42 -171
c1 -8 5 -12 10 -12s9 2 15 5c23 15 50 46 72 77c9 29 18 56 26 78c8 19 31 10 50 6c-29 -82 -53 -162 -75 -247c48 7 106 98 142 162c11 20 23 44 35 63zM64 -90c4 15 12 41 16 55c-18 -8 -43 -15 -68 -26c-35 -15 -99 -53 -101 -105c-2 -34 20 -52 52 -51
c65 1 86 77 101 127z" />
    <glyph glyph-name="y.03" unicode="&#xe073;" horiz-adv-x="331" 
d="M355 337c70 -103 -48 -316 -227 -364c-6 -24 -14 -50 -22 -74c-18 -56 -64 -132 -136 -133c-40 -1 -75 24 -73 68c3 57 75 98 114 115c27 11 54 20 73 28c16 59 26 100 39 145c-16 -20 -54 -66 -82 -66c-36 0 -44 37 -44 66c1 40 17 87 29 121c7 20 30 11 49 7
c-5 -13 -49 -130 -42 -171c1 -8 4 -12 10 -12c24 0 76 67 89 85c6 23 14 47 23 76c6 18 35 8 48 5c-27 -83 -49 -162 -72 -247c165 48 277 250 215 343c-7 11 -20 20 -34 14c-4 -2 -13 -17 -25 -7c-11 8 9 17 19 20c20 4 38 -3 49 -19zM65 -91c4 15 11 41 15 55
c-17 -7 -42 -15 -67 -26c-36 -15 -100 -53 -102 -105c-1 -34 21 -52 53 -51c65 1 86 77 101 127z" />
    <glyph glyph-name="z.02" unicode="&#xe074;" horiz-adv-x="253" 
d="M272 212c10 -6 11 -4 7 -11c-13 -23 -24 -45 -39 -66c-26 -39 -62 -81 -102 -101c1 -87 -94 -218 -192 -211c-18 1 -41 9 -47 32c-12 52 100 133 203 178c7 33 -7 64 -35 69c-50 -27 -73 28 -7 16c35 10 57 57 58 92c0 28 -14 40 -33 39c-94 -4 -181 -353 -361 -333
c-25 2 -47 16 -58 46c-2 7 -4 14 -4 20c1 10 6 32 17 23c11 -11 -2 -22 -3 -27c-1 -4 0 -9 3 -15c9 -24 28 -34 49 -36c170 -11 247 312 358 343c8 3 16 4 24 4c28 -1 52 -18 52 -55c0 -36 -25 -82 -82 -107c35 -14 50 -33 57 -67c33 18 65 54 89 90c18 26 31 51 46 77z
M-58 -160c49 0 132 104 157 179c-88 -37 -193 -116 -186 -160c3 -16 18 -19 29 -19z" />
    <glyph glyph-name="z.03" unicode="&#xe075;" horiz-adv-x="260" 
d="M291 343c53 -78 -66 -267 -153 -309c1 -87 -94 -218 -192 -211c-18 1 -41 9 -47 32c-12 52 100 133 203 178c7 33 -7 64 -35 69c-50 -27 -73 28 -7 16c35 10 57 57 58 92c0 28 -14 40 -32 39c-11 -1 -23 -4 -33 -13c-12 -10 -18 -20 -28 -35c-1 -3 -8 3 -10 4
c9 17 18 30 31 43c18 17 42 26 64 26c28 -1 52 -18 52 -55c0 -36 -25 -82 -82 -107c33 -12 49 -34 57 -67c77 41 190 222 145 290c-7 11 -20 20 -34 14c-4 -2 -13 -17 -25 -7c-11 8 9 17 19 20c20 4 38 -3 49 -19zM-58 -160c49 0 132 104 157 179
c-88 -37 -193 -116 -186 -160c3 -16 18 -19 29 -19z" />
    <glyph glyph-name="Scaron" unicode="&#x160;" horiz-adv-x="419" 
d="M354 431c40 -9 66 32 65 70c-1 36 -34 62 -66 62c-39 0 -77 -40 -52 -153c19 -87 69 -189 67 -279c-2 -96 -69 -192 -171 -192c-34 0 -68 13 -91 32c-34 -37 -68 -58 -116 -71c-6 -1 -11 -2 -17 -1c-7 0 -12 3 -8 10c7 14 20 5 24 5c37 1 89 41 107 65
c-40 40 -53 98 -52 153c1 69 42 180 125 177c52 -2 69 -41 68 -82c-2 -76 -76 -186 -121 -244c20 -16 52 -25 84 -25c95 1 120 84 121 164c0 96 -46 175 -68 271c-28 124 33 178 92 181c44 1 85 -27 85 -77c0 -45 -32 -81 -79 -79c-6 0 -12 1 -17 4c-7 2 -11 6 -5 12
c11 11 21 -2 25 -3zM57 132c-1 -51 12 -104 50 -141c46 61 94 162 93 242c0 31 -8 62 -37 61c-71 -1 -105 -104 -106 -162zM312 693l3 4c16 -5 44 -32 52 -51c28 24 55 39 86 41l-1 -6c-35 -17 -63 -45 -92 -87c-9 34 -24 75 -48 99z" />
    <glyph glyph-name="Zcaron" unicode="&#x17d;" horiz-adv-x="458" 
d="M477 212c6 -6 10 -5 6 -11c-11 -20 -68 -115 -110 -153c-33 -29 -46 -30 -77 -36c-50 -85 -184 -246 -294 -242c-22 0 -38 10 -38 31c-3 97 201 199 282 215c26 32 49 96 30 137c-12 -9 -50 -31 -75 -30c-14 0 -22 11 -20 23c2 17 20 36 60 37c13 0 26 -3 35 -8
c55 43 107 173 120 264c7 54 0 95 -29 94c-57 0 -129 -70 -163 -114c21 -22 26 -61 21 -101c-9 -60 -44 -120 -92 -116c-22 3 -32 18 -33 39c-1 54 60 142 80 168c-12 13 -27 18 -43 18c-64 -1 -149 -83 -141 -161c0 -9 3 -24 9 -29c4 -3 21 -3 19 -19c-1 -14 -18 0 -25 8
c-11 11 -14 24 -15 40c-7 89 81 176 161 175c17 0 34 -5 49 -14c38 47 111 118 173 119c64 1 85 -40 81 -97c-7 -97 -90 -240 -155 -284c36 -33 27 -99 9 -139c26 5 36 7 63 32c45 41 111 154 112 154zM193 320c4 31 3 61 -6 78c-16 -22 -73 -106 -74 -154
c0 -15 5 -27 22 -29c29 -3 51 52 58 105zM203 135c17 1 52 24 59 29c-8 4 -21 5 -33 4c-26 -2 -36 -16 -35 -24c0 -5 4 -9 9 -9zM-2 -211c73 -1 199 157 238 212c-73 -14 -251 -110 -256 -194c-1 -12 6 -18 18 -18zM303 693l3 4c16 -5 44 -32 52 -51c28 24 55 39 86 41
l-1 -6c-35 -17 -63 -45 -92 -87c-9 34 -24 75 -48 99z" />
    <glyph glyph-name="scaron" unicode="&#x161;" horiz-adv-x="183" 
d="M202 212c5 -5 10 -6 6 -12c-27 -42 -56 -64 -102 -80c-1 -60 -17 -122 -90 -122c-46 0 -64 39 -36 70c22 24 66 41 81 47c1 34 -4 67 -8 100c-1 7 -2 18 -2 29c-9 -15 -17 -30 -26 -44c-2 -4 -6 0 -11 3l40 70c3 13 10 23 23 23c8 0 11 -3 14 -6l-12 -20
c-1 -9 2 -24 7 -42c9 -32 18 -64 19 -97c45 16 72 41 97 81zM5 14c44 -2 54 56 56 90c-17 -7 -55 -22 -72 -43c-14 -18 -11 -46 16 -47zM19 418l3 4c16 -5 44 -32 52 -51c28 24 55 39 86 41l-1 -6c-35 -17 -63 -45 -92 -87c-9 34 -24 75 -48 99z" />
    <glyph glyph-name="oe" unicode="&#x153;" horiz-adv-x="361" 
d="M380 212c7 -6 10 -5 7 -11c-36 -67 -129 -193 -213 -192c-35 1 -48 34 -47 78c0 11 1 21 3 32c-24 -43 -60 -79 -96 -78c-39 1 -49 42 -48 72c1 66 44 147 119 148c30 1 53 -15 54 -47c23 49 56 87 89 87c26 -1 43 -18 41 -38c-1 -22 -24 -47 -80 -55l-4 -1
c-19 -46 -43 -121 -44 -155c-1 -23 8 -31 21 -31c70 -1 167 133 198 191zM259 284c-15 0 -33 -27 -50 -65c50 7 68 31 67 47c0 10 -6 17 -17 18zM145 202c2 22 -5 37 -26 38c-62 2 -106 -118 -96 -164c3 -12 9 -20 19 -21c37 -4 99 92 103 147z" />
    <glyph glyph-name="zcaron" unicode="&#x17e;" horiz-adv-x="253" 
d="M272 212c10 -6 10 -4 7 -11c-16 -29 -30 -55 -50 -82c-25 -34 -56 -68 -91 -85c1 -87 -94 -218 -193 -211c-17 1 -40 9 -46 32c-13 52 100 133 203 178c7 33 -7 64 -36 69c-26 -14 -45 -5 -47 4c-1 9 10 18 41 12c35 10 57 57 57 92c1 28 -13 40 -32 39
c-10 -1 -22 -4 -32 -13c-12 -10 -19 -20 -28 -36c-1 -2 -8 4 -10 5c9 17 17 30 31 43c18 17 42 26 64 26c28 -1 51 -18 51 -55c0 -36 -25 -82 -81 -107c35 -11 50 -33 57 -67c28 15 54 43 77 73c24 32 36 56 58 94zM-58 -160c49 0 132 104 157 179
c-88 -37 -193 -116 -186 -160c3 -16 18 -19 29 -19zM71 418l3 4c16 -5 44 -32 52 -51c28 24 55 39 86 41l-1 -6c-35 -17 -63 -45 -92 -87c-9 34 -24 75 -48 99z" />
    <glyph glyph-name="Ydieresis" unicode="&#x178;" horiz-adv-x="615" 
d="M635 212c10 -6 10 -4 6 -11c-27 -54 -107 -212 -187 -227v-2c-5 -19 -12 -46 -21 -72c-19 -57 -65 -133 -136 -134c-40 -1 -75 24 -73 68c2 57 74 98 113 115c28 12 55 21 74 28c11 45 27 109 44 168c-43 -64 -120 -168 -171 -168c-107 1 -5 288 8 343
c22 86 33 170 -25 173c-43 2 -84 -24 -121 -66c23 -47 36 -127 18 -192c-9 -35 -37 -78 -77 -76c-26 2 -46 25 -45 64c3 63 40 138 78 188c3 5 5 7 8 11c-19 35 -50 49 -79 47c-37 -2 -70 -30 -73 -72c-2 -18 4 -33 16 -39c4 -2 21 2 22 -14c1 -14 -19 -5 -28 1
c-16 12 -23 32 -22 52c3 50 47 82 93 83c31 0 63 -13 84 -44c40 45 87 76 135 74c78 -4 74 -109 55 -203c-8 -41 -85 -315 -39 -316c39 0 145 146 174 193c20 67 35 136 56 203c18 60 47 129 83 129c19 0 29 -11 32 -25c8 -32 -9 -81 -35 -133c-23 -45 -52 -93 -76 -132
c-5 -18 -10 -37 -16 -54c-19 -62 -37 -126 -52 -186c69 14 146 172 177 226zM615 496c-24 0 -74 -209 -82 -238c19 33 40 70 58 105c25 50 42 95 35 121c-2 6 -6 12 -11 12zM131 234c13 47 18 145 2 178c-1 -2 -1 -2 -3 -4c-36 -48 -68 -112 -74 -172c-3 -35 13 -60 31 -62
c28 -3 39 40 44 60zM391 -90c5 14 12 40 16 54c-18 -7 -43 -15 -68 -26c-35 -15 -99 -53 -101 -105c-2 -34 20 -51 52 -51c65 1 86 78 101 128zM421 582c14 0 22 -10 20 -23c-1 -14 -14 -25 -25 -25c-13 0 -21 11 -20 25c2 13 14 23 25 23zM508 582c12 0 21 -10 19 -23
c-3 -14 -14 -25 -26 -25s-20 11 -19 25c2 13 12 23 26 23z" />
    <glyph glyph-name="section" unicode="&#xa7;" horiz-adv-x="224" 
d="M153 540c43 2 78 -37 63 -83c-11 2 -9 0 -7 9c6 31 -20 63 -50 62c-33 0 -66 -27 -45 -100c16 -57 59 -124 57 -183c-2 -71 -43 -116 -88 -129c12 -29 20 -58 20 -85c-3 -87 -66 -135 -119 -133c-31 1 -76 22 -74 83v7c15 -2 13 1 13 -11c-1 -46 28 -67 63 -67
c39 0 85 27 76 115c-6 62 -44 114 -58 178c-19 84 32 121 80 123c8 0 16 -1 23 -3c-13 30 -27 60 -34 94c-19 84 32 121 80 123zM112 309c-6 3 -14 6 -22 5c-33 0 -66 -27 -45 -100c8 -27 22 -57 34 -87c31 10 59 41 52 112c-2 24 -10 47 -19 70z" />
    <glyph glyph-name="Agrave" unicode="&#xc0;" horiz-adv-x="698" 
d="M718 212c7 -6 10 -5 7 -10c-31 -52 -103 -202 -163 -202c-38 0 -46 49 -46 78c1 42 13 107 30 175c-34 -6 -73 -13 -109 -16c-31 -73 -82 -161 -138 -218c-30 -31 -73 -57 -111 -56c-29 1 -55 18 -69 59c-28 -23 -58 -40 -96 -36c-44 4 -61 37 -59 68s22 61 53 62
c10 0 33 -4 24 -15c-10 -12 -22 0 -27 1c-18 3 -35 -20 -37 -46c-3 -27 9 -56 50 -58c35 -2 61 17 87 39c-7 27 -9 58 -8 87c3 61 34 173 111 167c41 -4 42 -46 34 -77c-17 -64 -73 -140 -122 -184c12 -37 36 -51 62 -50c31 1 66 23 89 51c41 52 77 136 108 207
c-34 3 -58 17 -58 48c0 26 28 54 42 55c4 0 7 -2 8 -7c2 -13 -14 -12 -21 -14c-11 -13 -16 -24 -17 -33c-2 -25 19 -35 51 -37c27 63 53 130 88 188c39 63 89 114 163 134c15 4 26 -1 40 -4c0 -2 -12 -41 -16 -54c-17 -59 -47 -152 -72 -243c20 2 47 3 46 -24
c-1 -12 -9 -24 -18 -30s-29 -16 -28 -1s18 11 22 13c7 3 12 11 12 18c1 19 -26 14 -37 13c-19 -72 -35 -142 -38 -189c-1 -12 -7 -58 10 -58c45 0 133 165 153 199zM125 46c32 30 81 126 93 172c7 24 18 58 -6 60c-64 5 -91 -104 -94 -155c-1 -25 0 -53 7 -77zM443 251
c34 2 73 9 106 14c23 93 53 190 71 248c2 6 8 27 12 39c-58 -20 -93 -63 -119 -116c-27 -55 -45 -122 -70 -185zM596 675c21 13 29 28 33 7c5 -24 13 -52 33 -72c-15 -3 -15 -6 -26 4c-20 17 -31 41 -40 61z" />
    <glyph glyph-name="Aacute" unicode="&#xc1;" horiz-adv-x="698" 
d="M718 212c7 -6 10 -5 7 -10c-31 -52 -103 -202 -163 -202c-38 0 -46 49 -46 78c1 42 13 107 30 175c-34 -6 -73 -13 -109 -16c-31 -73 -82 -161 -138 -218c-30 -31 -73 -57 -111 -56c-29 1 -55 18 -69 59c-28 -23 -58 -40 -96 -36c-44 4 -61 37 -59 68s22 61 53 62
c10 0 33 -4 24 -15c-10 -12 -22 0 -27 1c-18 3 -35 -20 -37 -46c-3 -27 9 -56 50 -58c35 -2 61 17 87 39c-7 27 -9 58 -8 87c3 61 34 173 111 167c41 -4 42 -46 34 -77c-17 -64 -73 -140 -122 -184c12 -37 36 -51 62 -50c31 1 66 23 89 51c41 52 77 136 108 207
c-34 3 -58 17 -58 48c0 26 28 54 42 55c4 0 7 -2 8 -7c2 -13 -14 -12 -21 -14c-11 -13 -16 -24 -17 -33c-2 -25 19 -35 51 -37c27 63 53 130 88 188c39 63 89 114 163 134c15 4 26 -1 40 -4c0 -2 -12 -41 -16 -54c-17 -59 -47 -152 -72 -243c20 2 47 3 46 -24
c-1 -12 -9 -24 -18 -30s-29 -16 -28 -1s18 11 22 13c7 3 12 11 12 18c1 19 -26 14 -37 13c-19 -72 -35 -142 -38 -189c-1 -12 -7 -58 10 -58c45 0 133 165 153 199zM125 46c32 30 81 126 93 172c7 24 18 58 -6 60c-64 5 -91 -104 -94 -155c-1 -25 0 -53 7 -77zM443 251
c34 2 73 9 106 14c23 93 53 190 71 248c2 6 8 27 12 39c-58 -20 -93 -63 -119 -116c-27 -55 -45 -122 -70 -185zM676 675c-9 -20 -20 -44 -40 -61c-11 -10 -11 -7 -26 -4c20 20 28 48 33 72c4 21 12 6 33 -7z" />
    <glyph glyph-name="Acircumflex" unicode="&#xc2;" horiz-adv-x="698" 
d="M718 212c7 -6 10 -5 7 -10c-31 -52 -103 -202 -163 -202c-38 0 -46 49 -46 78c1 42 13 107 30 175c-34 -6 -73 -13 -109 -16c-31 -73 -82 -161 -138 -218c-30 -31 -73 -57 -111 -56c-29 1 -55 18 -69 59c-28 -23 -58 -40 -96 -36c-44 4 -61 37 -59 68s22 61 53 62
c10 0 33 -4 24 -15c-10 -12 -22 0 -27 1c-18 3 -35 -20 -37 -46c-3 -27 9 -56 50 -58c35 -2 61 17 87 39c-7 27 -9 58 -8 87c3 61 34 173 111 167c41 -4 42 -46 34 -77c-17 -64 -73 -140 -122 -184c12 -37 36 -51 62 -50c31 1 66 23 89 51c41 52 77 136 108 207
c-34 3 -58 17 -58 48c0 26 28 54 42 55c4 0 7 -2 8 -7c2 -13 -14 -12 -21 -14c-11 -13 -16 -24 -17 -33c-2 -25 19 -35 51 -37c27 63 53 130 88 188c39 63 89 114 163 134c15 4 26 -1 40 -4c0 -2 -12 -41 -16 -54c-17 -59 -47 -152 -72 -243c20 2 47 3 46 -24
c-1 -12 -9 -24 -18 -30s-29 -16 -28 -1s18 11 22 13c7 3 12 11 12 18c1 19 -26 14 -37 13c-19 -72 -35 -142 -38 -189c-1 -12 -7 -58 10 -58c45 0 133 165 153 199zM125 46c32 30 81 126 93 172c7 24 18 58 -6 60c-64 5 -91 -104 -94 -155c-1 -25 0 -53 7 -77zM443 251
c34 2 73 9 106 14c23 93 53 190 71 248c2 6 8 27 12 39c-58 -20 -93 -63 -119 -116c-27 -55 -45 -122 -70 -185zM713 598l-3 -4c-16 5 -44 32 -52 51c-28 -24 -55 -39 -86 -41l1 6c35 17 63 45 92 87c9 -34 24 -75 48 -99z" />
    <glyph glyph-name="Atilde" unicode="&#xc3;" horiz-adv-x="698" 
d="M718 212c7 -6 10 -5 7 -10c-31 -52 -103 -202 -163 -202c-38 0 -46 49 -46 78c1 42 13 107 30 175c-34 -6 -73 -13 -109 -16c-31 -73 -82 -161 -138 -218c-30 -31 -73 -57 -111 -56c-29 1 -55 18 -69 59c-28 -23 -58 -40 -96 -36c-44 4 -61 37 -59 68s22 61 53 62
c10 0 33 -4 24 -15c-10 -12 -22 0 -27 1c-18 3 -35 -20 -37 -46c-3 -27 9 -56 50 -58c35 -2 61 17 87 39c-7 27 -9 58 -8 87c3 61 34 173 111 167c41 -4 42 -46 34 -77c-17 -64 -73 -140 -122 -184c12 -37 36 -51 62 -50c31 1 66 23 89 51c41 52 77 136 108 207
c-34 3 -58 17 -58 48c0 26 28 54 42 55c4 0 7 -2 8 -7c2 -13 -14 -12 -21 -14c-11 -13 -16 -24 -17 -33c-2 -25 19 -35 51 -37c27 63 53 130 88 188c39 63 89 114 163 134c15 4 26 -1 40 -4c0 -2 -12 -41 -16 -54c-17 -59 -47 -152 -72 -243c20 2 47 3 46 -24
c-1 -12 -9 -24 -18 -30s-29 -16 -28 -1s18 11 22 13c7 3 12 11 12 18c1 19 -26 14 -37 13c-19 -72 -35 -142 -38 -189c-1 -12 -7 -58 10 -58c45 0 133 165 153 199zM125 46c32 30 81 126 93 172c7 24 18 58 -6 60c-64 5 -91 -104 -94 -155c-1 -25 0 -53 7 -77zM443 251
c34 2 73 9 106 14c23 93 53 190 71 248c2 6 8 27 12 39c-58 -20 -93 -63 -119 -116c-27 -55 -45 -122 -70 -185zM710 632c-29 -41 -86 -8 -131 -19c33 43 85 7 131 19z" />
    <glyph glyph-name="Adieresis" unicode="&#xc4;" horiz-adv-x="698" 
d="M718 212c7 -6 10 -5 7 -10c-31 -52 -103 -202 -163 -202c-38 0 -46 49 -46 78c1 42 13 107 30 175c-34 -6 -73 -13 -109 -16c-31 -73 -82 -161 -138 -218c-30 -31 -73 -57 -111 -56c-29 1 -55 18 -69 59c-28 -23 -58 -40 -96 -36c-44 4 -61 37 -59 68s22 61 53 62
c10 0 33 -4 24 -15c-10 -12 -22 0 -27 1c-18 3 -35 -20 -37 -46c-3 -27 9 -56 50 -58c35 -2 61 17 87 39c-7 27 -9 58 -8 87c3 61 34 173 111 167c41 -4 42 -46 34 -77c-17 -64 -73 -140 -122 -184c12 -37 36 -51 62 -50c31 1 66 23 89 51c41 52 77 136 108 207
c-34 3 -58 17 -58 48c0 26 28 54 42 55c4 0 7 -2 8 -7c2 -13 -14 -12 -21 -14c-11 -13 -16 -24 -17 -33c-2 -25 19 -35 51 -37c27 63 53 130 88 188c39 63 89 114 163 134c15 4 26 -1 40 -4c0 -2 -12 -41 -16 -54c-17 -59 -47 -152 -72 -243c20 2 47 3 46 -24
c-1 -12 -9 -24 -18 -30s-29 -16 -28 -1s18 11 22 13c7 3 12 11 12 18c1 19 -26 14 -37 13c-19 -72 -35 -142 -38 -189c-1 -12 -7 -58 10 -58c45 0 133 165 153 199zM125 46c32 30 81 126 93 172c7 24 18 58 -6 60c-64 5 -91 -104 -94 -155c-1 -25 0 -53 7 -77zM443 251
c34 2 73 9 106 14c23 93 53 190 71 248c2 6 8 27 12 39c-58 -20 -93 -63 -119 -116c-27 -55 -45 -122 -70 -185zM624 657c14 0 22 -10 20 -23c-1 -14 -14 -25 -25 -25c-13 0 -21 11 -20 25c2 13 14 23 25 23zM711 657c12 0 21 -10 19 -23c-3 -14 -14 -25 -26 -25
s-20 11 -19 25c2 13 12 23 26 23z" />
    <glyph glyph-name="Aring" unicode="&#xc5;" horiz-adv-x="698" 
d="M718 212c7 -6 10 -5 7 -10c-31 -52 -103 -202 -163 -202c-38 0 -46 49 -46 78c1 42 13 107 30 175c-34 -6 -73 -13 -109 -16c-31 -73 -82 -161 -138 -218c-30 -31 -73 -57 -111 -56c-29 1 -55 18 -69 59c-28 -23 -58 -40 -96 -36c-44 4 -61 37 -59 68s22 61 53 62
c10 0 33 -4 24 -15c-10 -12 -22 0 -27 1c-18 3 -35 -20 -37 -46c-3 -27 9 -56 50 -58c35 -2 61 17 87 39c-7 27 -9 58 -8 87c3 61 34 173 111 167c41 -4 42 -46 34 -77c-17 -64 -73 -140 -122 -184c12 -37 36 -51 62 -50c31 1 66 23 89 51c41 52 77 136 108 207
c-34 3 -58 17 -58 48c0 26 28 54 42 55c4 0 7 -2 8 -7c2 -13 -14 -12 -21 -14c-11 -13 -16 -24 -17 -33c-2 -25 19 -35 51 -37c27 63 53 130 88 188c39 63 89 114 163 134c15 4 26 -1 40 -4c0 -2 -12 -41 -16 -54c-17 -59 -47 -152 -72 -243c20 2 47 3 46 -24
c-1 -12 -9 -24 -18 -30s-29 -16 -28 -1s18 11 22 13c7 3 12 11 12 18c1 19 -26 14 -37 13c-19 -72 -35 -142 -38 -189c-1 -12 -7 -58 10 -58c45 0 133 165 153 199zM125 46c32 30 81 126 93 172c7 24 18 58 -6 60c-64 5 -91 -104 -94 -155c-1 -25 0 -53 7 -77zM443 251
c34 2 73 9 106 14c23 93 53 190 71 248c2 6 8 27 12 39c-58 -20 -93 -63 -119 -116c-27 -55 -45 -122 -70 -185zM687 656c5 -7 7 -15 6 -26c-1 -19 -21 -35 -37 -35c-19 0 -32 17 -31 36v2c2 18 19 33 37 33c10 0 18 -3 25 -10zM680 631v2c1 7 0 11 -3 15c-4 3 -8 5 -15 5
c-9 0 -22 -9 -24 -23c0 -6 1 -13 5 -18c3 -2 8 -4 13 -4c9 0 23 10 24 23z" />
    <glyph glyph-name="AE" unicode="&#xc6;" horiz-adv-x="911" 
d="M930 212c2 -3 9 -7 7 -10c-51 -85 -112 -150 -180 -184c-34 -18 -70 -27 -107 -27c-36 0 -61 17 -74 45c-14 -13 -28 -20 -41 -20c-38 0 -46 49 -46 78c1 42 13 107 30 175c-34 -6 -73 -13 -108 -16c-32 -73 -82 -161 -138 -218c-31 -31 -74 -56 -111 -55
c-30 0 -55 17 -70 58c-28 -23 -58 -40 -96 -36c-44 4 -61 37 -59 68s23 61 53 62c11 0 33 -4 24 -15c-10 -12 -22 0 -26 1c-19 3 -35 -20 -38 -46c-3 -27 10 -56 50 -58c36 -2 62 17 88 39c-8 27 -10 58 -9 87c3 61 34 174 111 167c41 -4 42 -46 34 -76
c-17 -65 -73 -141 -122 -184c12 -38 36 -52 63 -51c31 1 65 23 88 51c41 52 78 136 108 207c-34 3 -58 17 -58 48c0 26 28 54 42 55c4 0 7 -2 8 -6c2 -13 -14 -13 -20 -15c-12 -13 -17 -24 -18 -33c-2 -25 19 -35 51 -37c27 63 53 130 88 188c39 63 89 114 163 134
c15 4 26 -1 41 -4c-1 -2 -13 -41 -16 -54c-18 -59 -48 -152 -72 -243c19 2 47 3 45 -24c-1 -12 -9 -24 -18 -30c-8 -6 -29 -16 -28 -1s18 11 22 13c7 3 12 11 12 18c1 19 -25 14 -37 13c-19 -72 -35 -142 -38 -189c-1 -12 -7 -58 11 -58c9 0 20 7 32 19c-5 16 -7 34 -6 54
c4 81 64 182 176 204c-38 16 -62 58 -57 106v14c17 93 111 139 176 137c38 -1 66 -18 64 -50c-3 -37 -42 -83 -86 -69c42 22 68 54 65 76c-2 20 -17 28 -37 28c-46 -1 -120 -51 -135 -127l-2 -13c-5 -40 10 -83 62 -105c-101 -21 -183 -144 -184 -223c0 -39 19 -67 66 -66
c25 0 51 7 77 19c64 30 130 92 180 179zM98 62c33 30 81 126 93 172c7 24 18 58 -6 60c-64 5 -91 -104 -94 -155c-1 -25 1 -53 7 -77zM416 267c35 2 73 9 106 14c23 93 53 190 71 248c2 6 8 27 12 40c-58 -21 -93 -64 -118 -116c-28 -56 -45 -123 -71 -186z" />
    <glyph glyph-name="Egrave" unicode="&#xc8;" horiz-adv-x="537" 
d="M556 212c2 -3 9 -7 7 -11c-51 -84 -112 -149 -180 -183c-34 -18 -70 -27 -107 -27c-60 0 -88 50 -85 111c4 81 64 182 176 204c-37 15 -62 58 -57 106c-59 7 -150 36 -223 36c-41 1 -75 -7 -96 -32c-6 -6 -15 -19 -14 -27c1 -4 13 -17 1 -26c-11 -9 -15 13 -14 23
c0 16 6 27 17 39c23 27 60 36 102 36c74 -1 164 -29 227 -35c17 93 112 138 177 137c37 -1 65 -18 63 -50c-4 -48 -81 -116 -195 -106c-5 -39 11 -82 62 -104c-101 -21 -183 -144 -184 -223c0 -39 19 -67 67 -66c24 0 50 7 76 19c64 30 130 92 180 179zM492 548
c-46 -1 -120 -51 -135 -127c100 -6 177 63 172 99c-2 19 -17 28 -37 28zM422 675c21 13 29 28 33 7c5 -24 13 -52 33 -72c-15 -3 -15 -6 -26 4c-20 17 -31 41 -40 61z" />
    <glyph glyph-name="Eacute" unicode="&#xc9;" horiz-adv-x="537" 
d="M556 212c2 -3 9 -7 7 -11c-51 -84 -112 -149 -180 -183c-34 -18 -70 -27 -107 -27c-60 0 -88 50 -85 111c4 81 64 182 176 204c-37 15 -62 58 -57 106c-59 7 -150 36 -223 36c-41 1 -75 -7 -96 -32c-6 -6 -15 -19 -14 -27c1 -4 13 -17 1 -26c-11 -9 -15 13 -14 23
c0 16 6 27 17 39c23 27 60 36 102 36c74 -1 164 -29 227 -35c17 93 112 138 177 137c37 -1 65 -18 63 -50c-4 -48 -81 -116 -195 -106c-5 -39 11 -82 62 -104c-101 -21 -183 -144 -184 -223c0 -39 19 -67 67 -66c24 0 50 7 76 19c64 30 130 92 180 179zM492 548
c-46 -1 -120 -51 -135 -127c100 -6 177 63 172 99c-2 19 -17 28 -37 28zM491 675c-9 -20 -20 -44 -40 -61c-11 -10 -11 -7 -26 -4c20 20 28 48 33 72c4 21 12 6 33 -7z" />
    <glyph glyph-name="Ecircumflex" unicode="&#xca;" horiz-adv-x="537" 
d="M556 212c2 -3 9 -7 7 -11c-51 -84 -112 -149 -180 -183c-34 -18 -70 -27 -107 -27c-60 0 -88 50 -85 111c4 81 64 182 176 204c-37 15 -62 58 -57 106c-59 7 -150 36 -223 36c-41 1 -75 -7 -96 -32c-6 -6 -15 -19 -14 -27c1 -4 13 -17 1 -26c-11 -9 -15 13 -14 23
c0 16 6 27 17 39c23 27 60 36 102 36c74 -1 164 -29 227 -35c17 93 112 138 177 137c37 -1 65 -18 63 -50c-4 -48 -81 -116 -195 -106c-5 -39 11 -82 62 -104c-101 -21 -183 -144 -184 -223c0 -39 19 -67 67 -66c24 0 50 7 76 19c64 30 130 92 180 179zM492 548
c-46 -1 -120 -51 -135 -127c100 -6 177 63 172 99c-2 19 -17 28 -37 28zM529 598l-3 -4c-16 5 -44 32 -52 51c-28 -24 -55 -39 -86 -41l1 6c35 17 63 45 92 87c9 -34 24 -75 48 -99z" />
    <glyph glyph-name="Edieresis" unicode="&#xcb;" horiz-adv-x="537" 
d="M556 212c2 -3 9 -7 7 -11c-51 -84 -112 -149 -180 -183c-34 -18 -70 -27 -107 -27c-60 0 -88 50 -85 111c4 81 64 182 176 204c-37 15 -62 58 -57 106c-59 7 -150 36 -223 36c-41 1 -75 -7 -96 -32c-6 -6 -15 -19 -14 -27c1 -4 13 -17 1 -26c-11 -9 -15 13 -14 23
c0 16 6 27 17 39c23 27 60 36 102 36c74 -1 164 -29 227 -35c17 93 112 138 177 137c37 -1 65 -18 63 -50c-4 -48 -81 -116 -195 -106c-5 -39 11 -82 62 -104c-101 -21 -183 -144 -184 -223c0 -39 19 -67 67 -66c24 0 50 7 76 19c64 30 130 92 180 179zM492 548
c-46 -1 -120 -51 -135 -127c100 -6 177 63 172 99c-2 19 -17 28 -37 28zM434 657c14 0 22 -10 20 -23c-1 -14 -14 -25 -25 -25c-13 0 -21 11 -20 25c2 13 14 23 25 23zM521 657c12 0 21 -10 19 -23c-3 -14 -14 -25 -26 -25s-20 11 -19 25c2 13 12 23 26 23z" />
    <glyph glyph-name="Igrave" unicode="&#xcc;" horiz-adv-x="434" 
d="M454 536c11 1 25 -4 36 -7c-8 -25 -16 -48 -23 -70c-31 -99 -50 -172 -90 -286c-32 -92 -82 -194 -162 -191c-48 2 -79 35 -95 81c-26 -21 -53 -36 -88 -36c-51 0 -70 35 -68 68c3 31 23 61 54 62c11 0 33 -4 24 -15c-9 -12 -22 0 -26 1c-22 4 -41 -29 -39 -58
c1 -24 16 -46 54 -46c35 0 59 17 85 39c-8 27 -10 58 -9 86c3 62 34 174 111 168c30 -3 41 -19 40 -42c-1 -67 -89 -191 -128 -219c14 -43 42 -70 86 -72c59 -2 94 80 118 164c35 124 51 193 86 301c6 18 12 37 19 57c-68 -8 -130 -4 -130 46c0 34 46 71 50 49
c2 -13 -14 -13 -20 -14c-12 -13 -17 -24 -18 -33c-4 -54 104 -37 133 -33zM126 87c29 25 96 147 102 204c1 16 -3 27 -15 28c-64 5 -91 -104 -94 -155c-1 -25 1 -53 7 -77zM404 675c21 13 29 28 33 7c5 -24 13 -52 33 -72c-15 -3 -15 -6 -26 4c-20 17 -31 41 -40 61z" />
    <glyph glyph-name="Iacute" unicode="&#xcd;" horiz-adv-x="434" 
d="M454 536c11 1 25 -4 36 -7c-8 -25 -16 -48 -23 -70c-31 -99 -50 -172 -90 -286c-32 -92 -82 -194 -162 -191c-48 2 -79 35 -95 81c-26 -21 -53 -36 -88 -36c-51 0 -70 35 -68 68c3 31 23 61 54 62c11 0 33 -4 24 -15c-9 -12 -22 0 -26 1c-22 4 -41 -29 -39 -58
c1 -24 16 -46 54 -46c35 0 59 17 85 39c-8 27 -10 58 -9 86c3 62 34 174 111 168c30 -3 41 -19 40 -42c-1 -67 -89 -191 -128 -219c14 -43 42 -70 86 -72c59 -2 94 80 118 164c35 124 51 193 86 301c6 18 12 37 19 57c-68 -8 -130 -4 -130 46c0 34 46 71 50 49
c2 -13 -14 -13 -20 -14c-12 -13 -17 -24 -18 -33c-4 -54 104 -37 133 -33zM126 87c29 25 96 147 102 204c1 16 -3 27 -15 28c-64 5 -91 -104 -94 -155c-1 -25 1 -53 7 -77zM474 675c-9 -20 -20 -44 -40 -61c-11 -10 -11 -7 -26 -4c20 20 28 48 33 72c4 21 12 6 33 -7z" />
    <glyph glyph-name="Icircumflex" unicode="&#xce;" horiz-adv-x="434" 
d="M454 536c11 1 25 -4 36 -7c-8 -25 -16 -48 -23 -70c-31 -99 -50 -172 -90 -286c-32 -92 -82 -194 -162 -191c-48 2 -79 35 -95 81c-26 -21 -53 -36 -88 -36c-51 0 -70 35 -68 68c3 31 23 61 54 62c11 0 33 -4 24 -15c-9 -12 -22 0 -26 1c-22 4 -41 -29 -39 -58
c1 -24 16 -46 54 -46c35 0 59 17 85 39c-8 27 -10 58 -9 86c3 62 34 174 111 168c30 -3 41 -19 40 -42c-1 -67 -89 -191 -128 -219c14 -43 42 -70 86 -72c59 -2 94 80 118 164c35 124 51 193 86 301c6 18 12 37 19 57c-68 -8 -130 -4 -130 46c0 34 46 71 50 49
c2 -13 -14 -13 -20 -14c-12 -13 -17 -24 -18 -33c-4 -54 104 -37 133 -33zM126 87c29 25 96 147 102 204c1 16 -3 27 -15 28c-64 5 -91 -104 -94 -155c-1 -25 1 -53 7 -77zM512 598l-3 -4c-16 5 -44 32 -52 51c-28 -24 -55 -39 -86 -41l1 6c35 17 63 45 92 87
c9 -34 24 -75 48 -99z" />
    <glyph glyph-name="Idieresis" unicode="&#xcf;" horiz-adv-x="434" 
d="M454 536c11 1 25 -4 36 -7c-8 -25 -16 -48 -23 -70c-31 -99 -50 -172 -90 -286c-32 -92 -82 -194 -162 -191c-48 2 -79 35 -95 81c-26 -21 -53 -36 -88 -36c-51 0 -70 35 -68 68c3 31 23 61 54 62c11 0 33 -4 24 -15c-9 -12 -22 0 -26 1c-22 4 -41 -29 -39 -58
c1 -24 16 -46 54 -46c35 0 59 17 85 39c-8 27 -10 58 -9 86c3 62 34 174 111 168c30 -3 41 -19 40 -42c-1 -67 -89 -191 -128 -219c14 -43 42 -70 86 -72c59 -2 94 80 118 164c35 124 51 193 86 301c6 18 12 37 19 57c-68 -8 -130 -4 -130 46c0 34 46 71 50 49
c2 -13 -14 -13 -20 -14c-12 -13 -17 -24 -18 -33c-4 -54 104 -37 133 -33zM126 87c29 25 96 147 102 204c1 16 -3 27 -15 28c-64 5 -91 -104 -94 -155c-1 -25 1 -53 7 -77zM429 657c14 0 22 -10 20 -23c-1 -14 -14 -25 -25 -25c-13 0 -21 11 -20 25c2 13 14 23 25 23z
M516 657c12 0 21 -10 19 -23c-3 -14 -14 -25 -26 -25s-20 11 -19 25c2 13 12 23 26 23z" />
    <glyph glyph-name="Ntilde" unicode="&#xd1;" horiz-adv-x="747" 
d="M972 645c48 0 73 -32 73 -63c0 -17 -8 -34 -24 -44c-9 -5 -30 -13 -28 2s19 10 23 12c10 3 16 16 16 31c-1 23 -16 49 -57 49c-130 3 -220 -242 -258 -340c-25 -66 -98 -307 -164 -304c-43 2 -40 84 -36 116c13 114 72 307 101 398c2 6 8 27 12 40
c-124 -45 -139 -190 -194 -316c-36 -85 -137 -276 -248 -273c-29 1 -55 18 -69 59c-28 -23 -59 -40 -96 -36c-42 4 -60 34 -59 64c0 33 21 65 53 66c10 0 32 -4 23 -15c-9 -12 -21 0 -26 1c-19 3 -36 -22 -38 -49c-1 -26 12 -54 50 -55c36 -2 62 17 88 39
c-8 27 -10 58 -8 87c3 61 34 173 111 167c41 -4 41 -46 33 -77c-17 -64 -73 -140 -121 -184c12 -37 36 -51 62 -50c99 4 165 185 198 260c56 131 107 285 244 329c22 7 22 5 49 -2c0 -1 -12 -41 -16 -54c-29 -99 -93 -295 -110 -411c-2 -15 -12 -85 5 -84
c45 2 120 238 142 294c40 104 133 342 269 343zM124 36c33 30 82 126 94 172c6 24 17 58 -7 60c-63 5 -90 -104 -93 -155c-1 -25 0 -53 6 -77zM819 632c-29 -41 -86 -8 -131 -19c33 43 85 7 131 19z" />
    <glyph glyph-name="Ograve" unicode="&#xd2;" horiz-adv-x="601" 
d="M579 504c23 -11 39 -36 39 -77c0 -146 -205 -453 -354 -451c-58 1 -95 47 -89 130c7 106 76 246 116 294c-62 8 -152 38 -222 34c-32 -1 -60 -10 -79 -32c-5 -7 -14 -19 -13 -27c1 -5 13 -17 1 -26c-11 -9 -15 13 -15 23c1 15 7 26 17 38c25 29 64 38 107 36
c70 -1 153 -28 214 -34c49 58 142 138 230 133c39 -2 53 -19 48 -41zM533 531c-82 4 -132 -74 -176 -124c22 -2 45 1 67 6c11 25 28 50 50 69c25 22 56 35 90 28c0 11 -9 19 -31 21zM560 497c-29 6 -57 -6 -78 -25c-18 -15 -32 -35 -42 -54c26 8 50 19 70 32
c24 15 42 32 50 47zM285 0c127 -9 320 299 320 427c0 34 -12 55 -31 65c-9 -18 -29 -38 -56 -56c-24 -15 -53 -28 -85 -35c-15 -38 -19 -120 36 -120c15 1 28 7 31 17c2 4 -3 21 12 23c14 3 7 -18 2 -27c-10 -18 -28 -26 -46 -26c-60 2 -65 84 -50 129c-23 -4 -47 -5 -72 -3
c-33 -41 -110 -185 -122 -289c-7 -66 19 -103 61 -105zM495 675c21 13 29 28 33 7c5 -24 13 -52 33 -72c-15 -3 -15 -6 -26 4c-20 17 -31 41 -40 61z" />
    <glyph glyph-name="Oacute" unicode="&#xd3;" horiz-adv-x="601" 
d="M579 504c23 -11 39 -36 39 -77c0 -146 -205 -453 -354 -451c-58 1 -95 47 -89 130c7 106 76 246 116 294c-62 8 -152 38 -222 34c-32 -1 -60 -10 -79 -32c-5 -7 -14 -19 -13 -27c1 -5 13 -17 1 -26c-11 -9 -15 13 -15 23c1 15 7 26 17 38c25 29 64 38 107 36
c70 -1 153 -28 214 -34c49 58 142 138 230 133c39 -2 53 -19 48 -41zM533 531c-82 4 -132 -74 -176 -124c22 -2 45 1 67 6c11 25 28 50 50 69c25 22 56 35 90 28c0 11 -9 19 -31 21zM560 497c-29 6 -57 -6 -78 -25c-18 -15 -32 -35 -42 -54c26 8 50 19 70 32
c24 15 42 32 50 47zM285 0c127 -9 320 299 320 427c0 34 -12 55 -31 65c-9 -18 -29 -38 -56 -56c-24 -15 -53 -28 -85 -35c-15 -38 -19 -120 36 -120c15 1 28 7 31 17c2 4 -3 21 12 23c14 3 7 -18 2 -27c-10 -18 -28 -26 -46 -26c-60 2 -65 84 -50 129c-23 -4 -47 -5 -72 -3
c-33 -41 -110 -185 -122 -289c-7 -66 19 -103 61 -105zM562 675c-9 -20 -20 -44 -40 -61c-11 -10 -11 -7 -26 -4c20 20 28 48 33 72c4 21 12 6 33 -7z" />
    <glyph glyph-name="Ocircumflex" unicode="&#xd4;" horiz-adv-x="601" 
d="M579 504c23 -11 39 -36 39 -77c0 -146 -205 -453 -354 -451c-58 1 -95 47 -89 130c7 106 76 246 116 294c-62 8 -152 38 -222 34c-32 -1 -60 -10 -79 -32c-5 -7 -14 -19 -13 -27c1 -5 13 -17 1 -26c-11 -9 -15 13 -15 23c1 15 7 26 17 38c25 29 64 38 107 36
c70 -1 153 -28 214 -34c49 58 142 138 230 133c39 -2 53 -19 48 -41zM533 531c-82 4 -132 -74 -176 -124c22 -2 45 1 67 6c11 25 28 50 50 69c25 22 56 35 90 28c0 11 -9 19 -31 21zM560 497c-29 6 -57 -6 -78 -25c-18 -15 -32 -35 -42 -54c26 8 50 19 70 32
c24 15 42 32 50 47zM285 0c127 -9 320 299 320 427c0 34 -12 55 -31 65c-9 -18 -29 -38 -56 -56c-24 -15 -53 -28 -85 -35c-15 -38 -19 -120 36 -120c15 1 28 7 31 17c2 4 -3 21 12 23c14 3 7 -18 2 -27c-10 -18 -28 -26 -46 -26c-60 2 -65 84 -50 129c-23 -4 -47 -5 -72 -3
c-33 -41 -110 -185 -122 -289c-7 -66 19 -103 61 -105zM596 598l-3 -4c-16 5 -44 32 -52 51c-28 -24 -55 -39 -86 -41l1 6c35 17 63 45 92 87c9 -34 24 -75 48 -99z" />
    <glyph glyph-name="Otilde" unicode="&#xd5;" horiz-adv-x="601" 
d="M579 504c23 -11 39 -36 39 -77c0 -146 -205 -453 -354 -451c-58 1 -95 47 -89 130c7 106 76 246 116 294c-62 8 -152 38 -222 34c-32 -1 -60 -10 -79 -32c-5 -7 -14 -19 -13 -27c1 -5 13 -17 1 -26c-11 -9 -15 13 -15 23c1 15 7 26 17 38c25 29 64 38 107 36
c70 -1 153 -28 214 -34c49 58 142 138 230 133c39 -2 53 -19 48 -41zM533 531c-82 4 -132 -74 -176 -124c22 -2 45 1 67 6c11 25 28 50 50 69c25 22 56 35 90 28c0 11 -9 19 -31 21zM560 497c-29 6 -57 -6 -78 -25c-18 -15 -32 -35 -42 -54c26 8 50 19 70 32
c24 15 42 32 50 47zM285 0c127 -9 320 299 320 427c0 34 -12 55 -31 65c-9 -18 -29 -38 -56 -56c-24 -15 -53 -28 -85 -35c-15 -38 -19 -120 36 -120c15 1 28 7 31 17c2 4 -3 21 12 23c14 3 7 -18 2 -27c-10 -18 -28 -26 -46 -26c-60 2 -65 84 -50 129c-23 -4 -47 -5 -72 -3
c-33 -41 -110 -185 -122 -289c-7 -66 19 -103 61 -105zM616 632c-29 -41 -86 -8 -131 -19c33 43 85 7 131 19z" />
    <glyph glyph-name="Odieresis" unicode="&#xd6;" horiz-adv-x="601" 
d="M579 504c23 -11 39 -36 39 -77c0 -146 -205 -453 -354 -451c-58 1 -95 47 -89 130c7 106 76 246 116 294c-62 8 -152 38 -222 34c-32 -1 -60 -10 -79 -32c-5 -7 -14 -19 -13 -27c1 -5 13 -17 1 -26c-11 -9 -15 13 -15 23c1 15 7 26 17 38c25 29 64 38 107 36
c70 -1 153 -28 214 -34c49 58 142 138 230 133c39 -2 53 -19 48 -41zM533 531c-82 4 -132 -74 -176 -124c22 -2 45 1 67 6c11 25 28 50 50 69c25 22 56 35 90 28c0 11 -9 19 -31 21zM560 497c-29 6 -57 -6 -78 -25c-18 -15 -32 -35 -42 -54c26 8 50 19 70 32
c24 15 42 32 50 47zM285 0c127 -9 320 299 320 427c0 34 -12 55 -31 65c-9 -18 -29 -38 -56 -56c-24 -15 -53 -28 -85 -35c-15 -38 -19 -120 36 -120c15 1 28 7 31 17c2 4 -3 21 12 23c14 3 7 -18 2 -27c-10 -18 -28 -26 -46 -26c-60 2 -65 84 -50 129c-23 -4 -47 -5 -72 -3
c-33 -41 -110 -185 -122 -289c-7 -66 19 -103 61 -105zM513 657c14 0 22 -10 20 -23c-1 -14 -14 -25 -25 -25c-13 0 -21 11 -20 25c2 13 14 23 25 23zM600 657c12 0 21 -10 19 -23c-3 -14 -14 -25 -26 -25s-20 11 -19 25c2 13 12 23 26 23z" />
    <glyph glyph-name="Ugrave" unicode="&#xd9;" horiz-adv-x="598" 
d="M618 212c7 -7 9 -6 6 -11c-31 -52 -103 -202 -163 -202c-39 0 -46 52 -46 81c0 31 6 67 13 104c-47 -83 -120 -203 -165 -202c-34 0 -45 36 -43 88c3 114 64 300 73 337c22 86 33 171 -26 173c-43 2 -84 -23 -121 -65c24 -47 37 -128 19 -193c-10 -34 -37 -77 -77 -75
c-26 1 -47 24 -45 63c2 64 39 138 78 189c3 4 4 6 8 10c-18 33 -51 50 -82 48c-67 -4 -92 -94 -55 -111c4 -2 21 1 23 -14c1 -15 -20 -6 -28 0c-54 42 -7 136 70 136c31 -1 63 -15 84 -44c40 44 88 75 135 73c79 -3 74 -108 56 -203c-6 -29 -56 -215 -70 -322
c-6 -45 -5 -76 9 -76c32 -1 120 147 166 226c13 56 29 110 38 145c13 49 50 198 102 198c19 0 30 -10 33 -24c14 -60 -60 -182 -112 -266c-18 -67 -38 -129 -44 -197c0 -13 -7 -66 11 -66c44 0 133 166 153 200zM588 546c-24 0 -74 -209 -83 -239c46 79 107 183 93 226
c-2 7 -5 13 -10 13zM132 321c13 47 17 146 2 179c-2 -3 -1 -2 -3 -5c-37 -47 -68 -111 -74 -171c-4 -36 12 -61 31 -63c28 -2 39 40 44 60zM406 675c21 13 29 28 33 7c5 -24 13 -52 33 -72c-15 -3 -15 -6 -26 4c-20 17 -31 41 -40 61z" />
    <glyph glyph-name="Uacute" unicode="&#xda;" horiz-adv-x="598" 
d="M618 212c7 -7 9 -6 6 -11c-31 -52 -103 -202 -163 -202c-39 0 -46 52 -46 81c0 31 6 67 13 104c-47 -83 -120 -203 -165 -202c-34 0 -45 36 -43 88c3 114 64 300 73 337c22 86 33 171 -26 173c-43 2 -84 -23 -121 -65c24 -47 37 -128 19 -193c-10 -34 -37 -77 -77 -75
c-26 1 -47 24 -45 63c2 64 39 138 78 189c3 4 4 6 8 10c-18 33 -51 50 -82 48c-67 -4 -92 -94 -55 -111c4 -2 21 1 23 -14c1 -15 -20 -6 -28 0c-54 42 -7 136 70 136c31 -1 63 -15 84 -44c40 44 88 75 135 73c79 -3 74 -108 56 -203c-6 -29 -56 -215 -70 -322
c-6 -45 -5 -76 9 -76c32 -1 120 147 166 226c13 56 29 110 38 145c13 49 50 198 102 198c19 0 30 -10 33 -24c14 -60 -60 -182 -112 -266c-18 -67 -38 -129 -44 -197c0 -13 -7 -66 11 -66c44 0 133 166 153 200zM588 546c-24 0 -74 -209 -83 -239c46 79 107 183 93 226
c-2 7 -5 13 -10 13zM132 321c13 47 17 146 2 179c-2 -3 -1 -2 -3 -5c-37 -47 -68 -111 -74 -171c-4 -36 12 -61 31 -63c28 -2 39 40 44 60zM498 675c-9 -20 -20 -44 -40 -61c-11 -10 -11 -7 -26 -4c20 20 28 48 33 72c4 21 12 6 33 -7z" />
    <glyph glyph-name="Ucircumflex" unicode="&#xdb;" horiz-adv-x="598" 
d="M618 212c7 -7 9 -6 6 -11c-31 -52 -103 -202 -163 -202c-39 0 -46 52 -46 81c0 31 6 67 13 104c-47 -83 -120 -203 -165 -202c-34 0 -45 36 -43 88c3 114 64 300 73 337c22 86 33 171 -26 173c-43 2 -84 -23 -121 -65c24 -47 37 -128 19 -193c-10 -34 -37 -77 -77 -75
c-26 1 -47 24 -45 63c2 64 39 138 78 189c3 4 4 6 8 10c-18 33 -51 50 -82 48c-67 -4 -92 -94 -55 -111c4 -2 21 1 23 -14c1 -15 -20 -6 -28 0c-54 42 -7 136 70 136c31 -1 63 -15 84 -44c40 44 88 75 135 73c79 -3 74 -108 56 -203c-6 -29 -56 -215 -70 -322
c-6 -45 -5 -76 9 -76c32 -1 120 147 166 226c13 56 29 110 38 145c13 49 50 198 102 198c19 0 30 -10 33 -24c14 -60 -60 -182 -112 -266c-18 -67 -38 -129 -44 -197c0 -13 -7 -66 11 -66c44 0 133 166 153 200zM588 546c-24 0 -74 -209 -83 -239c46 79 107 183 93 226
c-2 7 -5 13 -10 13zM132 321c13 47 17 146 2 179c-2 -3 -1 -2 -3 -5c-37 -47 -68 -111 -74 -171c-4 -36 12 -61 31 -63c28 -2 39 40 44 60zM515 598l-3 -4c-16 5 -44 32 -52 51c-28 -24 -55 -39 -86 -41l1 6c35 17 63 45 92 87c9 -34 24 -75 48 -99z" />
    <glyph glyph-name="Udieresis" unicode="&#xdc;" horiz-adv-x="598" 
d="M618 212c7 -7 9 -6 6 -11c-31 -52 -103 -202 -163 -202c-39 0 -46 52 -46 81c0 31 6 67 13 104c-47 -83 -120 -203 -165 -202c-34 0 -45 36 -43 88c3 114 64 300 73 337c22 86 33 171 -26 173c-43 2 -84 -23 -121 -65c24 -47 37 -128 19 -193c-10 -34 -37 -77 -77 -75
c-26 1 -47 24 -45 63c2 64 39 138 78 189c3 4 4 6 8 10c-18 33 -51 50 -82 48c-67 -4 -92 -94 -55 -111c4 -2 21 1 23 -14c1 -15 -20 -6 -28 0c-54 42 -7 136 70 136c31 -1 63 -15 84 -44c40 44 88 75 135 73c79 -3 74 -108 56 -203c-6 -29 -56 -215 -70 -322
c-6 -45 -5 -76 9 -76c32 -1 120 147 166 226c13 56 29 110 38 145c13 49 50 198 102 198c19 0 30 -10 33 -24c14 -60 -60 -182 -112 -266c-18 -67 -38 -129 -44 -197c0 -13 -7 -66 11 -66c44 0 133 166 153 200zM588 546c-24 0 -74 -209 -83 -239c46 79 107 183 93 226
c-2 7 -5 13 -10 13zM132 321c13 47 17 146 2 179c-2 -3 -1 -2 -3 -5c-37 -47 -68 -111 -74 -171c-4 -36 12 -61 31 -63c28 -2 39 40 44 60zM421 657c14 0 22 -10 20 -23c-1 -14 -14 -25 -25 -25c-13 0 -21 11 -20 25c2 13 14 23 25 23zM508 657c12 0 21 -10 19 -23
c-3 -14 -14 -25 -26 -25s-20 11 -19 25c2 13 12 23 26 23z" />
    <glyph glyph-name="Yacute" unicode="&#xdd;" horiz-adv-x="615" 
d="M635 212c10 -6 10 -4 6 -11c-27 -54 -107 -212 -187 -227v-2c-5 -19 -12 -46 -21 -72c-19 -57 -65 -133 -136 -134c-40 -1 -75 24 -73 68c2 57 74 98 113 115c28 12 55 21 74 28c11 45 27 109 44 168c-43 -64 -120 -168 -171 -168c-107 1 -5 288 8 343
c22 86 33 170 -25 173c-43 2 -84 -24 -121 -66c23 -47 36 -127 18 -192c-9 -35 -37 -78 -77 -76c-26 2 -46 25 -45 64c3 63 40 138 78 188c3 5 5 7 8 11c-19 35 -50 49 -79 47c-37 -2 -70 -30 -73 -72c-2 -18 4 -33 16 -39c4 -2 21 2 22 -14c1 -14 -19 -5 -28 1
c-16 12 -23 32 -22 52c3 50 47 82 93 83c31 0 63 -13 84 -44c40 45 87 76 135 74c78 -4 74 -109 55 -203c-8 -41 -85 -315 -39 -316c39 0 145 146 174 193c20 67 35 136 56 203c18 60 47 129 83 129c19 0 29 -11 32 -25c8 -32 -9 -81 -35 -133c-23 -45 -52 -93 -76 -132
c-5 -18 -10 -37 -16 -54c-19 -62 -37 -126 -52 -186c69 14 146 172 177 226zM615 496c-24 0 -74 -209 -82 -238c19 33 40 70 58 105c25 50 42 95 35 121c-2 6 -6 12 -11 12zM131 234c13 47 18 145 2 178c-1 -2 -1 -2 -3 -4c-36 -48 -68 -112 -74 -172c-3 -35 13 -60 31 -62
c28 -3 39 40 44 60zM391 -90c5 14 12 40 16 54c-18 -7 -43 -15 -68 -26c-35 -15 -99 -53 -101 -105c-2 -34 20 -51 52 -51c65 1 86 78 101 128zM484 566c-9 -20 -20 -44 -40 -61c-11 -10 -11 -7 -26 -4c20 20 28 48 33 72c4 21 12 6 33 -7z" />
    <glyph glyph-name="agrave" unicode="&#xe0;" horiz-adv-x="264" 
d="M284 212c8 -7 10 -5 6 -12c-28 -46 -98 -183 -146 -183c-27 0 -40 14 -45 35c-5 20 -1 52 6 85c-20 -35 -44 -67 -67 -67c-33 0 -40 49 -39 74c2 61 42 129 92 128c15 0 31 -7 47 -23c3 7 5 13 6 15c8 20 30 11 48 7c-18 -44 -67 -196 -61 -232c1 -7 5 -12 11 -12
c43 0 118 147 142 185zM44 83c16 0 49 54 72 97c6 21 13 40 19 60c-10 10 -20 15 -29 15c-43 0 -69 -107 -70 -152c0 -5 0 -21 8 -20zM87 368c21 13 29 28 33 7c5 -24 13 -52 33 -72c-15 -3 -15 -6 -26 4c-20 17 -31 41 -40 61z" />
    <glyph glyph-name="aacute" unicode="&#xe1;" horiz-adv-x="264" 
d="M284 212c8 -7 10 -5 6 -12c-28 -46 -98 -183 -146 -183c-27 0 -40 14 -45 35c-5 20 -1 52 6 85c-20 -35 -44 -67 -67 -67c-33 0 -40 49 -39 74c2 61 42 129 92 128c15 0 31 -7 47 -23c3 7 5 13 6 15c8 20 30 11 48 7c-18 -44 -67 -196 -61 -232c1 -7 5 -12 11 -12
c43 0 118 147 142 185zM44 83c16 0 49 54 72 97c6 21 13 40 19 60c-10 10 -20 15 -29 15c-43 0 -69 -107 -70 -152c0 -5 0 -21 8 -20zM176 362c-9 -20 -20 -44 -40 -61c-11 -10 -11 -7 -26 -4c20 20 28 48 33 72c4 21 12 6 33 -7z" />
    <glyph glyph-name="acircumflex" unicode="&#xe2;" horiz-adv-x="264" 
d="M284 212c8 -7 10 -5 6 -12c-28 -46 -98 -183 -146 -183c-27 0 -40 14 -45 35c-5 20 -1 52 6 85c-20 -35 -44 -67 -67 -67c-33 0 -40 49 -39 74c2 61 42 129 92 128c15 0 31 -7 47 -23c3 7 5 13 6 15c8 20 30 11 48 7c-18 -44 -67 -196 -61 -232c1 -7 5 -12 11 -12
c43 0 118 147 142 185zM44 83c16 0 49 54 72 97c6 21 13 40 19 60c-10 10 -20 15 -29 15c-43 0 -69 -107 -70 -152c0 -5 0 -21 8 -20zM206 301l-3 -4c-16 5 -44 32 -52 51c-28 -24 -55 -39 -86 -41l1 6c35 17 63 45 92 87c9 -34 24 -75 48 -99z" />
    <glyph glyph-name="atilde" unicode="&#xe3;" horiz-adv-x="264" 
d="M284 212c8 -7 10 -5 6 -12c-28 -46 -98 -183 -146 -183c-27 0 -40 14 -45 35c-5 20 -1 52 6 85c-20 -35 -44 -67 -67 -67c-33 0 -40 49 -39 74c2 61 42 129 92 128c15 0 31 -7 47 -23c3 7 5 13 6 15c8 20 30 11 48 7c-18 -44 -67 -196 -61 -232c1 -7 5 -12 11 -12
c43 0 118 147 142 185zM44 83c16 0 49 54 72 97c6 21 13 40 19 60c-10 10 -20 15 -29 15c-43 0 -69 -107 -70 -152c0 -5 0 -21 8 -20zM204 324c-29 -41 -86 -8 -131 -19c33 43 85 7 131 19z" />
    <glyph glyph-name="adieresis" unicode="&#xe4;" horiz-adv-x="264" 
d="M284 212c8 -7 10 -5 6 -12c-28 -46 -98 -183 -146 -183c-27 0 -40 14 -45 35c-5 20 -1 52 6 85c-20 -35 -44 -67 -67 -67c-33 0 -40 49 -39 74c2 61 42 129 92 128c15 0 31 -7 47 -23c3 7 5 13 6 15c8 20 30 11 48 7c-18 -44 -67 -196 -61 -232c1 -7 5 -12 11 -12
c43 0 118 147 142 185zM44 83c16 0 49 54 72 97c6 21 13 40 19 60c-10 10 -20 15 -29 15c-43 0 -69 -107 -70 -152c0 -5 0 -21 8 -20zM84 348c14 0 22 -10 20 -23c-1 -14 -14 -25 -25 -25c-13 0 -21 11 -20 25c2 13 14 23 25 23zM171 348c12 0 21 -10 19 -23
c-3 -14 -14 -25 -26 -25s-20 11 -19 25c2 13 12 23 26 23z" />
    <glyph glyph-name="aring" unicode="&#xe5;" horiz-adv-x="264" 
d="M284 212c8 -7 10 -5 6 -12c-28 -46 -98 -183 -146 -183c-27 0 -40 14 -45 35c-5 20 -1 52 6 85c-20 -35 -44 -67 -67 -67c-33 0 -40 49 -39 74c2 61 42 129 92 128c15 0 31 -7 47 -23c3 7 5 13 6 15c8 20 30 11 48 7c-18 -44 -67 -196 -61 -232c1 -7 5 -12 11 -12
c43 0 118 147 142 185zM44 83c16 0 49 54 72 97c6 21 13 40 19 60c-10 10 -20 15 -29 15c-43 0 -69 -107 -70 -152c0 -5 0 -21 8 -20zM164 359c5 -7 7 -15 6 -26c-1 -19 -21 -35 -37 -35c-19 0 -32 17 -31 36v2c2 18 19 33 37 33c10 0 18 -3 25 -10zM157 334v2
c1 7 0 11 -3 15c-4 3 -8 5 -15 5c-9 0 -22 -9 -24 -23c0 -6 1 -13 5 -18c3 -2 8 -4 13 -4c9 0 23 10 24 23z" />
    <glyph glyph-name="egrave" unicode="&#xe8;" horiz-adv-x="220" 
d="M239 212c7 -6 9 -5 6 -11c-35 -67 -128 -193 -212 -192c-35 1 -49 34 -47 78c2 87 60 214 121 213c26 0 42 -18 41 -38c-2 -21 -25 -46 -80 -54l-5 -1c-18 -46 -42 -121 -43 -155c-1 -23 8 -31 20 -31c71 -1 167 133 199 191zM118 283c-15 1 -33 -26 -50 -64
c49 7 67 31 67 47c0 10 -7 17 -17 17zM70 394c21 13 29 28 33 7c5 -24 13 -52 33 -72c-15 -3 -15 -6 -26 4c-20 17 -31 41 -40 61z" />
    <glyph glyph-name="eacute" unicode="&#xe9;" horiz-adv-x="220" 
d="M239 212c7 -6 9 -5 6 -11c-35 -67 -128 -193 -212 -192c-35 1 -49 34 -47 78c2 87 60 214 121 213c26 0 42 -18 41 -38c-2 -21 -25 -46 -80 -54l-5 -1c-18 -46 -42 -121 -43 -155c-1 -23 8 -31 20 -31c71 -1 167 133 199 191zM118 283c-15 1 -33 -26 -50 -64
c49 7 67 31 67 47c0 10 -7 17 -17 17zM157 396c-9 -20 -20 -44 -40 -61c-11 -10 -11 -7 -26 -4c20 20 28 48 33 72c4 21 12 6 33 -7z" />
    <glyph glyph-name="ecircumflex" unicode="&#xea;" horiz-adv-x="220" 
d="M239 212c7 -6 9 -5 6 -11c-35 -67 -128 -193 -212 -192c-35 1 -49 34 -47 78c2 87 60 214 121 213c26 0 42 -18 41 -38c-2 -21 -25 -46 -80 -54l-5 -1c-18 -46 -42 -121 -43 -155c-1 -23 8 -31 20 -31c71 -1 167 133 199 191zM118 283c-15 1 -33 -26 -50 -64
c49 7 67 31 67 47c0 10 -7 17 -17 17zM169 321l-3 -4c-16 5 -44 32 -52 51c-28 -24 -55 -39 -86 -41l1 6c35 17 63 45 92 87c9 -34 24 -75 48 -99z" />
    <glyph glyph-name="edieresis" unicode="&#xeb;" horiz-adv-x="220" 
d="M239 212c7 -6 9 -5 6 -11c-35 -67 -128 -193 -212 -192c-35 1 -49 34 -47 78c2 87 60 214 121 213c26 0 42 -18 41 -38c-2 -21 -25 -46 -80 -54l-5 -1c-18 -46 -42 -121 -43 -155c-1 -23 8 -31 20 -31c71 -1 167 133 199 191zM118 283c-15 1 -33 -26 -50 -64
c49 7 67 31 67 47c0 10 -7 17 -17 17zM63 371c14 0 22 -10 20 -23c-1 -14 -14 -25 -25 -25c-13 0 -21 11 -20 25c2 13 14 23 25 23zM150 371c12 0 21 -10 19 -23c-3 -14 -14 -25 -26 -25s-20 11 -19 25c2 13 12 23 26 23z" />
    <glyph glyph-name="igrave" unicode="&#xec;" horiz-adv-x="159" 
d="M186 205c0 -1 0 -2 -2 -5c-24 -43 -85 -135 -124 -161c-6 -4 -14 -6 -22 -6c-35 0 -43 36 -43 64c1 48 23 118 37 153c8 19 30 10 48 6c-5 -12 -57 -159 -50 -200c1 -8 5 -12 10 -12s9 1 15 5c38 25 100 120 123 163c6 -4 8 -5 8 -7zM40 356c21 13 29 28 33 7
c5 -24 13 -52 33 -72c-15 -3 -15 -6 -26 4c-20 17 -31 41 -40 61z" />
    <glyph glyph-name="iacute" unicode="&#xed;" horiz-adv-x="158" 
d="M186 205c0 -1 0 -2 -2 -5c-24 -43 -85 -135 -124 -161c-6 -4 -14 -6 -22 -6c-35 0 -43 36 -43 64c1 48 23 118 37 153c8 19 30 10 48 6c-5 -12 -57 -159 -50 -200c1 -8 5 -12 10 -12s9 1 15 5c38 25 100 120 123 163c6 -4 8 -5 8 -7zM100 355c-9 -20 -20 -44 -40 -61
c-11 -10 -11 -7 -26 -4c20 20 28 48 33 72c4 21 12 6 33 -7z" />
    <glyph glyph-name="icircumflex" unicode="&#xee;" horiz-adv-x="159" 
d="M186 205c0 -1 0 -2 -2 -5c-24 -43 -85 -135 -124 -161c-6 -4 -14 -6 -22 -6c-35 0 -43 36 -43 64c1 48 23 118 37 153c8 19 30 10 48 6c-5 -12 -57 -159 -50 -200c1 -8 5 -12 10 -12s9 1 15 5c38 25 100 120 123 163c6 -4 8 -5 8 -7zM136 280l-3 -4c-16 5 -44 32 -52 51
c-28 -24 -55 -39 -86 -41l1 6c35 17 63 45 92 87c9 -34 24 -75 48 -99z" />
    <glyph glyph-name="idieresis" unicode="&#xef;" horiz-adv-x="159" 
d="M186 205c0 -1 0 -2 -2 -5c-24 -43 -85 -135 -124 -161c-6 -4 -14 -6 -22 -6c-35 0 -43 36 -43 64c1 48 23 118 37 153c8 19 30 10 48 6c-5 -12 -57 -159 -50 -200c1 -8 5 -12 10 -12s9 1 15 5c38 25 100 120 123 163c6 -4 8 -5 8 -7zM27 343c14 0 22 -10 20 -23
c-1 -14 -14 -25 -25 -25c-13 0 -21 11 -20 25c2 13 14 23 25 23zM114 343c12 0 21 -10 19 -23c-3 -14 -14 -25 -26 -25s-20 11 -19 25c2 13 12 23 26 23z" />
    <glyph glyph-name="ntilde" unicode="&#xf1;" horiz-adv-x="269" 
d="M288 212c10 -6 11 -4 7 -11c-21 -37 -83 -168 -128 -216c-8 -8 -20 -16 -33 -15c-27 2 -37 33 -36 55c2 66 52 207 49 233c-1 3 -3 4 -5 4c-21 -1 -75 -90 -97 -130c-4 -18 -9 -36 -15 -57c-8 -26 -24 -20 -51 -24c19 72 31 137 49 203c6 20 32 10 51 5
c-11 -33 -19 -62 -26 -91c26 48 63 107 95 107c18 0 30 -10 34 -26c11 -40 -56 -231 -45 -262c4 -12 21 6 23 8c45 48 114 193 128 217zM177 324c-29 -41 -86 -8 -131 -19c33 43 85 7 131 19z" />
    <glyph glyph-name="ograve" unicode="&#xf2;" 
d="M241 212c6 -6 9 -6 6 -11c-16 -29 -41 -57 -72 -56c-10 0 -21 4 -33 12c-18 -47 -51 -118 -108 -117c-39 1 -49 42 -48 72c1 61 41 143 103 142c7 0 14 -2 21 -6c3 3 9 5 16 5c23 0 28 -27 27 -51c-1 -13 -3 -25 -5 -31c9 -10 19 -14 28 -14c25 -1 48 27 65 55zM42 54
c43 -5 79 76 92 110c-20 20 -35 53 -30 73c-44 -4 -90 -117 -81 -162c3 -12 9 -20 19 -21zM143 204c1 17 -1 37 -12 37c-22 0 5 -56 8 -61c1 3 3 13 4 24zM62 354c21 13 29 28 33 7c5 -24 13 -52 33 -72c-15 -3 -15 -6 -26 4c-20 17 -31 41 -40 61z" />
    <glyph glyph-name="oacute" unicode="&#xf3;" 
d="M241 212c6 -6 9 -6 6 -11c-16 -29 -41 -57 -72 -56c-10 0 -21 4 -33 12c-18 -47 -51 -118 -108 -117c-39 1 -49 42 -48 72c1 61 41 143 103 142c7 0 14 -2 21 -6c3 3 9 5 16 5c23 0 28 -27 27 -51c-1 -13 -3 -25 -5 -31c9 -10 19 -14 28 -14c25 -1 48 27 65 55zM42 54
c43 -5 79 76 92 110c-20 20 -35 53 -30 73c-44 -4 -90 -117 -81 -162c3 -12 9 -20 19 -21zM143 204c1 17 -1 37 -12 37c-22 0 5 -56 8 -61c1 3 3 13 4 24zM140 353c-9 -20 -20 -44 -40 -61c-11 -10 -11 -7 -26 -4c20 20 28 48 33 72c4 21 12 6 33 -7z" />
    <glyph glyph-name="ocircumflex" unicode="&#xf4;" 
d="M241 212c6 -6 9 -6 6 -11c-16 -29 -41 -57 -72 -56c-10 0 -21 4 -33 12c-18 -47 -51 -118 -108 -117c-39 1 -49 42 -48 72c1 61 41 143 103 142c7 0 14 -2 21 -6c3 3 9 5 16 5c23 0 28 -27 27 -51c-1 -13 -3 -25 -5 -31c9 -10 19 -14 28 -14c25 -1 48 27 65 55zM42 54
c43 -5 79 76 92 110c-20 20 -35 53 -30 73c-44 -4 -90 -117 -81 -162c3 -12 9 -20 19 -21zM143 204c1 17 -1 37 -12 37c-22 0 5 -56 8 -61c1 3 3 13 4 24zM166 282l-3 -4c-16 5 -44 32 -52 51c-28 -24 -55 -39 -86 -41l1 6c35 17 63 45 92 87c9 -34 24 -75 48 -99z" />
    <glyph glyph-name="otilde" unicode="&#xf5;" 
d="M241 212c6 -6 9 -6 6 -11c-16 -29 -41 -57 -72 -56c-10 0 -21 4 -33 12c-18 -47 -51 -118 -108 -117c-39 1 -49 42 -48 72c1 61 41 143 103 142c7 0 14 -2 21 -6c3 3 9 5 16 5c23 0 28 -27 27 -51c-1 -13 -3 -25 -5 -31c9 -10 19 -14 28 -14c25 -1 48 27 65 55zM42 54
c43 -5 79 76 92 110c-20 20 -35 53 -30 73c-44 -4 -90 -117 -81 -162c3 -12 9 -20 19 -21zM143 204c1 17 -1 37 -12 37c-22 0 5 -56 8 -61c1 3 3 13 4 24zM168 312c-29 -41 -86 -8 -131 -19c33 43 85 7 131 19z" />
    </font>
</defs>
</svg>
